<?xml version="1.0" standalone="no"?>
<!DOCTYPE svg PUBLIC "-//W3C//DTD SVG 1.1//EN" "http://www.w3.org/Graphics/SVG/1.1/DTD/svg11.dtd" >
<svg xmlns="http://www.w3.org/2000/svg" xmlns:xlink="http://www.w3.org/1999/xlink" version="1.1">
<metadata>
Created by FontForge 20170731 at Wed Mar 16 01:48:47 2016
 By Aleksey,,,
Copyright (C) 1996, 2016 Hoefler &#38; Co. http://www.typography.com
</metadata>
<defs>
<font id="Whitney-BlackItalic" horiz-adv-x="531" >
  <font-face 
    font-family="Whitney Black"
    font-weight="475"
    font-style="italic"
    font-stretch="normal"
    units-per-em="1000"
    panose-1="0 0 0 0 0 0 0 0 0 0"
    ascent="800"
    descent="-200"
    x-height="495"
    cap-height="690"
    bbox="-174 -272 1065 1025"
    underline-thickness="50"
    underline-position="-200"
    slope="-9"
    unicode-range="U+0020-FB04"
  />
<missing-glyph horiz-adv-x="500" 
d="M0 -200v1000h500v-1000h-500zM71 750l179 -390l179 390h-358zM450 676l-172 -376l172 -376v752zM50 -76l172 376l-172 376v-752zM250 240l-179 -390h358z" />
    <glyph glyph-name=".notdef" horiz-adv-x="500" 
d="M0 -200v1000h500v-1000h-500zM71 750l179 -390l179 390h-358zM450 676l-172 -376l172 -376v752zM50 -76l172 376l-172 376v-752zM250 240l-179 -390h358z" />
    <glyph glyph-name=".null" horiz-adv-x="0" 
 />
    <glyph glyph-name="nonmarkingreturn" horiz-adv-x="333" 
 />
    <glyph glyph-name="space" unicode=" " horiz-adv-x="194" 
 />
    <glyph glyph-name="exclam" unicode="!" horiz-adv-x="302" 
d="M331 690l-122 -418l-109 -25l12 443h219zM236 192l-31 -192h-188l31 192h188z" />
    <glyph glyph-name="quotedbl" unicode="&#x22;" horiz-adv-x="510" 
d="M297 676l-96 -313l-100 26l2 287h194zM542 676l-95 -313l-101 26l2 287h194z" />
    <glyph glyph-name="numbersign" unicode="#" horiz-adv-x="612" 
d="M248 271h124l21 134h-124zM326 -2l21 130h-119l-22 -138l-92 24l18 114h-90v148h113l20 124h-94l-23 148h140l21 130h96l-21 -130h119l22 138l92 -24l-18 -114h90v-148h-113l-20 -124h94l23 -148h-140l-21 -130h-96z" />
    <glyph glyph-name="dollar" unicode="$" horiz-adv-x="524" 
d="M230 494q0 -15 10 -25.5t39 -23.5l29 97q-5 1 -16 1q-30 0 -46 -14t-16 -35zM265 134q39 0 58.5 16.5t19.5 44.5q0 19 -12.5 31t-47.5 29l-36 -121h18zM261 -5q-18 0 -48 2l-36 -119l-71 19l35 112q-80 21 -152 67l50 139q79 -54 150 -72l40 135q-85 37 -120 77.5
t-35 104.5q0 104 63.5 162.5t171.5 58.5q22 0 32 -1l23 75l72 -19l-21 -68q66 -17 126 -58l-50 -141q-60 46 -125 63l-33 -110q89 -38 127.5 -81t38.5 -112q0 -115 -66 -174.5t-172 -59.5z" />
    <glyph glyph-name="percent" unicode="%" horiz-adv-x="812" 
d="M196 270q-66 0 -101.5 44t-35.5 121q0 61 19.5 115.5t53.5 88.5q45 45 102 45q66 0 101.5 -44.5t35.5 -120.5q0 -62 -20 -116.5t-55 -89.5q-43 -43 -100 -43zM223 -7l-92 24l260 352l227 314l92 -24l-251 -340zM201 369q21 0 38 33q25 50 25 123q0 60 -35 60
q-21 0 -38 -33q-25 -50 -25 -123q0 -60 35 -60zM607 -8q-66 0 -101.5 44t-35.5 121q0 132 73 205q44 44 102 44q66 0 101.5 -44.5t35.5 -120.5q0 -61 -19.5 -115.5t-53.5 -88.5q-45 -45 -102 -45zM612 91q22 0 39 34q24 48 24 122q0 60 -35 60q-22 0 -38 -33
q-25 -50 -25 -123q0 -60 35 -60z" />
    <glyph glyph-name="ampersand" unicode="&#x26;" horiz-adv-x="632" 
d="M256 122q31 0 65 22l-86 140q-46 -43 -46 -95q0 -29 17 -48t50 -19zM413 -6l-32 52q-86 -59 -181 -59q-92 0 -141.5 46.5t-49.5 119.5q0 156 166 233q-32 65 -32 123q0 86 55 140t154 54q109 0 195 -44l-48 -151q-78 40 -131 40q-47 0 -47 -40q0 -24 20 -57l90 -147
q17 43 35 115l136 -36q-34 -118 -94 -205l99 -161z" />
    <glyph glyph-name="quotesingle" unicode="'" horiz-adv-x="270" 
d="M301 676l-96 -313l-104 26l2 287h198z" />
    <glyph glyph-name="parenleft" unicode="(" horiz-adv-x="370" 
d="M400 616q-90 -83 -132.5 -167.5t-44.5 -203.5q-3 -151 95 -307l-126 -32q-162 157 -160 359q2 167 103.5 286.5t264.5 174.5v-110z" />
    <glyph glyph-name="parenright" unicode=")" horiz-adv-x="370" 
d="M-11 11q90 83 132.5 167.5t44.5 203.5q3 151 -95 307l126 32q162 -157 160 -359q-2 -167 -103.5 -286.5t-264.5 -174.5v110z" />
    <glyph glyph-name="asterisk" unicode="*" horiz-adv-x="454" 
d="M473 536l-106 -76l43 -125l-33 -21l-105 78l-104 -78l-33 21l43 125l-106 76l12 37h131l37 123h41l37 -123h131z" />
    <glyph glyph-name="plus" unicode="+" horiz-adv-x="572" 
d="M521 269h-161l-26 -167h-142l26 167h-161l22 138h161l26 167h142l-26 -167h161z" />
    <glyph glyph-name="comma" unicode="," horiz-adv-x="270" 
d="M248 195l-189 -350l-104 25l93 325h200z" />
    <glyph glyph-name="hyphen" unicode="-" horiz-adv-x="319" 
d="M306 378l-27 -169h-254l28 169h253z" />
    <glyph glyph-name="period" unicode="." horiz-adv-x="270" 
d="M221 195l-31 -195h-189l31 195h189z" />
    <glyph glyph-name="slash" unicode="/" horiz-adv-x="528" 
d="M592 664l-534 -791l-145 35l534 791z" />
    <glyph glyph-name="zero" unicode="0" horiz-adv-x="603" 
d="M279 -15q-115 0 -174.5 68.5t-59.5 195.5q0 120 30.5 213.5t86.5 149.5q78 78 191 78q115 0 174.5 -68.5t59.5 -195.5q0 -120 -30.5 -213.5t-86.5 -149.5q-78 -78 -191 -78zM284 128q21 0 38 17q29 29 53 131.5t24 183.5q0 87 -51 87q-21 0 -38 -17q-29 -29 -53 -131.5
t-24 -183.5q0 -87 51 -87z" />
    <glyph glyph-name="one" unicode="1" horiz-adv-x="406" 
d="M411 676l-107 -676h-192l77 494l-127 -54v153l176 83h173z" />
    <glyph glyph-name="two" unicode="2" horiz-adv-x="549" 
d="M538 507q0 -43 -10.5 -77.5t-35 -66t-51 -55.5t-71.5 -58l-128 -99h231v-151h-475l24 148l239 205q48 41 66.5 65.5t18.5 52.5q0 57 -72 57q-67 0 -166 -66v159q100 68 219 68q95 0 153 -48.5t58 -133.5z" />
    <glyph glyph-name="three" unicode="3" horiz-adv-x="534" 
d="M530 522q0 -69 -34.5 -108t-102.5 -64q98 -43 98 -146q0 -105 -70 -161t-189 -56q-123 0 -235 57l43 143q97 -45 170 -45q43 0 70 19t27 56q0 64 -97 64h-58v134h77q110 0 110 69q0 51 -70 51q-74 0 -173 -52v152q115 54 222 54q100 0 156 -42.5t56 -124.5z" />
    <glyph glyph-name="four" unicode="4" horiz-adv-x="600" 
d="M591 253l-20 -127h-90l-20 -126h-180l21 126h-300l19 118l331 432h215l-66 -423h90zM321 253l40 245l-182 -245h142z" />
    <glyph glyph-name="five" unicode="5" horiz-adv-x="540" 
d="M540 521h-273l-20 -90q128 -12 190.5 -60t62.5 -140q0 -119 -72.5 -181.5t-197.5 -62.5q-113 0 -231 46l46 154q96 -40 183 -40q92 0 92 70q0 40 -55.5 60.5t-197.5 30.5l81 368h392v-155z" />
    <glyph glyph-name="six" unicode="6" horiz-adv-x="548" 
d="M260 -12q-109 0 -171 67.5t-62 185.5q0 186 122 303.5t331 146.5v-155q-214 -38 -257 -147q73 48 154 48q72 0 112.5 -49t40.5 -133q0 -119 -74.5 -193t-195.5 -74zM270 125q35 0 58 28.5t23 78.5q0 78 -64 78q-40 0 -86 -34q-3 -22 -3 -42q0 -51 18.5 -80t53.5 -29z" />
    <glyph glyph-name="seven" unicode="7" horiz-adv-x="538" 
d="M572 676l-23 -155l-323 -528l-182 32l304 486h-258v165h482z" />
    <glyph glyph-name="eight" unicode="8" horiz-adv-x="571" 
d="M273 -13q-125 0 -189 52t-64 133q0 121 137 183q-67 55 -67 133q0 89 65 145t182 56q102 0 164.5 -44.5t62.5 -117.5q0 -108 -119 -163q89 -60 89 -161q0 -94 -72 -155t-189 -61zM259 506q0 -51 78 -86q59 39 59 91q0 27 -17.5 42t-48.5 15q-32 0 -51.5 -18t-19.5 -44z
M272 113q37 0 60.5 23t23.5 59q0 29 -19 53.5t-75 49.5q-65 -49 -65 -113q0 -32 20.5 -52t54.5 -20z" />
    <glyph glyph-name="nine" unicode="9" horiz-adv-x="548" 
d="M87 -14v155q211 31 263 137q-70 -39 -138 -39q-79 0 -122 49t-43 134q0 119 74.5 193t195.5 74q109 0 171 -67.5t62 -185.5q0 -189 -126.5 -307t-336.5 -143zM290 364q42 0 85 29q4 24 4 50q0 51 -19 80t-54 29t-57.5 -29.5t-22.5 -82.5q0 -76 64 -76z" />
    <glyph glyph-name="colon" unicode=":" horiz-adv-x="278" 
d="M272 495l-30 -192h-187l30 192h187zM224 192l-31 -192h-187l31 192h187z" />
    <glyph glyph-name="semicolon" unicode=";" horiz-adv-x="278" 
d="M274 495l-30 -192h-187l30 192h187zM244 192l-189 -347l-104 25l93 322h200z" />
    <glyph glyph-name="less" unicode="&#x3c;" horiz-adv-x="572" 
d="M473 55l-412 222l20 122l482 222l-25 -154l-294 -133l252 -134z" />
    <glyph glyph-name="equal" unicode="=" horiz-adv-x="590" 
d="M541 394h-445l22 137h445zM502 146h-445l21 136h445z" />
    <glyph glyph-name="greater" unicode="&#x3e;" horiz-adv-x="572" 
d="M127 621l412 -222l-20 -122l-482 -222l25 155l294 132l-252 134z" />
    <glyph glyph-name="question" unicode="?" horiz-adv-x="482" 
d="M147 239l16 154l12 4q76 25 107 46t31 50q0 42 -58 42q-71 0 -185 -68v170q112 66 238 66q98 0 149 -48.5t51 -131.5q0 -120 -89.5 -186.5t-271.5 -97.5zM52 0l30 192h188l-30 -192h-188z" />
    <glyph glyph-name="at" unicode="@" horiz-adv-x="834" 
d="M373 -140q-162 0 -251 83.5t-89 248.5q0 119 58 224t158 168t214 63q154 0 246 -87t92 -244q0 -125 -53.5 -199.5t-153.5 -74.5q-51 0 -90 23.5t-54 60.5q-75 -84 -146 -84q-50 0 -79.5 34.5t-29.5 98.5q0 128 75.5 215.5t181.5 87.5q93 0 181 -38l-43 -225
q-6 -30 -6 -55q0 -50 60 -50q50 0 81.5 55t31.5 150q0 147 -80.5 221.5t-217.5 74.5q-153 0 -267.5 -122.5t-114.5 -295.5q0 -155 79.5 -226.5t220.5 -71.5q119 0 212 48l6 -36q-91 -47 -222 -47zM370 160q26 0 79 57l28 146q-12 4 -31 4q-43 0 -75 -50t-32 -113
q0 -44 31 -44z" />
    <glyph glyph-name="A" unicode="A" horiz-adv-x="673" 
d="M424 -7l-15 123h-196l-51 -116h-195l341 693h208l114 -666zM368 484l-92 -213h117z" />
    <glyph glyph-name="B" unicode="B" horiz-adv-x="600" 
d="M590 527q0 -111 -118 -163q96 -44 96 -142q0 -105 -77.5 -163.5t-211.5 -58.5h-264l109 690h237q110 0 169.5 -42.5t59.5 -120.5zM404 494q0 61 -75 61h-34l-21 -139h41q38 0 63.5 21t25.5 57zM375 222q0 70 -90 70h-31l-26 -158h45q44 0 73 24t29 64z" />
    <glyph glyph-name="C" unicode="C" horiz-adv-x="565" 
d="M590 652l-52 -167q-63 47 -123 47q-75 0 -122.5 -68.5t-47.5 -161.5q0 -73 33 -110.5t93 -37.5t131 34v-166q-73 -33 -172 -33q-132 0 -211.5 75t-79.5 219q0 190 106.5 304.5t261.5 114.5q101 0 183 -50z" />
    <glyph glyph-name="D" unicode="D" horiz-adv-x="670" 
d="M656 398q0 -174 -107 -281q-117 -117 -345 -117h-189l109 690h182q350 0 350 -292zM452 389q0 150 -142 150h-9l-62 -388h2q87 0 145 58q66 66 66 180z" />
    <glyph glyph-name="E" unicode="E" 
d="M561 690l-24 -161h-238l-15 -95h176v-159h-202l-18 -114h246l-26 -161h-445l109 690h437z" />
    <glyph glyph-name="F" unicode="F" horiz-adv-x="511" 
d="M553 690l-26 -168h-229l-18 -111h168v-167h-194l-38 -244h-201l109 690h429z" />
    <glyph glyph-name="G" unicode="G" horiz-adv-x="648" 
d="M634 404l-60 -352q-106 -65 -244 -65q-136 0 -213 77.5t-77 212.5q0 187 108.5 306.5t273.5 119.5q115 0 214 -48l-53 -166q-75 48 -153 48q-85 0 -134.5 -70t-49.5 -183q0 -140 111 -140q33 0 66 12l15 104h-89v144h285z" />
    <glyph glyph-name="H" unicode="H" horiz-adv-x="683" 
d="M699 690l-109 -690h-203l43 263h-171l-41 -263h-203l109 690h203l-40 -250h171l38 250h203z" />
    <glyph glyph-name="I" unicode="I" horiz-adv-x="315" 
d="M329 690l-109 -690h-203l109 690h203z" />
    <glyph glyph-name="J" unicode="J" horiz-adv-x="446" 
d="M467 690l-73 -461q-20 -129 -89 -182t-193 -53q-63 0 -111 8v170q47 -9 87 -9q45 0 73 23t37 82l67 422h202z" />
    <glyph glyph-name="K" unicode="K" horiz-adv-x="639" 
d="M705 690l-247 -337l148 -327l-213 -33l-128 314l-47 -307h-203l109 690h203l-48 -290l197 290h229z" />
    <glyph glyph-name="L" unicode="L" horiz-adv-x="496" 
d="M444 0h-429l109 690h203l-82 -516h199v-174z" />
    <glyph glyph-name="M" unicode="M" horiz-adv-x="869" 
d="M851 690l-60 -690h-208l40 408l-153 -411h-189l-21 411l-89 -408h-172l158 690h259l26 -422l162 422h247z" />
    <glyph glyph-name="N" unicode="N" horiz-adv-x="672" 
d="M688 690l-109 -690h-168l-153 356l-57 -356h-186l109 690h189l138 -327l51 327h186z" />
    <glyph glyph-name="O" unicode="O" horiz-adv-x="688" 
d="M328 -13q-134 0 -209.5 78.5t-75.5 224.5q0 95 30.5 180.5t87.5 142.5q90 90 226 90q134 0 209.5 -78.5t75.5 -224.5q0 -95 -30.5 -180.5t-87.5 -142.5q-90 -90 -226 -90zM330 137q34 0 63 29t51 101t22 156q0 130 -81 130q-34 0 -63 -29t-51 -101t-22 -156
q0 -130 81 -130z" />
    <glyph glyph-name="P" unicode="P" horiz-adv-x="586" 
d="M601 475q0 -119 -84 -192t-231 -73h-37l-33 -210h-201l109 690h217q260 0 260 -215zM406 469q0 78 -87 78h-19l-30 -194h23q51 0 82 30.5t31 85.5z" />
    <glyph glyph-name="Q" unicode="Q" horiz-adv-x="697" 
d="M614 -143l-306 115q-73 28 -119.5 53.5t-81 61t-49.5 82.5t-15 112q0 213 118 331q91 91 227 91q133 0 208 -77t75 -216q0 -197 -121 -318q-16 -16 -25 -23l146 -42zM330 137q34 0 63 29t51 101t22 156q0 130 -81 130q-34 0 -63 -29t-51 -101t-22 -156q0 -130 81 -130z
" />
    <glyph glyph-name="R" unicode="R" horiz-adv-x="614" 
d="M609 487q0 -152 -133 -217l97 -244l-211 -33l-81 227h-32l-35 -220h-199l109 690h224q125 0 193 -51t68 -152zM414 471q0 76 -90 76h-26l-29 -190h20q59 0 92 29.5t33 84.5z" />
    <glyph glyph-name="S" unicode="S" horiz-adv-x="550" 
d="M557 637l-54 -155q-111 69 -178 69q-28 0 -42.5 -12.5t-14.5 -32.5q0 -18 12 -30.5t49 -31.5q108 -56 149 -103.5t41 -112.5q0 -114 -71 -177t-190 -63q-135 0 -266 73l55 156q120 -78 209 -78q32 0 51.5 15.5t19.5 38.5q0 19 -11.5 31t-43.5 29q-117 60 -157 105.5
t-40 119.5q0 96 68 160t181 64q122 0 233 -65z" />
    <glyph glyph-name="T" unicode="T" horiz-adv-x="595" 
d="M630 522h-188l-82 -522h-203l82 522h-183l28 168h546v-168z" />
    <glyph glyph-name="U" unicode="U" horiz-adv-x="669" 
d="M689 690l-64 -406q-25 -157 -103 -227t-215 -70q-258 0 -258 224q0 40 8 98l60 381h203l-62 -393q-8 -48 -8 -78q0 -70 70 -70q41 0 65.5 28t34.5 92l66 421h203z" />
    <glyph glyph-name="V" unicode="V" horiz-adv-x="657" 
d="M722 690l-340 -693h-195l-114 666l214 34l51 -443l187 436h197z" />
    <glyph glyph-name="W" unicode="W" horiz-adv-x="967" 
d="M1028 690l-292 -690h-194l-44 382l-166 -382h-188l-70 662l227 35l14 -383l158 376h196l37 -376l133 376h189z" />
    <glyph glyph-name="X" unicode="X" horiz-adv-x="630" 
d="M386 -7l-77 205l-130 -198h-220l259 361l-134 303l213 33l63 -171l105 164h220l-235 -329l149 -335z" />
    <glyph glyph-name="Y" unicode="Y" horiz-adv-x="641" 
d="M724 690l-307 -446l-39 -244h-204l38 240l-156 426l212 31l82 -259l158 252h216z" />
    <glyph glyph-name="Z" unicode="Z" horiz-adv-x="576" 
d="M614 690l-23 -147l-329 -384h254v-159h-529l23 147l329 384h-231v159h506z" />
    <glyph glyph-name="bracketleft" unicode="[" horiz-adv-x="405" 
d="M452 690l-16 -104h-151l-93 -586h141v-104h-327l126 794h320z" />
    <glyph glyph-name="backslash" unicode="\" horiz-adv-x="498" 
d="M491 -93l-141 -34l-287 792l141 34z" />
    <glyph glyph-name="bracketright" unicode="]" horiz-adv-x="405" 
d="M412 690l-125 -794h-321l17 104h150l93 586h-141v104h327z" />
    <glyph glyph-name="asciicircum" unicode="^" horiz-adv-x="409" 
d="M423 547h-109l-51 53l-71 -53h-103l115 150h146z" />
    <glyph glyph-name="underscore" unicode="_" horiz-adv-x="409" 
d="M365 -34l-11 -70h-411l11 70h411z" />
    <glyph glyph-name="grave" unicode="`" horiz-adv-x="409" 
d="M371 547h-109l-134 118l216 33z" />
    <glyph glyph-name="a" unicode="a" horiz-adv-x="525" 
d="M295 178l30 185q-12 4 -21 4q-43 0 -75.5 -45.5t-32.5 -115.5q0 -63 38 -63q26 0 61 35zM288 74q-70 -84 -139 -84q-59 0 -93.5 46t-34.5 126q0 164 87.5 251.5t213.5 87.5q95 0 190 -37l-55 -342v-122h-164z" />
    <glyph glyph-name="b" unicode="b" horiz-adv-x="523" 
d="M10 31l106 664l177 27l-46 -287q33 34 62 52t64 18q60 0 94.5 -47.5t34.5 -131.5q0 -158 -83 -245t-203 -87q-97 0 -206 37zM197 132q12 -4 26 -4q45 0 74.5 43t29.5 121q0 60 -41 60q-24 0 -59 -35z" />
    <glyph glyph-name="c" unicode="c" horiz-adv-x="420" 
d="M428 472l-42 -140q-40 23 -78 23q-51 0 -81 -39t-30 -96q0 -86 84 -86q31 0 82 19v-137q-58 -25 -124 -25q-103 0 -160 56.5t-57 157.5q0 130 74.5 215t195.5 85q78 0 136 -33z" />
    <glyph glyph-name="d" unicode="d" horiz-adv-x="527" 
d="M326 363q-12 4 -26 4q-45 0 -74.5 -43t-29.5 -121q0 -60 41 -60q24 0 59 35zM555 722l-96 -600v-122h-164l-6 74q-40 -43 -71.5 -63.5t-67.5 -20.5q-60 0 -94.5 47.5t-34.5 131.5q0 157 79.5 243t195.5 86q21 0 51 -5l31 202z" />
    <glyph glyph-name="e" unicode="e" horiz-adv-x="488" 
d="M267 394q-28 0 -49 -26.5t-31 -69.5h126q14 96 -46 96zM429 33q-96 -43 -187 -43q-98 0 -159.5 53.5t-61.5 155.5q0 132 75.5 219t189.5 87q86 0 133 -54t47 -145q0 -53 -14 -104h-272q4 -49 27.5 -70.5t69.5 -21.5q67 0 152 37v-114z" />
    <glyph glyph-name="f" unicode="f" horiz-adv-x="345" 
d="M403 579q-29 7 -51 7q-52 0 -63 -59l-6 -32h80v-142h-101l-80 -512l-177 -27l85 539h-69l22 142h69l9 53q13 80 56.5 124.5t133.5 44.5q54 0 92 -8v-130z" />
    <glyph glyph-name="g" unicode="g" horiz-adv-x="526" 
d="M325 363q-12 4 -27 4q-44 0 -73 -40t-29 -109q0 -62 42 -62q23 0 59 36zM512 464l-66 -424q-10 -66 -35 -111.5t-61 -68.5t-74 -32.5t-85 -9.5q-123 0 -219 47l42 130q79 -42 157 -42q43 0 67.5 20.5t33.5 65.5l8 41q-68 -70 -123 -70q-64 0 -100 46t-36 132
q0 147 83.5 230t202.5 83q96 0 205 -37z" />
    <glyph glyph-name="h" unicode="h" horiz-adv-x="529" 
d="M505 396q0 -19 -4 -45l-56 -351h-173l47 297q3 18 3 28q0 26 -26 26q-24 0 -68 -40l-50 -311h-173l111 695l177 27l-50 -305q44 42 81.5 65t82.5 23q48 0 73 -29.5t25 -79.5z" />
    <glyph glyph-name="i" unicode="i" horiz-adv-x="272" 
d="M298 638q0 -42 -28 -67t-71 -25q-42 0 -70.5 25t-28.5 67t28.5 67.5t70.5 25.5q43 0 71 -25t28 -68zM263 495l-81 -495h-173l81 495h173z" />
    <glyph glyph-name="j" unicode="j" horiz-adv-x="272" 
d="M298 638q0 -42 -28.5 -67t-70.5 -25q-43 0 -71 25t-28 67q0 43 28 68t71 25q42 0 70.5 -25.5t28.5 -67.5zM262 495l-76 -482q-17 -107 -64 -151t-138 -44q-54 0 -71 5v145q15 -4 38 -4q30 0 44.5 16.5t20.5 54.5l73 460h173z" />
    <glyph glyph-name="k" unicode="k" horiz-adv-x="508" 
d="M178 0h-173l110 691l178 31l-69 -421l129 194h188l-169 -238l96 -235l-172 -29l-85 228z" />
    <glyph glyph-name="l" unicode="l" horiz-adv-x="272" 
d="M297 722l-115 -722h-173l111 695z" />
    <glyph glyph-name="m" unicode="m" horiz-adv-x="790" 
d="M229 310l-49 -310h-173l59 373v122h166l5 -87q99 97 170 97q46 0 69.5 -26.5t25.5 -68.5q97 95 168 95q47 0 71.5 -29.5t24.5 -80.5q0 -18 -4 -44l-56 -351h-173l48 297q3 24 3 28q0 26 -24 26q-28 0 -67 -41l-50 -310h-173l47 297q3 24 3 28q0 26 -24 26q-28 0 -67 -41z
" />
    <glyph glyph-name="n" unicode="n" 
d="M507 396q0 -19 -4 -45l-56 -351h-173l47 297q3 18 3 28q0 26 -26 26q-24 0 -68 -40l-50 -311h-173l59 373v122h164l7 -87q46 45 86.5 71t85.5 26q48 0 73 -29.5t25 -79.5z" />
    <glyph glyph-name="o" unicode="o" horiz-adv-x="514" 
d="M490 283q0 -127 -70 -210t-185 -83q-101 0 -156 61.5t-55 160.5q0 127 69.5 210t185.5 83q100 0 155.5 -61t55.5 -161zM319 285q0 83 -47 83q-35 0 -56 -48t-21 -110q0 -83 47 -83q35 0 56 48t21 110z" />
    <glyph glyph-name="p" unicode="p" horiz-adv-x="525" 
d="M199 132q12 -4 26 -4q45 0 74.5 43t29.5 121q0 60 -41 60q-24 0 -59 -35zM-22 -186l88 559v122h164l6 -74q40 43 71.5 63.5t67.5 20.5q60 0 94.5 -47.5t34.5 -131.5q0 -157 -79.5 -243t-195.5 -86q-21 0 -51 5l-23 -161z" />
    <glyph glyph-name="q" unicode="q" horiz-adv-x="527" 
d="M513 464l-97 -623l-177 -27l37 246q-33 -34 -62 -52t-64 -18q-60 0 -94.5 47.5t-34.5 131.5q0 158 83 245t203 87q97 0 206 -37zM326 363q-12 4 -26 4q-45 0 -74.5 -43t-29.5 -121q0 -60 41 -60q24 0 59 35z" />
    <glyph glyph-name="r" unicode="r" horiz-adv-x="389" 
d="M395 325q-102 -6 -173 -61l-42 -264h-173l59 373v122h163l8 -109q71 119 158 119v-180z" />
    <glyph glyph-name="s" unicode="s" horiz-adv-x="435" 
d="M420 460l-33 -124q-92 47 -155 47q-31 0 -31 -22q0 -10 6.5 -16.5t28.5 -16.5q93 -43 128.5 -77t35.5 -95q0 -72 -51 -119t-144 -47q-112 0 -215 57l36 125q99 -60 180 -60q40 0 40 25q0 11 -9.5 19t-35.5 20q-87 40 -120.5 73t-33.5 91q0 74 51 119.5t135 45.5
q95 0 187 -45z" />
    <glyph glyph-name="t" unicode="t" horiz-adv-x="374" 
d="M368 353h-109l-22 -135q-3 -21 -3 -37q0 -43 43 -43q20 0 40 4v-140q-48 -11 -108 -11q-153 0 -153 131q0 30 5 67l26 164h-58l22 142h58l22 145l177 27l-27 -172h87v-142z" />
    <glyph glyph-name="u" unicode="u" 
d="M24 99q0 19 4 45l56 351h173l-47 -297q-3 -18 -3 -28q0 -26 26 -26q24 0 68 40l50 311h173l-59 -373v-122h-164l-7 87q-46 -45 -86.5 -71t-85.5 -26q-48 0 -73 29.5t-25 79.5z" />
    <glyph glyph-name="v" unicode="v" horiz-adv-x="489" 
d="M523 495l-240 -497h-162l-82 481l181 23l26 -280l112 273h165z" />
    <glyph glyph-name="w" unicode="w" horiz-adv-x="710" 
d="M740 495l-205 -495h-168l-15 268l-97 -268h-165l-47 481l176 21l5 -277l95 270h160l10 -270l90 270h161z" />
    <glyph glyph-name="x" unicode="x" horiz-adv-x="493" 
d="M279 -7l-51 138l-81 -131h-180l178 252l-94 229l169 21l44 -128l74 121h180l-171 -242l101 -239z" />
    <glyph glyph-name="y" unicode="y" horiz-adv-x="497" 
d="M52 -182q-42 0 -66 7v139q29 -8 62 -8q51 0 80 43l-86 480l181 23l29 -280l113 273h165l-236 -493q-51 -106 -100.5 -145t-141.5 -39z" />
    <glyph glyph-name="z" unicode="z" horiz-adv-x="466" 
d="M469 495l-20 -134l-220 -224h176v-137h-421l21 133l220 225h-153v137h397z" />
    <glyph glyph-name="braceleft" unicode="{" horiz-adv-x="479" 
d="M518 690l-17 -104h-75q-37 0 -54 -19t-18 -60v-56q-1 -68 -32.5 -105t-98.5 -52v-2q50 -12 70.5 -36t19.5 -67q-1 -29 -17 -79t-16 -66q-1 -21 13 -32.5t41 -11.5h66v-104h-172q-63 0 -95.5 28t-31.5 79q1 30 18.5 89t17.5 83q1 35 -19.5 51t-68.5 16h-18v103h34
q60 0 88 26.5t29 93.5v54q1 77 45 124t125 47h166z" />
    <glyph glyph-name="bar" unicode="|" horiz-adv-x="321" 
d="M168 -165l-147 -21l145 926l148 22z" />
    <glyph glyph-name="braceright" unicode="}" horiz-adv-x="472" 
d="M-32 -104l17 104h75q37 0 54 19t18 60v56q1 68 32.5 105t98.5 52v2q-50 12 -70.5 36t-19.5 67q1 29 17 79t16 66q1 21 -13 32.5t-41 11.5h-66v104h172q63 0 95.5 -28t31.5 -79q-1 -30 -18.5 -89t-17.5 -83q-1 -35 19.5 -51t68.5 -16h18v-103h-34q-60 0 -88 -26.5
t-29 -93.5v-54q-1 -77 -45 -124t-125 -47h-166z" />
    <glyph glyph-name="asciitilde" unicode="~" horiz-adv-x="368" 
d="M357 362q-20 -85 -44 -117.5t-63 -32.5q-23 0 -61 18q-41 20 -56 20q-10 0 -18 -9t-17 -33l-73 17q20 85 44.5 118t63.5 33q25 0 61 -18q41 -20 56 -20q10 0 18 9t17 33z" />
    <glyph glyph-name="uni00A0" unicode="&#xa0;" horiz-adv-x="97" 
 />
    <glyph glyph-name="exclamdown" unicode="&#xa1;" horiz-adv-x="302" 
d="M319 690l-31 -192h-188l31 192h188zM237 443l-13 -443h-219l122 418z" />
    <glyph glyph-name="cent" unicode="&#xa2;" horiz-adv-x="462" 
d="M205 301q0 -55 39 -72l65 220q-46 -6 -75 -46.5t-29 -101.5zM405 117q-53 -28 -136 -31l-29 -96l-70 19l25 83q-71 14 -113 64t-42 133q0 131 79 215.5t204 84.5h20l30 96l71 -19l-27 -88q34 -10 66 -29l-46 -132q-36 21 -68 29l-67 -225q53 2 103 26v-130z" />
    <glyph glyph-name="sterling" unicode="&#xa3;" horiz-adv-x="566" 
d="M496 152v-152h-486l21 135l54 127h-47l23 145h86l52 121q34 81 87 121t139 40q87 0 144 -19l-38 -152q-37 13 -76 13q-61 0 -89 -68l-24 -56h111v-145h-172l-46 -110h261z" />
    <glyph glyph-name="yen" unicode="&#xa5;" horiz-adv-x="657" 
d="M546 81h-155l-13 -81h-189l13 81h-147v79h160l10 60h-156l12 79h128l-130 357l196 27l80 -271l149 264h209l-261 -377h120v-79h-159l-9 -60h154z" />
    <glyph glyph-name="section" unicode="&#xa7;" horiz-adv-x="571" 
d="M559 372q0 -53 -50 -112l-106 28q13 22 13 37q0 18 -14 27.5t-52 20.5l-63 18q-74 21 -108.5 52.5t-34.5 85.5q0 66 51 110t137 44q92 0 173 -36l-36 -112q-75 36 -144 36q-31 0 -31 -18q0 -11 14.5 -18t58.5 -19l39 -11q89 -25 121 -54.5t32 -78.5zM34 303q0 53 50 112
l106 -28q-13 -22 -13 -37q0 -18 14 -27.5t52 -20.5l63 -18q74 -21 108.5 -52.5t34.5 -85.5q0 -66 -51 -110t-137 -44q-92 0 -173 36l36 112q75 -36 144 -36q31 0 31 18q0 11 -14.5 17.5t-58.5 19.5l-39 11q-89 25 -121 54.5t-32 78.5z" />
    <glyph glyph-name="dieresis" unicode="&#xa8;" horiz-adv-x="409" 
d="M223 547h-129l22 143h131zM409 547h-130l23 143h130z" />
    <glyph glyph-name="copyright" unicode="&#xa9;" horiz-adv-x="799" 
d="M765 346q0 -160 -96.5 -259.5t-249.5 -99.5q-154 0 -249.5 98.5t-95.5 258.5t96.5 259.5t249.5 99.5q154 0 249.5 -98.5t95.5 -258.5zM721 345q0 151 -85 236.5t-216 85.5q-133 0 -217.5 -85.5t-84.5 -236.5t85 -236.5t217 -85.5t216.5 85.5t84.5 236.5zM569 173
q-56 -28 -125 -28q-99 0 -155.5 55.5t-56.5 147.5q0 91 58.5 147t151.5 56q64 0 120 -23l-17 -110q-47 28 -93 28q-39 0 -60.5 -27t-21.5 -70q0 -45 24.5 -71.5t67.5 -26.5q44 0 91 24z" />
    <glyph glyph-name="ordfeminine" unicode="&#xaa;" horiz-adv-x="368" 
d="M241 448l9 54q-37 -6 -53.5 -22t-16.5 -35q0 -20 17 -20q23 0 44 23zM114 574l1 81q58 26 145 26q67 0 96.5 -27.5t19.5 -87.5l-24 -149v-64h-115v41q-52 -48 -106 -48q-35 0 -52.5 19.5t-17.5 51.5q0 116 198 137v3q0 24 -10 32t-39 8q-38 0 -96 -23zM330 221h-297
l11 79h286v-79z" />
    <glyph glyph-name="guillemotleft" unicode="&#xab;" 
d="M322 495l-129 -251l47 -227l-111 -27l-119 258l185 247h127zM551 495l-129 -251l46 -227l-111 -27l-119 258l185 247h128z" />
    <glyph glyph-name="registered" unicode="&#xae;" horiz-adv-x="563" 
d="M546 470q0 -103 -63.5 -167.5t-163.5 -64.5q-101 0 -164 64t-63 168q0 103 64 168t163 65q101 0 164 -64.5t63 -168.5zM513 470q0 96 -55 151t-139 55t-139 -55t-55 -151q0 -95 55 -150t139 -55q85 0 139.5 54.5t54.5 150.5zM447 360l-88 -12l-50 84h-9v-82h-81v256h107
q105 0 105 -83q0 -49 -44 -71zM352 517q0 34 -37 34h-15v-69h15q37 0 37 35z" />
    <glyph glyph-name="macron" unicode="&#xaf;" horiz-adv-x="409" 
d="M409 552h-316l19 118h316z" />
    <glyph glyph-name="degree" unicode="&#xb0;" horiz-adv-x="454" 
d="M448 501q0 -79 -51 -129.5t-130 -50.5t-130 50.5t-51 129.5q0 78 51 129.5t130 51.5t130 -51.5t51 -129.5zM349 501q0 39 -22.5 64.5t-59.5 25.5t-59.5 -25.5t-22.5 -64.5t22.5 -64t59.5 -25t59.5 25t22.5 64z" />
    <glyph glyph-name="plusminus" unicode="&#xb1;" horiz-adv-x="540" 
d="M355 352l-21 -133h-139l21 133h-127l21 133h127l21 133h139l-21 -133h127l-21 -133h-127zM458 41h-444l22 135h444z" />
    <glyph glyph-name="two.sup" unicode="&#xb2;" horiz-adv-x="360" 
d="M353 403h-282l15 97l145 125q29 26 29 41q0 23 -28 23q-34 0 -100 -36v102q67 36 133 36q54 0 86 -27.5t32 -70.5q0 -38 -19 -65t-72 -71l-64 -53h125v-101z" />
    <glyph glyph-name="three.sup" unicode="&#xb3;" horiz-adv-x="360" 
d="M364 518q0 -56 -44.5 -89t-110.5 -33q-67 0 -138 34l28 87q55 -26 99 -26q20 0 32.5 9t12.5 25q0 30 -49 30h-32v77h23q78 0 78 38q0 24 -33 24q-39 0 -93 -31v94q63 34 134 34q54 0 86 -24t32 -66q0 -75 -88 -103q63 -23 63 -80z" />
    <glyph glyph-name="acute" unicode="&#xb4;" horiz-adv-x="409" 
d="M401 665l-157 -118h-106l70 151z" />
    <glyph glyph-name="mu" unicode="&#xb5;" horiz-adv-x="577" 
d="M149 -159l-173 -27l108 681h173l-47 -297q-3 -18 -3 -28q0 -26 26 -26q24 0 68 40l50 311h173l-50 -314q-4 -22 -4 -33q0 -23 27 -23q15 0 34 6v-119q-52 -19 -108 -19q-93 0 -119 73q-51 -77 -107 -76q-32 1 -51 24q16 -67 8 -135z" />
    <glyph glyph-name="paragraph" unicode="&#xb6;" horiz-adv-x="515" 
d="M413 0h-89l97 606h-54l-28 -172l-70 -230q-207 15 -207 202q0 122 78.5 196t216.5 74h164z" />
    <glyph glyph-name="periodcentered" unicode="&#xb7;" horiz-adv-x="270" 
d="M219 189h-188l33 210h188z" />
    <glyph glyph-name="cedilla" unicode="&#xb8;" horiz-adv-x="409" 
d="M272 -77l-149 -105h-105l63 138z" />
    <glyph glyph-name="one.sup" unicode="&#xb9;" horiz-adv-x="360" 
d="M345 403h-260l15 97h72l26 162l-78 -31v104l134 55h88l-48 -290h51v-97z" />
    <glyph glyph-name="ordmasculine" unicode="&#xba;" horiz-adv-x="368" 
d="M205 347q-62 0 -100.5 37t-38.5 101q0 83 50.5 139t133.5 56q62 0 100.5 -37t38.5 -101q0 -83 -50.5 -139t-133.5 -56zM239 585q-24 0 -41 -28.5t-17 -66.5q0 -48 35 -48q24 0 41 28.5t17 66.5q0 48 -35 48zM335 221h-307l13 79h294v-79z" />
    <glyph glyph-name="guillemotright" unicode="&#xbb;" 
d="M-21 0l129 251l-46 227l110 27l119 -258l-185 -247h-127zM207 0l129 251l-46 227l110 27l120 -258l-186 -247h-127z" />
    <glyph glyph-name="onequarter" unicode="&#xbc;" horiz-adv-x="810" 
d="M330 303h-260l15 97h72l26 162l-78 -31v104l134 55h88l-48 -290h51v-97zM464 317l-251 -334l-67 18l276 349l253 334l67 -18zM760 68h-43l-11 -70h-115l11 70h-142l11 81l157 234h140l-38 -232h43zM628 149l13 67l21 82h-5l-43 -74l-23 -35l-34 -42l1 -2l49 4h21z" />
    <glyph glyph-name="onehalf" unicode="&#xbd;" horiz-adv-x="810" 
d="M330 303h-260l15 97h72l26 162l-78 -31v104l134 55h88l-48 -290h51v-97zM444 317l-251 -334l-67 18l276 349l253 334l67 -18zM736 0h-282l15 97l145 125q29 26 29 41q0 23 -28 23q-34 0 -100 -36v102q67 36 133 36q54 0 86 -27.5t32 -70.5q0 -38 -19 -65t-72 -71l-64 -53
h125v-101z" />
    <glyph glyph-name="threequarters" unicode="&#xbe;" horiz-adv-x="810" 
d="M464 317l-251 -334l-67 18l276 349l253 334l67 -18zM349 418q0 -56 -44.5 -89t-110.5 -33q-67 0 -138 34l28 87q55 -26 99 -26q20 0 32.5 9t12.5 25q0 30 -49 30h-32v77h23q78 0 78 38q0 24 -33 24q-39 0 -93 -31v94q63 34 134 34q54 0 86 -24t32 -66q0 -75 -88 -103
q63 -23 63 -80zM760 68h-43l-11 -70h-115l11 70h-142l11 81l157 234h140l-38 -232h43zM628 149l13 67l21 82h-5l-43 -74l-23 -35l-34 -42l1 -2l49 4h21z" />
    <glyph glyph-name="questiondown" unicode="&#xbf;" horiz-adv-x="482" 
d="M461 690l-30 -192h-188l30 192h188zM366 451l-16 -154l-12 -4q-76 -25 -107 -46t-31 -50q0 -42 58 -42q71 0 185 68v-170q-112 -66 -238 -66q-98 0 -149 48.5t-51 131.5q0 120 89.5 186.5t271.5 97.5z" />
    <glyph glyph-name="Agrave" unicode="&#xc0;" horiz-adv-x="673" 
d="M478 747h-109l-134 118l216 33zM424 -7l-15 123h-196l-51 -116h-195l341 693h208l114 -666zM368 484l-92 -213h117z" />
    <glyph glyph-name="Aacute" unicode="&#xc1;" horiz-adv-x="673" 
d="M620 865l-157 -118h-106l70 151zM424 -7l-15 123h-196l-51 -116h-195l341 693h208l114 -666zM368 484l-92 -213h117z" />
    <glyph glyph-name="Acircumflex" unicode="&#xc2;" horiz-adv-x="673" 
d="M586 747h-109l-51 53l-71 -53h-103l115 150h146zM424 -7l-15 123h-196l-51 -116h-195l341 693h208l114 -666zM368 484l-92 -213h117z" />
    <glyph glyph-name="Atilde" unicode="&#xc3;" horiz-adv-x="673" 
d="M599 896q-20 -85 -44 -117.5t-63 -32.5q-23 0 -61 18q-41 20 -56 20q-10 0 -18 -9t-17 -33l-73 17q20 85 44.5 118t63.5 33q25 0 61 -18q41 -20 56 -20q10 0 18 9t17 33zM424 -7l-15 123h-196l-51 -116h-195l341 693h208l114 -666zM368 484l-92 -213h117z" />
    <glyph glyph-name="Adieresis" unicode="&#xc4;" horiz-adv-x="673" 
d="M388 747h-129l22 143h131zM574 747h-130l23 143h130zM424 -7l-15 123h-196l-51 -116h-195l341 693h208l114 -666zM368 484l-92 -213h117z" />
    <glyph glyph-name="Aring" unicode="&#xc5;" horiz-adv-x="673" 
d="M424 -7l-15 123h-196l-51 -116h-195l329 669q-28 29 -28 75q0 50 37 83t110 33t110 -33t37 -83q0 -55 -41 -87l109 -630zM415 690q24 0 37.5 14.5t13.5 39.5t-13.5 39.5t-37.5 14.5t-37.5 -14.5t-13.5 -39.5t13.5 -39.5t37.5 -14.5zM368 484l-92 -213h117z" />
    <glyph glyph-name="AE" unicode="&#xc6;" horiz-adv-x="874" 
d="M416 271l43 276l-157 -276h114zM373 0l18 116h-172l-66 -116h-197l416 690h532l-24 -161h-223l-15 -95h161v-159h-187l-18 -114h231l-26 -161h-430z" />
    <glyph glyph-name="Ccedilla" unicode="&#xc7;" horiz-adv-x="565" 
d="M590 652l-52 -167q-63 47 -123 47q-75 0 -122.5 -68.5t-47.5 -161.5q0 -73 33 -110.5t93 -37.5t131 34v-166q-73 -33 -172 -33q-132 0 -211.5 75t-79.5 219q0 190 106.5 304.5t261.5 114.5q101 0 183 -50zM377 -87l-149 -105h-105l63 138z" />
    <glyph glyph-name="Egrave" unicode="&#xc8;" 
d="M411 737h-109l-134 118l216 33zM561 690l-24 -161h-238l-15 -95h176v-159h-202l-18 -114h246l-26 -161h-445l109 690h437z" />
    <glyph glyph-name="Eacute" unicode="&#xc9;" 
d="M553 855l-157 -118h-106l70 151zM561 690l-24 -161h-238l-15 -95h176v-159h-202l-18 -114h246l-26 -161h-445l109 690h437z" />
    <glyph glyph-name="Ecircumflex" unicode="&#xca;" 
d="M518 737h-109l-51 53l-71 -53h-103l115 150h146zM561 690l-24 -161h-238l-15 -95h176v-159h-202l-18 -114h246l-26 -161h-445l109 690h437z" />
    <glyph glyph-name="Edieresis" unicode="&#xcb;" 
d="M321 737h-129l22 143h131zM507 737h-130l23 143h130zM561 690l-24 -161h-238l-15 -95h176v-159h-202l-18 -114h246l-26 -161h-445l109 690h437z" />
    <glyph glyph-name="Igrave" unicode="&#xcc;" horiz-adv-x="315" 
d="M296 737h-109l-134 118l216 33zM329 690l-109 -690h-203l109 690h203z" />
    <glyph glyph-name="Iacute" unicode="&#xcd;" horiz-adv-x="315" 
d="M438 855l-157 -118h-106l70 151zM329 690l-109 -690h-203l109 690h203z" />
    <glyph glyph-name="Icircumflex" unicode="&#xce;" horiz-adv-x="315" 
d="M403 737h-109l-51 53l-71 -53h-103l115 150h146zM329 690l-109 -690h-203l109 690h203z" />
    <glyph glyph-name="Idieresis" unicode="&#xcf;" horiz-adv-x="315" 
d="M206 737h-129l22 143h131zM392 737h-130l23 143h130zM329 690l-109 -690h-203l109 690h203z" />
    <glyph glyph-name="Eth" unicode="&#xd0;" horiz-adv-x="704" 
d="M271 151h4q87 0 145 58q66 66 66 180q0 150 -142 150h-11l-17 -107h82l-26 -161h-82zM238 0h-189l42 267h-64v169h91l40 254h182q350 0 350 -292q0 -174 -107 -281q-117 -117 -345 -117z" />
    <glyph glyph-name="Ntilde" unicode="&#xd1;" horiz-adv-x="672" 
d="M595 886q-20 -85 -44 -117.5t-63 -32.5q-23 0 -61 18q-41 20 -56 20q-10 0 -18 -9t-17 -33l-73 17q20 85 44.5 118t63.5 33q25 0 61 -18q41 -20 56 -20q10 0 18 9t17 33zM688 690l-109 -690h-168l-153 356l-57 -356h-186l109 690h189l138 -327l51 327h186z" />
    <glyph glyph-name="Ograve" unicode="&#xd2;" horiz-adv-x="688" 
d="M480 747h-109l-134 118l216 33zM328 -13q-134 0 -209.5 78.5t-75.5 224.5q0 95 30.5 180.5t87.5 142.5q90 90 226 90q134 0 209.5 -78.5t75.5 -224.5q0 -95 -30.5 -180.5t-87.5 -142.5q-90 -90 -226 -90zM330 137q34 0 63 29t51 101t22 156q0 130 -81 130q-34 0 -63 -29
t-51 -101t-22 -156q0 -130 81 -130z" />
    <glyph glyph-name="Oacute" unicode="&#xd3;" horiz-adv-x="688" 
d="M622 865l-157 -118h-106l70 151zM328 -13q-134 0 -209.5 78.5t-75.5 224.5q0 95 30.5 180.5t87.5 142.5q90 90 226 90q134 0 209.5 -78.5t75.5 -224.5q0 -95 -30.5 -180.5t-87.5 -142.5q-90 -90 -226 -90zM330 137q34 0 63 29t51 101t22 156q0 130 -81 130q-34 0 -63 -29
t-51 -101t-22 -156q0 -130 81 -130z" />
    <glyph glyph-name="Ocircumflex" unicode="&#xd4;" horiz-adv-x="688" 
d="M587 747h-109l-51 53l-71 -53h-103l115 150h146zM328 -13q-134 0 -209.5 78.5t-75.5 224.5q0 95 30.5 180.5t87.5 142.5q90 90 226 90q134 0 209.5 -78.5t75.5 -224.5q0 -95 -30.5 -180.5t-87.5 -142.5q-90 -90 -226 -90zM330 137q34 0 63 29t51 101t22 156
q0 130 -81 130q-34 0 -63 -29t-51 -101t-22 -156q0 -130 81 -130z" />
    <glyph glyph-name="Otilde" unicode="&#xd5;" horiz-adv-x="688" 
d="M600 896q-20 -85 -44 -117.5t-63 -32.5q-23 0 -61 18q-41 20 -56 20q-10 0 -18 -9t-17 -33l-73 17q20 85 44.5 118t63.5 33q25 0 61 -18q41 -20 56 -20q10 0 18 9t17 33zM328 -13q-134 0 -209.5 78.5t-75.5 224.5q0 95 30.5 180.5t87.5 142.5q90 90 226 90
q134 0 209.5 -78.5t75.5 -224.5q0 -95 -30.5 -180.5t-87.5 -142.5q-90 -90 -226 -90zM330 137q34 0 63 29t51 101t22 156q0 130 -81 130q-34 0 -63 -29t-51 -101t-22 -156q0 -130 81 -130z" />
    <glyph glyph-name="Odieresis" unicode="&#xd6;" horiz-adv-x="688" 
d="M390 747h-129l22 143h131zM576 747h-130l23 143h130zM328 -13q-134 0 -209.5 78.5t-75.5 224.5q0 95 30.5 180.5t87.5 142.5q90 90 226 90q134 0 209.5 -78.5t75.5 -224.5q0 -95 -30.5 -180.5t-87.5 -142.5q-90 -90 -226 -90zM330 137q34 0 63 29t51 101t22 156
q0 130 -81 130q-34 0 -63 -29t-51 -101t-22 -156q0 -130 81 -130z" />
    <glyph glyph-name="multiply" unicode="&#xd7;" horiz-adv-x="572" 
d="M397 109l-109 132l-150 -131l-87 102l152 129l-112 130l112 96l109 -132l150 131l87 -102l-152 -129l112 -130z" />
    <glyph glyph-name="Oslash" unicode="&#xd8;" horiz-adv-x="688" 
d="M328 -13q-118 0 -191 62l-58 -58l-124 28l117 117q-29 66 -29 154q0 95 30.5 180.5t87.5 142.5q90 90 226 90q118 0 191 -61l57 57l124 -28l-116 -116q29 -66 29 -155q0 -95 -30.5 -180.5t-87.5 -142.5q-90 -90 -226 -90zM319 527q-29 -29 -51 -99t-23 -153l213 230
q-19 52 -73 52q-36 0 -66 -30zM330 133q36 0 66 30q29 29 51 99t23 153l-213 -231q21 -51 73 -51z" />
    <glyph glyph-name="Ugrave" unicode="&#xd9;" horiz-adv-x="669" 
d="M469 737h-109l-134 118l216 33zM689 690l-64 -406q-25 -157 -103 -227t-215 -70q-258 0 -258 224q0 40 8 98l60 381h203l-62 -393q-8 -48 -8 -78q0 -70 70 -70q41 0 65.5 28t34.5 92l66 421h203z" />
    <glyph glyph-name="Uacute" unicode="&#xda;" horiz-adv-x="669" 
d="M611 855l-157 -118h-106l70 151zM689 690l-64 -406q-25 -157 -103 -227t-215 -70q-258 0 -258 224q0 40 8 98l60 381h203l-62 -393q-8 -48 -8 -78q0 -70 70 -70q41 0 65.5 28t34.5 92l66 421h203z" />
    <glyph glyph-name="Ucircumflex" unicode="&#xdb;" horiz-adv-x="669" 
d="M577 737h-109l-51 53l-71 -53h-103l115 150h146zM689 690l-64 -406q-25 -157 -103 -227t-215 -70q-258 0 -258 224q0 40 8 98l60 381h203l-62 -393q-8 -48 -8 -78q0 -70 70 -70q41 0 65.5 28t34.5 92l66 421h203z" />
    <glyph glyph-name="Udieresis" unicode="&#xdc;" horiz-adv-x="669" 
d="M379 737h-129l22 143h131zM565 737h-130l23 143h130zM689 690l-64 -406q-25 -157 -103 -227t-215 -70q-258 0 -258 224q0 40 8 98l60 381h203l-62 -393q-8 -48 -8 -78q0 -70 70 -70q41 0 65.5 28t34.5 92l66 421h203z" />
    <glyph glyph-name="Yacute" unicode="&#xdd;" horiz-adv-x="641" 
d="M595 855l-157 -118h-106l70 151zM724 690l-307 -446l-39 -244h-204l38 240l-156 426l212 31l82 -259l158 252h216z" />
    <glyph glyph-name="Thorn" unicode="&#xde;" horiz-adv-x="586" 
d="M584 377q0 -119 -84 -192t-231 -73h-37l-18 -112h-199l109 690h199l-15 -98h16q260 0 260 -215zM389 371q0 78 -87 78h-19l-30 -194h23q51 0 82 30.5t31 85.5z" />
    <glyph glyph-name="germandbls" unicode="&#xdf;" horiz-adv-x="596" 
d="M5 -186l85 539h-65l22 142h65q40 222 243 222q95 0 144 -44t49 -120q0 -57 -25.5 -105t-76.5 -108q62 -35 93.5 -72t31.5 -96q0 -84 -50 -131t-136 -47q-72 0 -142 32l38 121q46 -24 83 -24q19 0 30.5 10.5t11.5 29.5q0 21 -23 39t-79 41v112q68 107 68 182q0 50 -34 50
q-22 0 -35 -23t-22 -79l-99 -644z" />
    <glyph glyph-name="agrave" unicode="&#xe0;" horiz-adv-x="525" 
d="M389 547h-109l-134 118l216 33zM295 178l30 185q-12 4 -21 4q-43 0 -75.5 -45.5t-32.5 -115.5q0 -63 38 -63q26 0 61 35zM288 74q-70 -84 -139 -84q-59 0 -93.5 46t-34.5 126q0 164 87.5 251.5t213.5 87.5q95 0 190 -37l-55 -342v-122h-164z" />
    <glyph glyph-name="aacute" unicode="&#xe1;" horiz-adv-x="525" 
d="M531 665l-157 -118h-106l70 151zM295 178l30 185q-12 4 -21 4q-43 0 -75.5 -45.5t-32.5 -115.5q0 -63 38 -63q26 0 61 35zM288 74q-70 -84 -139 -84q-59 0 -93.5 46t-34.5 126q0 164 87.5 251.5t213.5 87.5q95 0 190 -37l-55 -342v-122h-164z" />
    <glyph glyph-name="acircumflex" unicode="&#xe2;" horiz-adv-x="525" 
d="M496 547h-109l-51 53l-71 -53h-103l115 150h146zM295 178l30 185q-12 4 -21 4q-43 0 -75.5 -45.5t-32.5 -115.5q0 -63 38 -63q26 0 61 35zM288 74q-70 -84 -139 -84q-59 0 -93.5 46t-34.5 126q0 164 87.5 251.5t213.5 87.5q95 0 190 -37l-55 -342v-122h-164z" />
    <glyph glyph-name="atilde" unicode="&#xe3;" horiz-adv-x="525" 
d="M510 696q-20 -85 -44 -117.5t-63 -32.5q-23 0 -61 18q-41 20 -56 20q-10 0 -18 -9t-17 -33l-73 17q20 85 44.5 118t63.5 33q25 0 61 -18q41 -20 56 -20q10 0 18 9t17 33zM295 178l30 185q-12 4 -21 4q-43 0 -75.5 -45.5t-32.5 -115.5q0 -63 38 -63q26 0 61 35zM288 74
q-70 -84 -139 -84q-59 0 -93.5 46t-34.5 126q0 164 87.5 251.5t213.5 87.5q95 0 190 -37l-55 -342v-122h-164z" />
    <glyph glyph-name="adieresis" unicode="&#xe4;" horiz-adv-x="525" 
d="M299 547h-129l22 143h131zM485 547h-130l23 143h130zM295 178l30 185q-12 4 -21 4q-43 0 -75.5 -45.5t-32.5 -115.5q0 -63 38 -63q26 0 61 35zM288 74q-70 -84 -139 -84q-59 0 -93.5 46t-34.5 126q0 164 87.5 251.5t213.5 87.5q95 0 190 -37l-55 -342v-122h-164z" />
    <glyph glyph-name="aring" unicode="&#xe5;" horiz-adv-x="525" 
d="M346 547q-73 0 -110 33t-37 84q0 50 37 83t110 33t110 -33t37 -83q0 -51 -37 -84t-110 -33zM346 610q24 0 37.5 14.5t13.5 39.5t-13.5 39.5t-37.5 14.5t-37.5 -14.5t-13.5 -39.5t13.5 -39.5t37.5 -14.5zM295 178l30 185q-12 4 -21 4q-43 0 -75.5 -45.5t-32.5 -115.5
q0 -63 38 -63q26 0 61 35zM288 74q-70 -84 -139 -84q-59 0 -93.5 46t-34.5 126q0 164 87.5 251.5t213.5 87.5q95 0 190 -37l-55 -342v-122h-164z" />
    <glyph glyph-name="ae" unicode="&#xe6;" horiz-adv-x="756" 
d="M510 -10q-118 0 -176 70q-100 -70 -194 -70q-58 0 -94 32t-36 93q0 175 289 184l3 15q5 35 -9 48.5t-54 13.5q-59 0 -151 -35v126q102 38 197 38q99 0 134 -51q59 51 139 51q84 0 130 -53t46 -136q0 -63 -14 -114h-272q4 -49 27.5 -70.5t69.5 -21.5q67 0 152 37v-114
q-96 -43 -187 -43zM581 298q14 96 -46 96q-28 0 -49 -26.5t-31 -69.5h126zM295 139q-7 28 -7 66v16q-53 -5 -79.5 -25.5t-26.5 -46.5q0 -39 38 -39q34 0 75 29z" />
    <glyph glyph-name="ccedilla" unicode="&#xe7;" horiz-adv-x="420" 
d="M428 472l-42 -140q-40 23 -78 23q-51 0 -81 -39t-30 -96q0 -86 84 -86q31 0 82 19v-137q-58 -25 -124 -25q-103 0 -160 56.5t-57 157.5q0 130 74.5 215t195.5 85q78 0 136 -33zM283 -77l-149 -105h-105l63 138z" />
    <glyph glyph-name="egrave" unicode="&#xe8;" horiz-adv-x="488" 
d="M354 547h-109l-134 118l216 33zM267 394q-28 0 -49 -26.5t-31 -69.5h126q14 96 -46 96zM429 33q-96 -43 -187 -43q-98 0 -159.5 53.5t-61.5 155.5q0 132 75.5 219t189.5 87q86 0 133 -54t47 -145q0 -53 -14 -104h-272q4 -49 27.5 -70.5t69.5 -21.5q67 0 152 37v-114z" />
    <glyph glyph-name="eacute" unicode="&#xe9;" horiz-adv-x="488" 
d="M496 665l-157 -118h-106l70 151zM267 394q-28 0 -49 -26.5t-31 -69.5h126q14 96 -46 96zM429 33q-96 -43 -187 -43q-98 0 -159.5 53.5t-61.5 155.5q0 132 75.5 219t189.5 87q86 0 133 -54t47 -145q0 -53 -14 -104h-272q4 -49 27.5 -70.5t69.5 -21.5q67 0 152 37v-114z
" />
    <glyph glyph-name="ecircumflex" unicode="&#xea;" horiz-adv-x="488" 
d="M462 547h-109l-51 53l-71 -53h-103l115 150h146zM267 394q-28 0 -49 -26.5t-31 -69.5h126q14 96 -46 96zM429 33q-96 -43 -187 -43q-98 0 -159.5 53.5t-61.5 155.5q0 132 75.5 219t189.5 87q86 0 133 -54t47 -145q0 -53 -14 -104h-272q4 -49 27.5 -70.5t69.5 -21.5
q67 0 152 37v-114z" />
    <glyph glyph-name="edieresis" unicode="&#xeb;" horiz-adv-x="488" 
d="M265 547h-129l22 143h131zM451 547h-130l23 143h130zM267 394q-28 0 -49 -26.5t-31 -69.5h126q14 96 -46 96zM429 33q-96 -43 -187 -43q-98 0 -159.5 53.5t-61.5 155.5q0 132 75.5 219t189.5 87q86 0 133 -54t47 -145q0 -53 -14 -104h-272q4 -49 27.5 -70.5t69.5 -21.5
q67 0 152 37v-114z" />
    <glyph glyph-name="igrave" unicode="&#xec;" horiz-adv-x="272" 
d="M244 547h-109l-134 118l216 33zM263 495l-81 -495h-173l81 495h173z" />
    <glyph glyph-name="iacute" unicode="&#xed;" horiz-adv-x="272" 
d="M386 665l-157 -118h-106l70 151zM263 495l-81 -495h-173l81 495h173z" />
    <glyph glyph-name="icircumflex" unicode="&#xee;" horiz-adv-x="272" 
d="M352 547h-109l-51 53l-71 -53h-103l115 150h146zM263 495l-81 -495h-173l81 495h173z" />
    <glyph glyph-name="idieresis" unicode="&#xef;" horiz-adv-x="272" 
d="M155 547h-129l22 143h131zM341 547h-130l23 143h130zM263 495l-81 -495h-173l81 495h173z" />
    <glyph glyph-name="eth" unicode="&#xf0;" horiz-adv-x="519" 
d="M220 -11q-88 0 -146.5 50t-58.5 153q0 114 58.5 193t141.5 79q76 0 134 -70q1 6 1 16q0 73 -62 120l-26 -29h-87l55 62q-28 13 -63 24l42 134q72 -20 122 -44l36 45l84 -20l-58 -64q115 -86 115 -248q0 -102 -34 -189.5t-88 -140.5q-73 -71 -166 -71zM231 124
q74 0 101 164q-37 39 -78 39q-32 0 -53 -37t-21 -96q0 -70 51 -70z" />
    <glyph glyph-name="ntilde" unicode="&#xf1;" 
d="M493 696q-20 -85 -44 -117.5t-63 -32.5q-23 0 -61 18q-41 20 -56 20q-10 0 -18 -9t-17 -33l-73 17q20 85 44.5 118t63.5 33q25 0 61 -18q41 -20 56 -20q10 0 18 9t17 33zM507 396q0 -19 -4 -45l-56 -351h-173l47 297q3 18 3 28q0 26 -26 26q-24 0 -68 -40l-50 -311h-173
l59 373v122h164l7 -87q46 45 86.5 71t85.5 26q48 0 73 -29.5t25 -79.5z" />
    <glyph glyph-name="ograve" unicode="&#xf2;" horiz-adv-x="514" 
d="M363 547h-109l-134 118l216 33zM490 283q0 -127 -70 -210t-185 -83q-101 0 -156 61.5t-55 160.5q0 127 69.5 210t185.5 83q100 0 155.5 -61t55.5 -161zM319 285q0 83 -47 83q-35 0 -56 -48t-21 -110q0 -83 47 -83q35 0 56 48t21 110z" />
    <glyph glyph-name="oacute" unicode="&#xf3;" horiz-adv-x="514" 
d="M505 665l-157 -118h-106l70 151zM490 283q0 -127 -70 -210t-185 -83q-101 0 -156 61.5t-55 160.5q0 127 69.5 210t185.5 83q100 0 155.5 -61t55.5 -161zM319 285q0 83 -47 83q-35 0 -56 -48t-21 -110q0 -83 47 -83q35 0 56 48t21 110z" />
    <glyph glyph-name="ocircumflex" unicode="&#xf4;" horiz-adv-x="514" 
d="M471 547h-109l-51 53l-71 -53h-103l115 150h146zM490 283q0 -127 -70 -210t-185 -83q-101 0 -156 61.5t-55 160.5q0 127 69.5 210t185.5 83q100 0 155.5 -61t55.5 -161zM319 285q0 83 -47 83q-35 0 -56 -48t-21 -110q0 -83 47 -83q35 0 56 48t21 110z" />
    <glyph glyph-name="otilde" unicode="&#xf5;" horiz-adv-x="514" 
d="M484 696q-20 -85 -44 -117.5t-63 -32.5q-23 0 -61 18q-41 20 -56 20q-10 0 -18 -9t-17 -33l-73 17q20 85 44.5 118t63.5 33q25 0 61 -18q41 -20 56 -20q10 0 18 9t17 33zM490 283q0 -127 -70 -210t-185 -83q-101 0 -156 61.5t-55 160.5q0 127 69.5 210t185.5 83
q100 0 155.5 -61t55.5 -161zM319 285q0 83 -47 83q-35 0 -56 -48t-21 -110q0 -83 47 -83q35 0 56 48t21 110z" />
    <glyph glyph-name="odieresis" unicode="&#xf6;" horiz-adv-x="514" 
d="M274 547h-129l22 143h131zM460 547h-130l23 143h130zM490 283q0 -127 -70 -210t-185 -83q-101 0 -156 61.5t-55 160.5q0 127 69.5 210t185.5 83q100 0 155.5 -61t55.5 -161zM319 285q0 83 -47 83q-35 0 -56 -48t-21 -110q0 -83 47 -83q35 0 56 48t21 110z" />
    <glyph glyph-name="divide" unicode="&#xf7;" horiz-adv-x="572" 
d="M397 474h-150l22 140h150zM521 271h-464l22 134h464zM331 62h-150l22 140h150z" />
    <glyph glyph-name="oslash" unicode="&#xf8;" horiz-adv-x="514" 
d="M235 -10q-81 0 -137 48l-43 -46l-84 21l82 80q-29 52 -29 119q0 127 69.5 210t185.5 83q81 0 137 -48l43 46l83 -21l-82 -79q30 -51 30 -120q0 -127 -70 -210t-185 -83zM187 210v-4l129 141q-13 29 -44 29q-39 0 -62 -50.5t-23 -115.5zM242 119q39 0 62 50t23 116v5
l-129 -142q13 -29 44 -29z" />
    <glyph glyph-name="ugrave" unicode="&#xf9;" 
d="M371 547h-109l-134 118l216 33zM24 99q0 19 4 45l56 351h173l-47 -297q-3 -18 -3 -28q0 -26 26 -26q24 0 68 40l50 311h173l-59 -373v-122h-164l-7 87q-46 -45 -86.5 -71t-85.5 -26q-48 0 -73 29.5t-25 79.5z" />
    <glyph glyph-name="uacute" unicode="&#xfa;" 
d="M513 665l-157 -118h-106l70 151zM24 99q0 19 4 45l56 351h173l-47 -297q-3 -18 -3 -28q0 -26 26 -26q24 0 68 40l50 311h173l-59 -373v-122h-164l-7 87q-46 -45 -86.5 -71t-85.5 -26q-48 0 -73 29.5t-25 79.5z" />
    <glyph glyph-name="ucircumflex" unicode="&#xfb;" 
d="M479 547h-109l-51 53l-71 -53h-103l115 150h146zM24 99q0 19 4 45l56 351h173l-47 -297q-3 -18 -3 -28q0 -26 26 -26q24 0 68 40l50 311h173l-59 -373v-122h-164l-7 87q-46 -45 -86.5 -71t-85.5 -26q-48 0 -73 29.5t-25 79.5z" />
    <glyph glyph-name="udieresis" unicode="&#xfc;" 
d="M282 547h-129l22 143h131zM468 547h-130l23 143h130zM24 99q0 19 4 45l56 351h173l-47 -297q-3 -18 -3 -28q0 -26 26 -26q24 0 68 40l50 311h173l-59 -373v-122h-164l-7 87q-46 -45 -86.5 -71t-85.5 -26q-48 0 -73 29.5t-25 79.5z" />
    <glyph glyph-name="yacute" unicode="&#xfd;" horiz-adv-x="497" 
d="M503 665l-157 -118h-106l70 151zM52 -182q-42 0 -66 7v139q29 -8 62 -8q51 0 80 43l-86 480l181 23l29 -280l113 273h165l-236 -493q-51 -106 -100.5 -145t-141.5 -39z" />
    <glyph glyph-name="thorn" unicode="&#xfe;" horiz-adv-x="523" 
d="M197 132q12 -4 26 -4q45 0 74.5 43t29.5 121q0 60 -41 60q-24 0 -59 -35zM502 326q0 -157 -79.5 -243t-195.5 -86q-21 0 -51 5l-23 -161l-177 -27l140 881l177 27l-46 -287q33 34 62 52t64 18q60 0 94.5 -47.5t34.5 -131.5z" />
    <glyph glyph-name="ydieresis" unicode="&#xff;" horiz-adv-x="497" 
d="M272 547h-129l22 143h131zM458 547h-130l23 143h130zM52 -182q-42 0 -66 7v139q29 -8 62 -8q51 0 80 43l-86 480l181 23l29 -280l113 273h165l-236 -493q-51 -106 -100.5 -145t-141.5 -39z" />
    <glyph glyph-name="Amacron" unicode="&#x100;" horiz-adv-x="673" 
d="M576 752h-316l19 118h316zM424 -7l-15 123h-196l-51 -116h-195l341 693h208l114 -666zM368 484l-92 -213h117z" />
    <glyph glyph-name="amacron" unicode="&#x101;" horiz-adv-x="525" 
d="M487 552h-316l19 118h316zM295 178l30 185q-12 4 -21 4q-43 0 -75.5 -45.5t-32.5 -115.5q0 -63 38 -63q26 0 61 35zM288 74q-70 -84 -139 -84q-59 0 -93.5 46t-34.5 126q0 164 87.5 251.5t213.5 87.5q95 0 190 -37l-55 -342v-122h-164z" />
    <glyph glyph-name="Abreve" unicode="&#x102;" horiz-adv-x="673" 
d="M589 889q-36 -144 -167 -144q-67 0 -100.5 37.5t-32.5 106.5l86 14q8 -55 57 -55q24 0 40 13t32 42zM424 -7l-15 123h-196l-51 -116h-195l341 693h208l114 -666zM368 484l-92 -213h117z" />
    <glyph glyph-name="abreve" unicode="&#x103;" horiz-adv-x="525" 
d="M500 689q-36 -144 -167 -144q-67 0 -100.5 37.5t-32.5 106.5l86 14q8 -55 57 -55q24 0 40 13t32 42zM295 178l30 185q-12 4 -21 4q-43 0 -75.5 -45.5t-32.5 -115.5q0 -63 38 -63q26 0 61 35zM288 74q-70 -84 -139 -84q-59 0 -93.5 46t-34.5 126q0 164 87.5 251.5
t213.5 87.5q95 0 190 -37l-55 -342v-122h-164z" />
    <glyph glyph-name="Aogonek" unicode="&#x104;" horiz-adv-x="673" 
d="M453 -210q-49 0 -74.5 22t-25.5 55q0 54 71 126l-15 123h-196l-51 -116h-195l341 693h208l114 -666l-81 -13l-23 -29q-40 -50 -40 -72q0 -25 33 -25q21 0 52 7l-13 -85q-50 -20 -105 -20zM368 484l-92 -213h117z" />
    <glyph glyph-name="aogonek" unicode="&#x105;" horiz-adv-x="525" 
d="M295 178l30 185q-12 4 -21 4q-43 0 -75.5 -45.5t-32.5 -115.5q0 -63 38 -63q26 0 61 35zM420 -190q-50 -20 -105 -20q-49 0 -74.5 22t-25.5 55q0 55 78 133l-5 74q-70 -84 -139 -84q-59 0 -93.5 46t-34.5 126q0 164 87.5 251.5t213.5 87.5q95 0 190 -37l-55 -342v-122
h-57l-12 -15q-40 -50 -40 -72q0 -25 33 -25q21 0 52 7z" />
    <glyph glyph-name="Cacute" unicode="&#x106;" horiz-adv-x="565" 
d="M626 865l-157 -118h-106l70 151zM590 652l-52 -167q-63 47 -123 47q-75 0 -122.5 -68.5t-47.5 -161.5q0 -73 33 -110.5t93 -37.5t131 34v-166q-73 -33 -172 -33q-132 0 -211.5 75t-79.5 219q0 190 106.5 304.5t261.5 114.5q101 0 183 -50z" />
    <glyph glyph-name="cacute" unicode="&#x107;" horiz-adv-x="420" 
d="M498 665l-157 -118h-106l70 151zM428 472l-42 -140q-40 23 -78 23q-51 0 -81 -39t-30 -96q0 -86 84 -86q31 0 82 19v-137q-58 -25 -124 -25q-103 0 -160 56.5t-57 157.5q0 130 74.5 215t195.5 85q78 0 136 -33z" />
    <glyph glyph-name="Cdotaccent" unicode="&#x10a;" horiz-adv-x="565" 
d="M491 747h-136l23 143h136zM590 652l-52 -167q-63 47 -123 47q-75 0 -122.5 -68.5t-47.5 -161.5q0 -73 33 -110.5t93 -37.5t131 34v-166q-73 -33 -172 -33q-132 0 -211.5 75t-79.5 219q0 190 106.5 304.5t261.5 114.5q101 0 183 -50z" />
    <glyph glyph-name="cdotaccent" unicode="&#x10b;" horiz-adv-x="420" 
d="M364 547h-136l23 143h136zM428 472l-42 -140q-40 23 -78 23q-51 0 -81 -39t-30 -96q0 -86 84 -86q31 0 82 19v-137q-58 -25 -124 -25q-103 0 -160 56.5t-57 157.5q0 130 74.5 215t195.5 85q78 0 136 -33z" />
    <glyph glyph-name="Ccaron" unicode="&#x10c;" horiz-adv-x="565" 
d="M277 897h109l51 -53l71 53h103l-115 -150h-146zM590 652l-52 -167q-63 47 -123 47q-75 0 -122.5 -68.5t-47.5 -161.5q0 -73 33 -110.5t93 -37.5t131 34v-166q-73 -33 -172 -33q-132 0 -211.5 75t-79.5 219q0 190 106.5 304.5t261.5 114.5q101 0 183 -50z" />
    <glyph glyph-name="ccaron" unicode="&#x10d;" horiz-adv-x="420" 
d="M150 697h109l51 -53l71 53h103l-115 -150h-146zM428 472l-42 -140q-40 23 -78 23q-51 0 -81 -39t-30 -96q0 -86 84 -86q31 0 82 19v-137q-58 -25 -124 -25q-103 0 -160 56.5t-57 157.5q0 130 74.5 215t195.5 85q78 0 136 -33z" />
    <glyph glyph-name="Dcaron" unicode="&#x10e;" horiz-adv-x="670" 
d="M243 887h109l51 -53l71 53h103l-115 -150h-146zM656 398q0 -174 -107 -281q-117 -117 -345 -117h-189l109 690h182q350 0 350 -292zM452 389q0 150 -142 150h-9l-62 -388h2q87 0 145 58q66 66 66 180z" />
    <glyph glyph-name="dcaron" unicode="&#x10f;" horiz-adv-x="527" 
d="M727 722q3 -12 3 -28q0 -107 -95 -189l-80 17q41 69 41 129q0 25 -6 54zM326 363q-12 4 -26 4q-45 0 -74.5 -43t-29.5 -121q0 -60 41 -60q24 0 59 35zM555 722l-96 -600v-122h-164l-6 74q-40 -43 -71.5 -63.5t-67.5 -20.5q-60 0 -94.5 47.5t-34.5 131.5q0 157 79.5 243
t195.5 86q21 0 51 -5l31 202z" />
    <glyph glyph-name="Dcroat" unicode="&#x110;" horiz-adv-x="704" 
d="M271 151h4q87 0 145 58q66 66 66 180q0 150 -142 150h-11l-17 -107h82l-26 -161h-82zM238 0h-189l42 267h-64v169h91l40 254h182q350 0 350 -292q0 -174 -107 -281q-117 -117 -345 -117z" />
    <glyph glyph-name="dcroat" unicode="&#x111;" horiz-adv-x="526" 
d="M325 363q-12 4 -26 4q-45 0 -74.5 -43t-29.5 -121q0 -60 41 -60q24 0 59 35zM288 74q-40 -43 -71.5 -63.5t-67.5 -20.5q-60 0 -94.5 47.5t-34.5 131.5q0 157 79.5 243t195.5 86q21 0 51 -5l8 50h-94v103h109l8 49l177 27l-12 -76h64l-16 -103h-65l-67 -421v-122h-164z
" />
    <glyph glyph-name="Emacron" unicode="&#x112;" 
d="M509 742h-316l19 118h316zM561 690l-24 -161h-238l-15 -95h176v-159h-202l-18 -114h246l-26 -161h-445l109 690h437z" />
    <glyph glyph-name="emacron" unicode="&#x113;" horiz-adv-x="488" 
d="M453 552h-316l19 118h316zM267 394q-28 0 -49 -26.5t-31 -69.5h126q14 96 -46 96zM429 33q-96 -43 -187 -43q-98 0 -159.5 53.5t-61.5 155.5q0 132 75.5 219t189.5 87q86 0 133 -54t47 -145q0 -53 -14 -104h-272q4 -49 27.5 -70.5t69.5 -21.5q67 0 152 37v-114z" />
    <glyph glyph-name="Ebreve" unicode="&#x114;" 
d="M522 879q-36 -144 -167 -144q-67 0 -100.5 37.5t-32.5 106.5l86 14q8 -55 57 -55q24 0 40 13t32 42zM561 690l-24 -161h-238l-15 -95h176v-159h-202l-18 -114h246l-26 -161h-445l109 690h437z" />
    <glyph glyph-name="ebreve" unicode="&#x115;" horiz-adv-x="488" 
d="M466 689q-36 -144 -167 -144q-67 0 -100.5 37.5t-32.5 106.5l86 14q8 -55 57 -55q24 0 40 13t32 42zM267 394q-28 0 -49 -26.5t-31 -69.5h126q14 96 -46 96zM429 33q-96 -43 -187 -43q-98 0 -159.5 53.5t-61.5 155.5q0 132 75.5 219t189.5 87q86 0 133 -54t47 -145
q0 -53 -14 -104h-272q4 -49 27.5 -70.5t69.5 -21.5q67 0 152 37v-114z" />
    <glyph glyph-name="Edotaccent" unicode="&#x116;" 
d="M418 737h-136l23 143h136zM561 690l-24 -161h-238l-15 -95h176v-159h-202l-18 -114h246l-26 -161h-445l109 690h437z" />
    <glyph glyph-name="edotaccent" unicode="&#x117;" horiz-adv-x="488" 
d="M362 547h-136l23 143h136zM267 394q-28 0 -49 -26.5t-31 -69.5h126q14 96 -46 96zM429 33q-96 -43 -187 -43q-98 0 -159.5 53.5t-61.5 155.5q0 132 75.5 219t189.5 87q86 0 133 -54t47 -145q0 -53 -14 -104h-272q4 -49 27.5 -70.5t69.5 -21.5q67 0 152 37v-114z" />
    <glyph glyph-name="Eogonek" unicode="&#x118;" 
d="M438 -190q-50 -20 -105 -20q-49 0 -74.5 22t-25.5 55q0 55 78 133h-296l109 690h437l-24 -161h-238l-15 -95h176v-159h-202l-18 -114h246l-26 -161h-42l-12 -15q-40 -50 -40 -72q0 -25 33 -25q21 0 52 7z" />
    <glyph glyph-name="eogonek" unicode="&#x119;" horiz-adv-x="488" 
d="M291 -210q-50 0 -75 20.5t-25 54.5q0 28 16 53.5t61 72.5q-9 -1 -26 -1q-98 0 -159.5 53.5t-61.5 155.5q0 132 75.5 219t189.5 87q86 0 133 -54t47 -145q0 -53 -14 -104h-272q4 -49 27.5 -70.5t69.5 -21.5q67 0 152 37v-102l-51 -50q-54 -51 -54 -82q0 -25 33 -25
q21 0 52 7l-13 -85q-50 -20 -105 -20zM187 298h126q14 96 -46 96q-28 0 -49 -26.5t-31 -69.5z" />
    <glyph glyph-name="Ecaron" unicode="&#x11a;" 
d="M204 887h109l51 -53l71 53h103l-115 -150h-146zM561 690l-24 -161h-238l-15 -95h176v-159h-202l-18 -114h246l-26 -161h-445l109 690h437z" />
    <glyph glyph-name="ecaron" unicode="&#x11b;" horiz-adv-x="488" 
d="M148 697h109l51 -53l71 53h103l-115 -150h-146zM267 394q-28 0 -49 -26.5t-31 -69.5h126q14 96 -46 96zM429 33q-96 -43 -187 -43q-98 0 -159.5 53.5t-61.5 155.5q0 132 75.5 219t189.5 87q86 0 133 -54t47 -145q0 -53 -14 -104h-272q4 -49 27.5 -70.5t69.5 -21.5
q67 0 152 37v-114z" />
    <glyph glyph-name="Gbreve" unicode="&#x11e;" horiz-adv-x="648" 
d="M607 889q-36 -144 -167 -144q-67 0 -100.5 37.5t-32.5 106.5l86 14q8 -55 57 -55q24 0 40 13t32 42zM634 404l-60 -352q-106 -65 -244 -65q-136 0 -213 77.5t-77 212.5q0 187 108.5 306.5t273.5 119.5q115 0 214 -48l-53 -166q-75 48 -153 48q-85 0 -134.5 -70
t-49.5 -183q0 -140 111 -140q33 0 66 12l15 104h-89v144h285z" />
    <glyph glyph-name="gbreve" unicode="&#x11f;" horiz-adv-x="526" 
d="M500 689q-36 -144 -167 -144q-67 0 -100.5 37.5t-32.5 106.5l86 14q8 -55 57 -55q24 0 40 13t32 42zM325 363q-12 4 -27 4q-44 0 -73 -40t-29 -109q0 -62 42 -62q23 0 59 36zM512 464l-66 -424q-10 -66 -35 -111.5t-61 -68.5t-74 -32.5t-85 -9.5q-123 0 -219 47l42 130
q79 -42 157 -42q43 0 67.5 20.5t33.5 65.5l8 41q-68 -70 -123 -70q-64 0 -100 46t-36 132q0 147 83.5 230t202.5 83q96 0 205 -37z" />
    <glyph glyph-name="Gdotaccent" unicode="&#x120;" horiz-adv-x="648" 
d="M503 747h-136l23 143h136zM634 404l-60 -352q-106 -65 -244 -65q-136 0 -213 77.5t-77 212.5q0 187 108.5 306.5t273.5 119.5q115 0 214 -48l-53 -166q-75 48 -153 48q-85 0 -134.5 -70t-49.5 -183q0 -140 111 -140q33 0 66 12l15 104h-89v144h285z" />
    <glyph glyph-name="gdotaccent" unicode="&#x121;" horiz-adv-x="526" 
d="M396 547h-136l23 143h136zM325 363q-12 4 -27 4q-44 0 -73 -40t-29 -109q0 -62 42 -62q23 0 59 36zM512 464l-66 -424q-10 -66 -35 -111.5t-61 -68.5t-74 -32.5t-85 -9.5q-123 0 -219 47l42 130q79 -42 157 -42q43 0 67.5 20.5t33.5 65.5l8 41q-68 -70 -123 -70
q-64 0 -100 46t-36 132q0 147 83.5 230t202.5 83q96 0 205 -37z" />
    <glyph glyph-name="Gcommaaccent" unicode="&#x122;" horiz-adv-x="648" 
d="M634 404l-60 -352q-106 -65 -244 -65q-136 0 -213 77.5t-77 212.5q0 187 108.5 306.5t273.5 119.5q115 0 214 -48l-53 -166q-75 48 -153 48q-85 0 -134.5 -70t-49.5 -183q0 -140 111 -140q33 0 66 12l15 104h-89v144h285zM212 -76l144 22q33 -33 33 -71q0 -41 -31 -79.5
t-88 -67.5l-106 21q40 36 56 61.5t16 53.5q0 29 -24 60z" />
    <glyph glyph-name="gcommaaccent" unicode="&#x123;" horiz-adv-x="526" 
d="M425 560l-144 -22q-33 33 -33 71q0 41 31 79.5t88 67.5l106 -21q-40 -36 -56 -61.5t-16 -53.5q0 -29 24 -60zM325 363q-12 4 -27 4q-44 0 -73 -40t-29 -109q0 -62 42 -62q23 0 59 36zM512 464l-66 -424q-10 -66 -35 -111.5t-61 -68.5t-74 -32.5t-85 -9.5q-123 0 -219 47
l42 130q79 -42 157 -42q43 0 67.5 20.5t33.5 65.5l8 41q-68 -70 -123 -70q-64 0 -100 46t-36 132q0 147 83.5 230t202.5 83q96 0 205 -37z" />
    <glyph glyph-name="Hbar" unicode="&#x126;" horiz-adv-x="743" 
d="M316 427h168l13 87h-167zM293 263l-41 -263h-203l81 510h-70v112h87l11 68h200l-11 -68h167l10 68h200l-11 -68h79l-17 -112h-79l-81 -510h-203l43 263h-162z" />
    <glyph glyph-name="hbar" unicode="&#x127;" horiz-adv-x="529" 
d="M228 311l-50 -311h-173l87 543h-54v103h70l8 49l177 27l-12 -76h112l-17 -103h-112l-21 -126q44 42 81.5 65t82.5 23q48 0 73 -29.5t25 -79.5q0 -19 -4 -45l-56 -351h-173l47 297q3 18 3 28q0 26 -26 26q-24 0 -68 -40z" />
    <glyph glyph-name="Imacron" unicode="&#x12a;" horiz-adv-x="315" 
d="M394 742h-316l19 118h316zM329 690l-109 -690h-203l109 690h203z" />
    <glyph glyph-name="imacron" unicode="&#x12b;" horiz-adv-x="272" 
d="M343 552h-316l19 118h316zM263 495l-81 -495h-173l81 495h173z" />
    <glyph glyph-name="Ibreve" unicode="&#x12c;" horiz-adv-x="315" 
d="M407 879q-36 -144 -167 -144q-67 0 -100.5 37.5t-32.5 106.5l86 14q8 -55 57 -55q24 0 40 13t32 42zM329 690l-109 -690h-203l109 690h203z" />
    <glyph glyph-name="ibreve" unicode="&#x12d;" horiz-adv-x="272" 
d="M356 689q-36 -144 -167 -144q-67 0 -100.5 37.5t-32.5 106.5l86 14q8 -55 57 -55q24 0 40 13t32 42zM263 495l-81 -495h-173l81 495h173z" />
    <glyph glyph-name="Iogonek" unicode="&#x12e;" horiz-adv-x="320" 
d="M199 -190q-50 -20 -105 -20q-49 0 -74.5 22t-25.5 55q0 55 78 133h-53l109 690h203l-109 -690h-43l-12 -15q-40 -50 -40 -72q0 -25 33 -25q20 0 52 7z" />
    <glyph glyph-name="iogonek" unicode="&#x12f;" horiz-adv-x="272" 
d="M298 638q0 -42 -28 -67t-71 -25q-42 0 -70.5 25t-28.5 67t28.5 67.5t70.5 25.5q43 0 71 -25t28 -68zM170 -190q-50 -20 -105 -20q-49 0 -74.5 22t-25.5 55q0 55 78 133h-34l81 495h173l-81 -495h-32l-12 -15q-40 -50 -40 -72q0 -25 33 -25q21 0 52 7z" />
    <glyph glyph-name="Idotaccent" unicode="&#x130;" horiz-adv-x="315" 
d="M303 737h-136l23 143h136zM329 690l-109 -690h-203l109 690h203z" />
    <glyph glyph-name="dotlessi" unicode="&#x131;" horiz-adv-x="272" 
d="M263 495l-81 -495h-173l81 495h173z" />
    <glyph glyph-name="Kcommaaccent" unicode="&#x136;" horiz-adv-x="639" 
d="M705 690l-247 -337l148 -327l-213 -33l-128 314l-47 -307h-203l109 690h203l-48 -290l197 290h229zM190 -56l144 22q33 -33 33 -71q0 -41 -31 -79.5t-88 -67.5l-106 21q40 36 56 61.5t16 53.5q0 29 -24 60z" />
    <glyph glyph-name="kcommaaccent" unicode="&#x137;" horiz-adv-x="508" 
d="M178 0h-173l110 691l178 31l-69 -421l129 194h188l-169 -238l96 -235l-172 -29l-85 228zM120 -66l144 22q33 -33 33 -71q0 -41 -31 -79.5t-88 -67.5l-106 21q40 36 56 61.5t16 53.5q0 29 -24 60z" />
    <glyph glyph-name="Lacute" unicode="&#x139;" horiz-adv-x="496" 
d="M450 855l-157 -118h-106l70 151zM444 0h-429l109 690h203l-82 -516h199v-174z" />
    <glyph glyph-name="lacute" unicode="&#x13a;" horiz-adv-x="272" 
d="M420 865l-157 -118h-106l70 151zM299 722l-115 -722h-173l111 695z" />
    <glyph glyph-name="Lcommaaccent" unicode="&#x13b;" horiz-adv-x="496" 
d="M444 0h-429l109 690h203l-82 -516h199v-174zM119 -66l144 22q33 -33 33 -71q0 -41 -31 -79.5t-88 -67.5l-106 21q40 36 56 61.5t16 53.5q0 29 -24 60z" />
    <glyph glyph-name="lcommaaccent" unicode="&#x13c;" horiz-adv-x="272" 
d="M297 722l-115 -722h-173l111 695zM-7 -66l144 22q33 -33 33 -71q0 -41 -31 -79.5t-88 -67.5l-106 21q40 36 56 61.5t16 53.5q0 29 -24 60z" />
    <glyph glyph-name="Lcaron" unicode="&#x13d;" horiz-adv-x="496" 
d="M496 690q3 -12 3 -28q0 -107 -95 -189l-80 17q41 69 41 129q0 25 -6 54zM444 0h-429l109 690h203l-82 -516h199v-174z" />
    <glyph glyph-name="lcaron" unicode="&#x13e;" horiz-adv-x="272" 
d="M469 722q3 -12 3 -28q0 -107 -95 -189l-80 17q41 69 41 129q0 25 -6 54zM297 722l-115 -722h-173l111 695z" />
    <glyph glyph-name="Ldot" unicode="&#x13f;" horiz-adv-x="500" 
d="M448 0h-429l109 690h203l-82 -516h199v-174zM484 302h-138l22 143h138z" />
    <glyph glyph-name="ldot" unicode="&#x140;" horiz-adv-x="355" 
d="M299 722l-115 -722h-173l111 695zM377 275h-120l27 173h120z" />
    <glyph glyph-name="Lslash" unicode="&#x141;" horiz-adv-x="530" 
d="M478 0h-429l33 212l-65 -33v152l91 45l50 314h203l-33 -205l124 62l-26 -166l-124 -60l-23 -147h199v-174z" />
    <glyph glyph-name="lslash" unicode="&#x142;" horiz-adv-x="349" 
d="M218 0h-173l35 221l-58 -28v153l85 41l49 308l177 27l-39 -245l75 37l-27 -167l-74 -35z" />
    <glyph glyph-name="Nacute" unicode="&#x143;" horiz-adv-x="672" 
d="M616 855l-157 -118h-106l70 151zM688 690l-109 -690h-168l-153 356l-57 -356h-186l109 690h189l138 -327l51 327h186z" />
    <glyph glyph-name="nacute" unicode="&#x144;" 
d="M514 665l-157 -118h-106l70 151zM507 396q0 -19 -4 -45l-56 -351h-173l47 297q3 18 3 28q0 26 -26 26q-24 0 -68 -40l-50 -311h-173l59 373v122h164l7 -87q46 45 86.5 71t85.5 26q48 0 73 -29.5t25 -79.5z" />
    <glyph glyph-name="Ncommaaccent" unicode="&#x145;" horiz-adv-x="672" 
d="M688 690l-109 -690h-168l-153 356l-57 -356h-186l109 690h189l138 -327l51 327h186zM196 -56l144 22q33 -33 33 -71q0 -41 -31 -79.5t-88 -67.5l-106 21q40 36 56 61.5t16 53.5q0 29 -24 60z" />
    <glyph glyph-name="ncommaaccent" unicode="&#x146;" 
d="M507 396q0 -19 -4 -45l-56 -351h-173l47 297q3 18 3 28q0 26 -26 26q-24 0 -68 -40l-50 -311h-173l59 373v122h164l7 -87q46 45 86.5 71t85.5 26q48 0 73 -29.5t25 -79.5zM122 -66l144 22q33 -33 33 -71q0 -41 -31 -79.5t-88 -67.5l-106 21q40 36 56 61.5t16 53.5
q0 29 -24 60z" />
    <glyph glyph-name="Ncaron" unicode="&#x147;" horiz-adv-x="672" 
d="M267 887h109l51 -53l71 53h103l-115 -150h-146zM688 690l-109 -690h-168l-153 356l-57 -356h-186l109 690h189l138 -327l51 327h186z" />
    <glyph glyph-name="ncaron" unicode="&#x148;" 
d="M165 697h109l51 -53l71 53h103l-115 -150h-146zM507 396q0 -19 -4 -45l-56 -351h-173l47 297q3 18 3 28q0 26 -26 26q-24 0 -68 -40l-50 -311h-173l59 373v122h164l7 -87q46 45 86.5 71t85.5 26q48 0 73 -29.5t25 -79.5z" />
    <glyph glyph-name="Omacron" unicode="&#x14c;" horiz-adv-x="688" 
d="M578 752h-316l19 118h316zM328 -13q-134 0 -209.5 78.5t-75.5 224.5q0 95 30.5 180.5t87.5 142.5q90 90 226 90q134 0 209.5 -78.5t75.5 -224.5q0 -95 -30.5 -180.5t-87.5 -142.5q-90 -90 -226 -90zM330 137q34 0 63 29t51 101t22 156q0 130 -81 130q-34 0 -63 -29
t-51 -101t-22 -156q0 -130 81 -130z" />
    <glyph glyph-name="omacron" unicode="&#x14d;" horiz-adv-x="514" 
d="M462 552h-316l19 118h316zM490 283q0 -127 -70 -210t-185 -83q-101 0 -156 61.5t-55 160.5q0 127 69.5 210t185.5 83q100 0 155.5 -61t55.5 -161zM319 285q0 83 -47 83q-35 0 -56 -48t-21 -110q0 -83 47 -83q35 0 56 48t21 110z" />
    <glyph glyph-name="Obreve" unicode="&#x14e;" horiz-adv-x="688" 
d="M591 889q-36 -144 -167 -144q-67 0 -100.5 37.5t-32.5 106.5l86 14q8 -55 57 -55q24 0 40 13t32 42zM328 -13q-134 0 -209.5 78.5t-75.5 224.5q0 95 30.5 180.5t87.5 142.5q90 90 226 90q134 0 209.5 -78.5t75.5 -224.5q0 -95 -30.5 -180.5t-87.5 -142.5
q-90 -90 -226 -90zM330 137q34 0 63 29t51 101t22 156q0 130 -81 130q-34 0 -63 -29t-51 -101t-22 -156q0 -130 81 -130z" />
    <glyph glyph-name="obreve" unicode="&#x14f;" horiz-adv-x="514" 
d="M475 689q-36 -144 -167 -144q-67 0 -100.5 37.5t-32.5 106.5l86 14q8 -55 57 -55q24 0 40 13t32 42zM490 283q0 -127 -70 -210t-185 -83q-101 0 -156 61.5t-55 160.5q0 127 69.5 210t185.5 83q100 0 155.5 -61t55.5 -161zM319 285q0 83 -47 83q-35 0 -56 -48t-21 -110
q0 -83 47 -83q35 0 56 48t21 110z" />
    <glyph glyph-name="Ohungarumlaut" unicode="&#x150;" horiz-adv-x="688" 
d="M440 747l55 94l-122 -94h-112l79 151l171 -30l18 30l175 -33l-152 -118h-112zM328 -13q-134 0 -209.5 78.5t-75.5 224.5q0 95 30.5 180.5t87.5 142.5q90 90 226 90q134 0 209.5 -78.5t75.5 -224.5q0 -95 -30.5 -180.5t-87.5 -142.5q-90 -90 -226 -90zM330 137q34 0 63 29
t51 101t22 156q0 130 -81 130q-34 0 -63 -29t-51 -101t-22 -156q0 -130 81 -130z" />
    <glyph glyph-name="ohungarumlaut" unicode="&#x151;" horiz-adv-x="514" 
d="M323 547l55 94l-122 -94h-112l79 151l171 -30l18 30l175 -33l-152 -118h-112zM490 283q0 -127 -70 -210t-185 -83q-101 0 -156 61.5t-55 160.5q0 127 69.5 210t185.5 83q100 0 155.5 -61t55.5 -161zM319 285q0 83 -47 83q-35 0 -56 -48t-21 -110q0 -83 47 -83q35 0 56 48
t21 110z" />
    <glyph glyph-name="OE" unicode="&#x152;" horiz-adv-x="866" 
d="M384 0q-350 0 -350 292q0 174 107 281q117 117 345 117h410l-24 -161h-223l-15 -95h161v-159h-187l-18 -114h231l-26 -161h-411zM380 151h9l62 388h-2q-87 0 -145 -58q-66 -66 -66 -180q0 -150 142 -150z" />
    <glyph glyph-name="oe" unicode="&#x153;" horiz-adv-x="785" 
d="M534 -10q-92 0 -147 69q-64 -69 -159 -69q-94 0 -149 60.5t-55 158.5q0 126 69.5 211t178.5 85q99 0 150 -73q68 73 165 73q85 0 131 -54t46 -145q0 -53 -14 -104h-272q4 -49 27.5 -70.5t69.5 -21.5q67 0 152 37v-114q-96 -43 -193 -43zM565 394q-28 0 -49 -26.5
t-31 -69.5h126q14 96 -46 96zM319 291q0 77 -49 77q-33 0 -54 -48t-21 -116q0 -77 49 -77q33 0 54 48t21 116z" />
    <glyph glyph-name="Racute" unicode="&#x154;" horiz-adv-x="614" 
d="M578 855l-157 -118h-106l70 151zM609 487q0 -152 -133 -217l97 -244l-211 -33l-81 227h-32l-35 -220h-199l109 690h224q125 0 193 -51t68 -152zM414 471q0 76 -90 76h-26l-29 -190h20q59 0 92 29.5t33 84.5z" />
    <glyph glyph-name="racute" unicode="&#x155;" horiz-adv-x="389" 
d="M434 665l-157 -118h-106l70 151zM395 325q-102 -6 -173 -61l-42 -264h-173l59 373v122h163l8 -109q71 119 158 119v-180z" />
    <glyph glyph-name="Rcommaaccent" unicode="&#x156;" horiz-adv-x="614" 
d="M609 487q0 -152 -133 -217l97 -244l-211 -33l-81 227h-32l-35 -220h-199l109 690h224q125 0 193 -51t68 -152zM414 471q0 76 -90 76h-26l-29 -190h20q59 0 92 29.5t33 84.5zM174 -56l144 22q33 -33 33 -71q0 -41 -31 -79.5t-88 -67.5l-106 21q40 36 56 61.5t16 53.5
q0 29 -24 60z" />
    <glyph glyph-name="rcommaaccent" unicode="&#x157;" horiz-adv-x="389" 
d="M395 325q-102 -6 -173 -61l-42 -264h-173l59 373v122h163l8 -109q71 119 158 119v-180zM-1 -66l144 22q33 -33 33 -71q0 -41 -31 -79.5t-88 -67.5l-106 21q40 36 56 61.5t16 53.5q0 29 -24 60z" />
    <glyph glyph-name="Rcaron" unicode="&#x158;" horiz-adv-x="614" 
d="M229 887h109l51 -53l71 53h103l-115 -150h-146zM609 487q0 -152 -133 -217l97 -244l-211 -33l-81 227h-32l-35 -220h-199l109 690h224q125 0 193 -51t68 -152zM414 471q0 76 -90 76h-26l-29 -190h20q59 0 92 29.5t33 84.5z" />
    <glyph glyph-name="rcaron" unicode="&#x159;" horiz-adv-x="389" 
d="M85 697h109l51 -53l71 53h103l-115 -150h-146zM395 325q-102 -6 -173 -61l-42 -264h-173l59 373v122h163l8 -109q71 119 158 119v-180z" />
    <glyph glyph-name="Sacute" unicode="&#x15a;" horiz-adv-x="550" 
d="M559 865l-157 -118h-106l70 151zM557 637l-54 -155q-111 69 -178 69q-28 0 -42.5 -12.5t-14.5 -32.5q0 -18 12 -30.5t49 -31.5q108 -56 149 -103.5t41 -112.5q0 -114 -71 -177t-190 -63q-135 0 -266 73l55 156q120 -78 209 -78q32 0 51.5 15.5t19.5 38.5q0 19 -11.5 31
t-43.5 29q-117 60 -157 105.5t-40 119.5q0 96 68 160t181 64q122 0 233 -65z" />
    <glyph glyph-name="sacute" unicode="&#x15b;" horiz-adv-x="435" 
d="M468 665l-157 -118h-106l70 151zM420 460l-33 -124q-92 47 -155 47q-31 0 -31 -22q0 -10 6.5 -16.5t28.5 -16.5q93 -43 128.5 -77t35.5 -95q0 -72 -51 -119t-144 -47q-112 0 -215 57l36 125q99 -60 180 -60q40 0 40 25q0 11 -9.5 19t-35.5 20q-87 40 -120.5 73t-33.5 91
q0 74 51 119.5t135 45.5q95 0 187 -45z" />
    <glyph glyph-name="Scedilla" unicode="&#x15e;" horiz-adv-x="550" 
d="M557 637l-54 -155q-111 69 -178 69q-28 0 -42.5 -12.5t-14.5 -32.5q0 -18 12 -30.5t49 -31.5q108 -56 149 -103.5t41 -112.5q0 -114 -71 -177t-190 -63q-135 0 -266 73l55 156q120 -78 209 -78q32 0 51.5 15.5t19.5 38.5q0 19 -11.5 31t-43.5 29q-117 60 -157 105.5
t-40 119.5q0 96 68 160t181 64q122 0 233 -65zM310 -87l-149 -105h-105l63 138z" />
    <glyph glyph-name="scedilla" unicode="&#x15f;" horiz-adv-x="435" 
d="M420 460l-33 -124q-92 47 -155 47q-31 0 -31 -22q0 -10 6.5 -16.5t28.5 -16.5q93 -43 128.5 -77t35.5 -95q0 -72 -51 -119t-144 -47q-112 0 -215 57l36 125q99 -60 180 -60q40 0 40 25q0 11 -9.5 19t-35.5 20q-87 40 -120.5 73t-33.5 91q0 74 51 119.5t135 45.5
q95 0 187 -45zM253 -77l-149 -105h-105l63 138z" />
    <glyph glyph-name="Scaron" unicode="&#x160;" horiz-adv-x="550" 
d="M210 897h109l51 -53l71 53h103l-115 -150h-146zM557 637l-54 -155q-111 69 -178 69q-28 0 -42.5 -12.5t-14.5 -32.5q0 -18 12 -30.5t49 -31.5q108 -56 149 -103.5t41 -112.5q0 -114 -71 -177t-190 -63q-135 0 -266 73l55 156q120 -78 209 -78q32 0 51.5 15.5t19.5 38.5
q0 19 -11.5 31t-43.5 29q-117 60 -157 105.5t-40 119.5q0 96 68 160t181 64q122 0 233 -65z" />
    <glyph glyph-name="scaron" unicode="&#x161;" horiz-adv-x="435" 
d="M120 697h109l51 -53l71 53h103l-115 -150h-146zM420 460l-33 -124q-92 47 -155 47q-31 0 -31 -22q0 -10 6.5 -16.5t28.5 -16.5q93 -43 128.5 -77t35.5 -95q0 -72 -51 -119t-144 -47q-112 0 -215 57l36 125q99 -60 180 -60q40 0 40 25q0 11 -9.5 19t-35.5 20
q-87 40 -120.5 73t-33.5 91q0 74 51 119.5t135 45.5q95 0 187 -45z" />
    <glyph glyph-name="Tcommaaccent" unicode="&#x162;" horiz-adv-x="595" 
d="M630 522h-188l-82 -522h-203l82 522h-183l28 168h546v-168zM156 -66l144 22q33 -33 33 -71q0 -41 -31 -79.5t-88 -67.5l-106 21q40 36 56 61.5t16 53.5q0 29 -24 60z" />
    <glyph glyph-name="tcommaaccent" unicode="&#x163;" horiz-adv-x="374" 
d="M368 353h-109l-22 -135q-3 -21 -3 -37q0 -43 43 -43q20 0 40 4v-140q-48 -11 -108 -11q-153 0 -153 131q0 30 5 67l26 164h-58l22 142h58l22 145l177 27l-27 -172h87v-142zM67 -66l144 22q33 -33 33 -71q0 -41 -31 -79.5t-88 -67.5l-106 21q40 36 56 61.5t16 53.5
q0 29 -24 60z" />
    <glyph glyph-name="Tcaron" unicode="&#x164;" horiz-adv-x="595" 
d="M229 887h109l51 -53l71 53h103l-115 -150h-146zM630 522h-188l-82 -522h-203l82 522h-183l28 168h546v-168z" />
    <glyph glyph-name="tcaron" unicode="&#x165;" horiz-adv-x="374" 
d="M490 745q3 -12 3 -28q0 -107 -95 -189l-80 17q41 69 41 129q0 26 -6 54zM368 353h-109l-22 -135q-3 -21 -3 -37q0 -43 43 -43q20 0 40 4v-140q-48 -11 -108 -11q-153 0 -153 131q0 30 5 67l26 164h-58l22 142h58l22 145l177 27l-27 -172h87v-142z" />
    <glyph glyph-name="Umacron" unicode="&#x16a;" horiz-adv-x="669" 
d="M567 742h-316l19 118h316zM689 690l-64 -406q-25 -157 -103 -227t-215 -70q-258 0 -258 224q0 40 8 98l60 381h203l-62 -393q-8 -48 -8 -78q0 -70 70 -70q41 0 65.5 28t34.5 92l66 421h203z" />
    <glyph glyph-name="umacron" unicode="&#x16b;" 
d="M469 552h-316l19 118h316zM24 99q0 19 4 45l56 351h173l-47 -297q-3 -18 -3 -28q0 -26 26 -26q24 0 68 40l50 311h173l-59 -373v-122h-164l-7 87q-46 -45 -86.5 -71t-85.5 -26q-48 0 -73 29.5t-25 79.5z" />
    <glyph glyph-name="Ubreve" unicode="&#x16c;" horiz-adv-x="669" 
d="M582 874q-36 -144 -167 -144q-67 0 -100.5 37.5t-32.5 106.5l86 14q8 -55 57 -55q24 0 40 13t32 42zM689 690l-64 -406q-25 -157 -103 -227t-215 -70q-258 0 -258 224q0 40 8 98l60 381h203l-62 -393q-8 -48 -8 -78q0 -70 70 -70q41 0 65.5 28t34.5 92l66 421h203z" />
    <glyph glyph-name="ubreve" unicode="&#x16d;" 
d="M485 684q-36 -144 -167 -144q-67 0 -100.5 37.5t-32.5 106.5l86 14q8 -55 57 -55q24 0 40 13t32 42zM24 99q0 19 4 45l56 351h173l-47 -297q-3 -18 -3 -28q0 -26 26 -26q24 0 68 40l50 311h173l-59 -373v-122h-164l-7 87q-46 -45 -86.5 -71t-85.5 -26q-48 0 -73 29.5
t-25 79.5z" />
    <glyph glyph-name="Uring" unicode="&#x16e;" horiz-adv-x="669" 
d="M425 727q-73 0 -110 33t-37 84q0 50 37 83t110 33t110 -33t37 -83q0 -51 -37 -84t-110 -33zM425 790q24 0 37.5 14.5t13.5 39.5t-13.5 39.5t-37.5 14.5t-37.5 -14.5t-13.5 -39.5t13.5 -39.5t37.5 -14.5zM689 690l-64 -406q-25 -157 -103 -227t-215 -70q-258 0 -258 224
q0 40 8 98l60 381h203l-62 -393q-8 -48 -8 -78q0 -70 70 -70q41 0 65.5 28t34.5 92l66 421h203z" />
    <glyph glyph-name="uring" unicode="&#x16f;" 
d="M326 537q-73 0 -110 33t-37 84q0 50 37 83t110 33t110 -33t37 -83q0 -51 -37 -84t-110 -33zM326 600q24 0 37.5 14.5t13.5 39.5t-13.5 39.5t-37.5 14.5t-37.5 -14.5t-13.5 -39.5t13.5 -39.5t37.5 -14.5zM24 99q0 19 4 45l56 351h173l-47 -297q-3 -18 -3 -28q0 -26 26 -26
q24 0 68 40l50 311h173l-59 -373v-122h-164l-7 87q-46 -45 -86.5 -71t-85.5 -26q-48 0 -73 29.5t-25 79.5z" />
    <glyph glyph-name="Uhungarumlaut" unicode="&#x170;" horiz-adv-x="669" 
d="M429 737l55 94l-122 -94h-112l79 151l171 -30l18 30l175 -33l-152 -118h-112zM689 690l-64 -406q-25 -157 -103 -227t-215 -70q-258 0 -258 224q0 40 8 98l60 381h203l-62 -393q-8 -48 -8 -78q0 -70 70 -70q41 0 65.5 28t34.5 92l66 421h203z" />
    <glyph glyph-name="uhungarumlaut" unicode="&#x171;" 
d="M331 547l55 94l-122 -94h-112l79 151l171 -30l18 30l175 -33l-152 -118h-112zM24 99q0 19 4 45l56 351h173l-47 -297q-3 -18 -3 -28q0 -26 26 -26q24 0 68 40l50 311h173l-59 -373v-122h-164l-7 87q-46 -45 -86.5 -71t-85.5 -26q-48 0 -73 29.5t-25 79.5z" />
    <glyph glyph-name="Uogonek" unicode="&#x172;" horiz-adv-x="675" 
d="M272 -210q-49 0 -74.5 22t-25.5 55q0 52 70 125q-189 27 -189 219q0 40 8 98l60 381h203l-62 -393q-8 -48 -8 -78q0 -70 70 -70q41 0 65.5 28t34.5 92l66 421h203l-64 -406q-23 -147 -92.5 -217.5t-188.5 -78.5l-3 -3q-40 -50 -40 -72q0 -25 33 -25q20 0 52 7l-13 -85
q-50 -20 -105 -20z" />
    <glyph glyph-name="uogonek" unicode="&#x173;" 
d="M428 -190q-50 -20 -105 -20q-49 0 -74.5 22t-25.5 55q0 55 78 133l-7 87q-46 -45 -86.5 -71t-85.5 -26q-48 0 -73 29.5t-25 79.5q0 19 4 45l56 351h173l-47 -297q-3 -18 -3 -28q0 -26 26 -26q24 0 68 40l50 311h173l-59 -373v-122h-57l-12 -15q-40 -50 -40 -72
q0 -25 33 -25q21 0 52 7z" />
    <glyph glyph-name="Wcircumflex" unicode="&#x174;" horiz-adv-x="967" 
d="M746 737h-109l-51 53l-71 -53h-103l115 150h146zM1028 690l-292 -690h-194l-44 382l-166 -382h-188l-70 662l227 35l14 -383l158 376h196l37 -376l133 376h189z" />
    <glyph glyph-name="wcircumflex" unicode="&#x175;" horiz-adv-x="710" 
d="M577 547h-109l-51 53l-71 -53h-103l115 150h146zM740 495l-205 -495h-168l-15 268l-97 -268h-165l-47 481l176 21l5 -277l95 270h160l10 -270l90 270h161z" />
    <glyph glyph-name="Ycircumflex" unicode="&#x176;" horiz-adv-x="641" 
d="M561 737h-109l-51 53l-71 -53h-103l115 150h146zM724 690l-307 -446l-39 -244h-204l38 240l-156 426l212 31l82 -259l158 252h216z" />
    <glyph glyph-name="ycircumflex" unicode="&#x177;" horiz-adv-x="497" 
d="M469 547h-109l-51 53l-71 -53h-103l115 150h146zM52 -182q-42 0 -66 7v139q29 -8 62 -8q51 0 80 43l-86 480l181 23l29 -280l113 273h165l-236 -493q-51 -106 -100.5 -145t-141.5 -39z" />
    <glyph glyph-name="Ydieresis" unicode="&#x178;" horiz-adv-x="641" 
d="M364 737h-129l22 143h131zM550 737h-130l23 143h130zM724 690l-307 -446l-39 -244h-204l38 240l-156 426l212 31l82 -259l158 252h216z" />
    <glyph glyph-name="Zacute" unicode="&#x179;" horiz-adv-x="576" 
d="M571 855l-157 -118h-106l70 151zM614 690l-23 -147l-329 -384h254v-159h-529l23 147l329 384h-231v159h506z" />
    <glyph glyph-name="zacute" unicode="&#x17a;" horiz-adv-x="466" 
d="M483 665l-157 -118h-106l70 151zM469 495l-20 -134l-220 -224h176v-137h-421l21 133l220 225h-153v137h397z" />
    <glyph glyph-name="Zdotaccent" unicode="&#x17b;" horiz-adv-x="576" 
d="M436 737h-136l23 143h136zM614 690l-23 -147l-329 -384h254v-159h-529l23 147l329 384h-231v159h506z" />
    <glyph glyph-name="zdotaccent" unicode="&#x17c;" horiz-adv-x="466" 
d="M349 547h-136l23 143h136zM469 495l-20 -134l-220 -224h176v-137h-421l21 133l220 225h-153v137h397z" />
    <glyph glyph-name="Zcaron" unicode="&#x17d;" horiz-adv-x="576" 
d="M222 887h109l51 -53l71 53h103l-115 -150h-146zM614 690l-23 -147l-329 -384h254v-159h-529l23 147l329 384h-231v159h506z" />
    <glyph glyph-name="zcaron" unicode="&#x17e;" horiz-adv-x="466" 
d="M135 697h109l51 -53l71 53h103l-115 -150h-146zM469 495l-20 -134l-220 -224h176v-137h-421l21 133l220 225h-153v137h397z" />
    <glyph glyph-name="uni018F" unicode="&#x18f;" horiz-adv-x="656" 
d="M293 -13q-124 0 -185.5 80.5t-61.5 208.5q0 72 15 140h379q-5 122 -124 122q-84 0 -197 -48v159q111 54 231 54q138 0 214.5 -78.5t76.5 -227.5q0 -179 -98.5 -294.5t-249.5 -115.5zM309 136q39 0 73.5 38t49.5 115h-192q-3 -23 -3 -43q0 -110 72 -110z" />
    <glyph glyph-name="florin" unicode="&#x192;" horiz-adv-x="396" 
d="M380 326h-98l-51 -326h-172l52 326h-68l22 144h69l6 38q14 89 59.5 132.5t133.5 43.5q46 0 86 -6v-130q-23 5 -48 5q-55 0 -64 -63l-3 -20h76v-144z" />
    <glyph glyph-name="Aringacute" unicode="&#x1fa;" horiz-adv-x="673" 
d="M640 992l-157 -118h-106l70 151zM424 -7l-15 123h-196l-51 -116h-195l329 669q-28 29 -28 75q0 50 37 83t110 33t110 -33t37 -83q0 -55 -41 -87l109 -630zM415 690q24 0 37.5 14.5t13.5 39.5t-13.5 39.5t-37.5 14.5t-37.5 -14.5t-13.5 -39.5t13.5 -39.5t37.5 -14.5z
M368 484l-92 -213h117z" />
    <glyph glyph-name="aringacute" unicode="&#x1fb;" horiz-adv-x="525" 
d="M556 921l-157 -118h-106l70 151zM346 547q-73 0 -110 33t-37 84q0 50 37 83t110 33t110 -33t37 -83q0 -51 -37 -84t-110 -33zM346 610q24 0 37.5 14.5t13.5 39.5t-13.5 39.5t-37.5 14.5t-37.5 -14.5t-13.5 -39.5t13.5 -39.5t37.5 -14.5zM295 178l30 185q-12 4 -21 4
q-43 0 -75.5 -45.5t-32.5 -115.5q0 -63 38 -63q26 0 61 35zM288 74q-70 -84 -139 -84q-59 0 -93.5 46t-34.5 126q0 164 87.5 251.5t213.5 87.5q95 0 190 -37l-55 -342v-122h-164z" />
    <glyph glyph-name="AEacute" unicode="&#x1fc;" horiz-adv-x="874" 
d="M780 855l-157 -118h-106l70 151zM416 271l43 276l-157 -276h114zM373 0l18 116h-172l-66 -116h-197l416 690h532l-24 -161h-223l-15 -95h161v-159h-187l-18 -114h231l-26 -161h-430z" />
    <glyph glyph-name="aeacute" unicode="&#x1fd;" horiz-adv-x="756" 
d="M626 665l-157 -118h-106l70 151zM510 -10q-118 0 -176 70q-100 -70 -194 -70q-58 0 -94 32t-36 93q0 175 289 184l3 15q5 35 -9 48.5t-54 13.5q-59 0 -151 -35v126q102 38 197 38q99 0 134 -51q59 51 139 51q84 0 130 -53t46 -136q0 -63 -14 -114h-272q4 -49 27.5 -70.5
t69.5 -21.5q67 0 152 37v-114q-96 -43 -187 -43zM581 298q14 96 -46 96q-28 0 -49 -26.5t-31 -69.5h126zM295 139q-7 28 -7 66v16q-53 -5 -79.5 -25.5t-26.5 -46.5q0 -39 38 -39q34 0 75 29z" />
    <glyph glyph-name="Oslashacute" unicode="&#x1fe;" horiz-adv-x="688" 
d="M622 865l-157 -118h-106l70 151zM328 -13q-118 0 -191 62l-58 -58l-124 28l117 117q-29 66 -29 154q0 95 30.5 180.5t87.5 142.5q90 90 226 90q118 0 191 -61l57 57l124 -28l-116 -116q29 -66 29 -155q0 -95 -30.5 -180.5t-87.5 -142.5q-90 -90 -226 -90zM319 527
q-29 -29 -51 -99t-23 -153l213 230q-19 52 -73 52q-36 0 -66 -30zM330 133q36 0 66 30q29 29 51 99t23 153l-213 -231q21 -51 73 -51z" />
    <glyph glyph-name="oslashacute" unicode="&#x1ff;" horiz-adv-x="514" 
d="M504 665l-157 -118h-106l70 151zM235 -10q-81 0 -137 48l-43 -46l-84 21l82 80q-29 52 -29 119q0 127 69.5 210t185.5 83q81 0 137 -48l43 46l83 -21l-82 -79q30 -51 30 -120q0 -127 -70 -210t-185 -83zM187 210v-4l129 141q-13 29 -44 29q-39 0 -62 -50.5t-23 -115.5z
M242 119q39 0 62 50t23 116v5l-129 -142q13 -29 44 -29z" />
    <glyph glyph-name="Scommaaccent" unicode="&#x218;" horiz-adv-x="550" 
d="M557 637l-54 -155q-111 69 -178 69q-28 0 -42.5 -12.5t-14.5 -32.5q0 -18 12 -30.5t49 -31.5q108 -56 149 -103.5t41 -112.5q0 -114 -71 -177t-190 -63q-135 0 -266 73l55 156q120 -78 209 -78q32 0 51.5 15.5t19.5 38.5q0 19 -11.5 31t-43.5 29q-117 60 -157 105.5
t-40 119.5q0 96 68 160t181 64q122 0 233 -65zM133 -76l144 22q33 -33 33 -71q0 -41 -31 -79.5t-88 -67.5l-106 21q40 36 56 61.5t16 53.5q0 29 -24 60z" />
    <glyph glyph-name="scommaaccent" unicode="&#x219;" horiz-adv-x="435" 
d="M420 460l-33 -124q-92 47 -155 47q-31 0 -31 -22q0 -10 6.5 -16.5t28.5 -16.5q93 -43 128.5 -77t35.5 -95q0 -72 -51 -119t-144 -47q-112 0 -215 57l36 125q99 -60 180 -60q40 0 40 25q0 11 -9.5 19t-35.5 20q-87 40 -120.5 73t-33.5 91q0 74 51 119.5t135 45.5
q95 0 187 -45zM76 -66l144 22q33 -33 33 -71q0 -41 -31 -79.5t-88 -67.5l-106 21q40 36 56 61.5t16 53.5q0 29 -24 60z" />
    <glyph glyph-name="schwa" unicode="&#x259;" horiz-adv-x="488" 
d="M202 -10q-86 0 -133 54t-47 145q0 53 14 104h272q-4 49 -27.5 70.5t-69.5 21.5q-67 0 -152 -37v114q96 43 187 43q98 0 159.5 -53.5t61.5 -155.5q0 -132 -75.5 -219t-189.5 -87zM221 101q28 0 49 26.5t31 69.5h-126q-14 -96 46 -96z" />
    <glyph glyph-name="circumflex" unicode="&#x2c6;" horiz-adv-x="409" 
d="M423 547h-109l-51 53l-71 -53h-103l115 150h146z" />
    <glyph glyph-name="caron" unicode="&#x2c7;" horiz-adv-x="409" 
d="M103 697h109l51 -53l71 53h103l-115 -150h-146z" />
    <glyph glyph-name="breve" unicode="&#x2d8;" horiz-adv-x="409" 
d="M424 689q-36 -144 -167 -144q-67 0 -100.5 37.5t-32.5 106.5l86 14q8 -55 57 -55q24 0 40 13t32 42z" />
    <glyph glyph-name="dotaccent" unicode="&#x2d9;" horiz-adv-x="409" 
d="M319 547h-136l23 143h136z" />
    <glyph glyph-name="ring" unicode="&#x2da;" horiz-adv-x="409" 
d="M291 547q-73 0 -110 33t-37 84q0 50 37 83t110 33t110 -33t37 -83q0 -51 -37 -84t-110 -33zM291 610q24 0 37.5 14.5t13.5 39.5t-13.5 39.5t-37.5 14.5t-37.5 -14.5t-13.5 -39.5t13.5 -39.5t37.5 -14.5z" />
    <glyph glyph-name="ogonek" unicode="&#x2db;" horiz-adv-x="454" 
d="M249 44l84 -16l-34 -43q-40 -50 -40 -72q0 -25 33 -25q20 0 52 7l-13 -85q-50 -20 -105 -20q-49 0 -74.5 22t-25.5 55q0 58 88 143z" />
    <glyph glyph-name="tilde" unicode="&#x2dc;" horiz-adv-x="409" 
d="M429 696q-20 -85 -44 -117.5t-63 -32.5q-23 0 -61 18q-41 20 -56 20q-10 0 -18 -9t-17 -33l-73 17q20 85 44.5 118t63.5 33q25 0 61 -18q41 -20 56 -20q10 0 18 9t17 33z" />
    <glyph glyph-name="hungarumlaut" unicode="&#x2dd;" horiz-adv-x="409" 
d="M221 547l55 94l-122 -94h-112l79 151l171 -30l18 30l175 -33l-152 -118h-112z" />
    <glyph glyph-name="commaaccent" unicode="&#x326;" horiz-adv-x="454" 
d="M122 -66l144 22q33 -33 33 -71q0 -41 -31 -79.5t-88 -67.5l-106 21q40 36 56 61.5t16 53.5q0 29 -24 60z" />
    <glyph glyph-name="uni0384" unicode="&#x384;" horiz-adv-x="454" 
d="M417 675l-142 -128h-112l52 151z" />
    <glyph glyph-name="uni0385" unicode="&#x385;" horiz-adv-x="569" 
d="M467 725l-108 -178h-107l50 201zM222 547h-142l23 143h142zM580 547h-142l23 143h142z" />
    <glyph glyph-name="uni0386" unicode="&#x386;" horiz-adv-x="673" 
d="M424 -7l-15 123h-196l-51 -116h-195l341 693h208l114 -666zM182 690l-101 -195h-115l31 195h185zM368 484l-92 -213h117z" />
    <glyph glyph-name="uni0387" unicode="&#x387;" horiz-adv-x="278" 
d="M272 495l-30 -192h-187l30 192h187z" />
    <glyph glyph-name="uni0388" unicode="&#x388;" horiz-adv-x="535" 
d="M94 690l-101 -195h-115l31 195h185zM565 690l-24 -161h-238l-15 -95h176v-159h-202l-18 -114h246l-26 -161h-445l109 690h437z" />
    <glyph glyph-name="uni0389" unicode="&#x389;" horiz-adv-x="683" 
d="M94 690l-101 -195h-115l31 195h185zM701 690l-109 -690h-203l43 263h-171l-41 -263h-203l109 690h203l-40 -250h171l38 250h203z" />
    <glyph glyph-name="uni038A" unicode="&#x38a;" horiz-adv-x="320" 
d="M94 690l-101 -195h-115l31 195h185zM331 690l-109 -690h-203l109 690h203z" />
    <glyph glyph-name="uni038C" unicode="&#x38c;" horiz-adv-x="688" 
d="M328 -13q-134 0 -209.5 78.5t-75.5 224.5q0 95 30.5 180.5t87.5 142.5q90 90 226 90q134 0 209.5 -78.5t75.5 -224.5q0 -95 -30.5 -180.5t-87.5 -142.5q-90 -90 -226 -90zM115 694l-101 -195h-115l31 195h185zM330 137q34 0 63 29t51 101t22 156q0 130 -81 130
q-34 0 -63 -29t-51 -101t-22 -156q0 -130 81 -130z" />
    <glyph glyph-name="uni038E" unicode="&#x38e;" horiz-adv-x="641" 
d="M724 690l-307 -446l-39 -244h-204l38 240l-156 426l212 31l82 -259l158 252h216zM42 690l-101 -195h-115l31 195h185z" />
    <glyph glyph-name="uni038F" unicode="&#x38f;" horiz-adv-x="692" 
d="M79 690l-101 -195h-115l31 195h185zM296 137l-44 -137h-268l24 154l94 -4q-73 98 -73 209q0 141 100.5 242t257.5 101q145 0 222.5 -77t77.5 -196q0 -85 -36 -150t-110 -129l93 4l-25 -154h-269v137l30 32q60 65 88.5 120.5t28.5 128.5q0 59 -28.5 94.5t-84.5 35.5
q-67 0 -108.5 -60t-41.5 -149q0 -83 52 -170z" />
    <glyph glyph-name="uni0390" unicode="&#x390;" horiz-adv-x="305" 
d="M329 725l-108 -178h-107l50 201zM84 547h-142l23 143h142zM442 547h-142l23 143h142zM259 12q-52 -19 -103 -19q-65 0 -99 31.5t-34 91.5q0 32 9 85l50 294h173l-53 -314q-4 -22 -4 -33q0 -23 27 -23q15 0 34 6v-119z" />
    <glyph glyph-name="uni0391" unicode="&#x391;" horiz-adv-x="673" 
d="M424 -7l-15 123h-196l-51 -116h-195l341 693h208l114 -666zM368 484l-92 -213h117z" />
    <glyph glyph-name="uni0392" unicode="&#x392;" horiz-adv-x="600" 
d="M590 527q0 -111 -118 -163q96 -44 96 -142q0 -105 -77.5 -163.5t-211.5 -58.5h-264l109 690h237q110 0 169.5 -42.5t59.5 -120.5zM404 494q0 61 -75 61h-34l-21 -139h41q38 0 63.5 21t25.5 57zM375 222q0 70 -90 70h-31l-26 -158h45q44 0 73 24t29 64z" />
    <glyph glyph-name="uni0393" unicode="&#x393;" horiz-adv-x="501" 
d="M124 690h402v-174h-227l-81 -516h-203z" />
    <glyph glyph-name="uni0394" unicode="&#x394;" horiz-adv-x="669" 
d="M588 0h-581v147l285 546h222l112 -546zM363 492l-161 -337h216z" />
    <glyph glyph-name="uni0395" unicode="&#x395;" 
d="M561 690l-24 -161h-238l-15 -95h176v-159h-202l-18 -114h246l-26 -161h-445l109 690h437z" />
    <glyph glyph-name="uni0396" unicode="&#x396;" horiz-adv-x="576" 
d="M614 690l-23 -147l-329 -384h254v-159h-529l23 147l329 384h-231v159h506z" />
    <glyph glyph-name="uni0397" unicode="&#x397;" horiz-adv-x="683" 
d="M699 690l-109 -690h-203l43 263h-171l-41 -263h-203l109 690h203l-40 -250h171l38 250h203z" />
    <glyph glyph-name="uni0398" unicode="&#x398;" horiz-adv-x="688" 
d="M328 -13q-134 0 -209.5 78.5t-75.5 224.5q0 95 30.5 180.5t87.5 142.5q90 90 226 90q134 0 209.5 -78.5t75.5 -224.5q0 -95 -30.5 -180.5t-87.5 -142.5q-90 -90 -226 -90zM327 129q43 0 76 33q31 31 53 102.5t22 158.5q0 138 -90 138q-42 0 -76 -34q-31 -31 -53 -101
t-22 -159q0 -138 90 -138zM422 272h-152l24 146h152z" />
    <glyph glyph-name="uni0399" unicode="&#x399;" horiz-adv-x="315" 
d="M329 690l-109 -690h-203l109 690h203z" />
    <glyph glyph-name="uni039A" unicode="&#x39a;" horiz-adv-x="639" 
d="M705 690l-247 -337l148 -327l-213 -33l-128 314l-47 -307h-203l109 690h203l-48 -290l197 290h229z" />
    <glyph glyph-name="uni039B" unicode="&#x39b;" horiz-adv-x="665" 
d="M505 693l117 -666l-214 -34l-54 443l-190 -436h-197l343 693h195z" />
    <glyph glyph-name="uni039C" unicode="&#x39c;" horiz-adv-x="869" 
d="M851 690l-60 -690h-208l40 408l-153 -411h-189l-21 411l-89 -408h-172l158 690h259l26 -422l162 422h247z" />
    <glyph glyph-name="uni039D" unicode="&#x39d;" horiz-adv-x="672" 
d="M688 690l-109 -690h-168l-153 356l-57 -356h-186l109 690h189l138 -327l51 327h186z" />
    <glyph glyph-name="uni039E" unicode="&#x39e;" horiz-adv-x="568" 
d="M572 526h-488l26 164h488zM505 272h-424l26 164h398v-164zM499 0h-507l25 164h508z" />
    <glyph glyph-name="uni039F" unicode="&#x39f;" horiz-adv-x="688" 
d="M328 -13q-134 0 -209.5 78.5t-75.5 224.5q0 95 30.5 180.5t87.5 142.5q90 90 226 90q134 0 209.5 -78.5t75.5 -224.5q0 -95 -30.5 -180.5t-87.5 -142.5q-90 -90 -226 -90zM330 137q34 0 63 29t51 101t22 156q0 130 -81 130q-34 0 -63 -29t-51 -101t-22 -156
q0 -130 81 -130z" />
    <glyph glyph-name="uni03A0" unicode="&#x3a0;" horiz-adv-x="682" 
d="M698 690l-109 -690h-203l83 523h-168l-83 -523h-203l109 690h574z" />
    <glyph glyph-name="uni03A1" unicode="&#x3a1;" horiz-adv-x="582" 
d="M601 475q0 -119 -84 -192t-231 -73h-37l-33 -210h-201l109 690h217q260 0 260 -215zM406 469q0 78 -87 78h-19l-30 -194h23q51 0 82 30.5t31 85.5z" />
    <glyph glyph-name="uni03A3" unicode="&#x3a3;" horiz-adv-x="578" 
d="M224 359l-137 184l23 147h505l-25 -159h-264l133 -182l-189 -190h245v-159h-522l22 147z" />
    <glyph glyph-name="uni03A4" unicode="&#x3a4;" horiz-adv-x="595" 
d="M630 522h-188l-82 -522h-203l82 522h-183l28 168h546v-168z" />
    <glyph glyph-name="uni03A5" unicode="&#x3a5;" horiz-adv-x="641" 
d="M724 690l-307 -446l-39 -244h-204l38 240l-156 426l212 31l82 -259l158 252h216z" />
    <glyph glyph-name="uni03A6" unicode="&#x3a6;" horiz-adv-x="872" 
d="M496 -10h-200l12 77q-135 17 -204.5 83.5t-69.5 168.5q0 133 99 216t263 92l11 73h200l-12 -77q135 -17 204.5 -83.5t69.5 -168.5q0 -133 -99 -216t-263 -92zM229 326q0 -102 106 -119l44 276q-70 -10 -110 -54t-40 -103zM674 364q0 103 -107 119l-44 -277q71 10 111 54
t40 104z" />
    <glyph glyph-name="uni03A7" unicode="&#x3a7;" horiz-adv-x="630" 
d="M386 -7l-77 205l-130 -198h-220l259 361l-134 303l213 33l63 -171l105 164h220l-235 -329l149 -335z" />
    <glyph glyph-name="uni03A8" unicode="&#x3a8;" horiz-adv-x="839" 
d="M482 0h-203l26 164q-118 8 -177.5 61.5t-59.5 139.5q0 30 7 75l39 250h196l-40 -254q-5 -30 -5 -46q0 -28 19.5 -44.5t52.5 -16.5l56 361h192l-57 -361q85 6 98 95l42 266h196l-44 -287q-37 -229 -312 -239z" />
    <glyph glyph-name="uni03A9" unicode="&#x3a9;" horiz-adv-x="724" 
d="M323 137l-44 -137h-268l24 154l94 -4q-73 98 -73 209q0 141 100.5 242t257.5 101q146 0 223 -77t77 -196q0 -85 -36 -150t-110 -129l93 4l-25 -154h-269v137l30 32q60 65 88.5 120.5t28.5 128.5q0 59 -28.5 94.5t-84.5 35.5q-67 0 -108.5 -60t-41.5 -149q0 -83 52 -170z
" />
    <glyph glyph-name="uni03AA" unicode="&#x3aa;" horiz-adv-x="315" 
d="M206 737h-129l22 143h131zM392 737h-130l23 143h130zM329 690l-109 -690h-203l109 690h203z" />
    <glyph glyph-name="uni03AB" unicode="&#x3ab;" horiz-adv-x="641" 
d="M364 737h-129l22 143h131zM550 737h-130l23 143h130zM724 690l-307 -446l-39 -244h-204l38 240l-156 426l212 31l82 -259l158 252h216z" />
    <glyph glyph-name="uni03AC" unicode="&#x3ac;" horiz-adv-x="618" 
d="M521 680l-142 -128h-112l52 151zM230 133q23 0 41 22.5t50 93.5q-14 73 -23.5 93t-30.5 20q-28 0 -52 -47t-24 -111q0 -71 39 -71zM472 -7q-48 0 -75 22.5t-41 72.5q-35 -53 -74 -75.5t-93 -22.5q-84 0 -126.5 55t-42.5 151q0 133 70.5 221t180.5 88q109 0 145 -99l44 89
h172l-137 -260l14 -72q4 -18 12 -25.5t24 -7.5q18 0 42 8l-39 -132q-36 -13 -76 -13z" />
    <glyph glyph-name="uni03AD" unicode="&#x3ad;" horiz-adv-x="480" 
d="M485 675l-142 -128h-112l52 151zM418 31q-104 -41 -213 -41q-93 0 -143 37t-50 99q0 91 100 131q-56 25 -56 95q0 69 56 111t159 42q106 0 205 -41l-41 -126q-89 35 -158 35q-61 0 -61 -35q0 -30 52 -30h103v-113h-127q-62 0 -62 -38q0 -33 53 -33q75 0 183 43v-136z" />
    <glyph glyph-name="uni03AE" unicode="&#x3ae;" 
d="M502 675l-142 -128h-112l52 151zM507 396q0 -19 -4 -45l-81 -510l-177 -27l76 483q3 18 3 28q0 26 -26 26q-24 0 -68 -40l-50 -311h-173l59 373v122h164l7 -87q46 45 86.5 71t85.5 26q48 0 73 -29.5t25 -79.5z" />
    <glyph glyph-name="uni03AF" unicode="&#x3af;" horiz-adv-x="305" 
d="M380 675l-142 -128h-112l52 151zM259 12q-52 -19 -103 -19q-65 0 -99 31.5t-34 91.5q0 32 9 85l50 294h173l-53 -314q-4 -22 -4 -33q0 -23 27 -23q15 0 34 6v-119z" />
    <glyph glyph-name="uni03B0" unicode="&#x3b0;" horiz-adv-x="522" 
d="M447 725l-108 -178h-107l50 201zM202 547h-142l23 143h142zM560 547h-142l23 143h142zM472 179q-31 -189 -237 -189q-96 0 -150 44.5t-54 121.5q0 28 8 84l40 255h173l-44 -287q-3 -20 -3 -32q0 -45 41 -45q45 0 56 68l46 296h173z" />
    <glyph glyph-name="uni03B1" unicode="&#x3b1;" horiz-adv-x="618" 
d="M230 133q23 0 41 22.5t50 93.5q-14 73 -23.5 93t-30.5 20q-28 0 -52 -47t-24 -111q0 -71 39 -71zM472 -7q-48 0 -75 22.5t-41 72.5q-35 -53 -74 -75.5t-93 -22.5q-84 0 -126.5 55t-42.5 151q0 133 70.5 221t180.5 88q109 0 145 -99l44 89h172l-137 -260l14 -72
q4 -18 12 -25.5t24 -7.5q18 0 42 8l-39 -132q-36 -13 -76 -13z" />
    <glyph glyph-name="uni03B2" unicode="&#x3b2;" horiz-adv-x="565" 
d="M295 131q31 0 49.5 18.5t18.5 51.5q0 31 -17 53t-52 43v101q45 19 72.5 51.5t27.5 69.5q0 26 -14.5 42.5t-40.5 16.5q-72 0 -91 -126l-44 -282q46 -39 91 -39zM152 -159l-175 -27l103 657q19 121 85 183.5t178 62.5q101 0 159 -55t58 -138q0 -74 -34 -115t-93 -65
q100 -52 100 -160q0 -86 -59 -140t-151 -54q-76 0 -142 39z" />
    <glyph glyph-name="uni03B3" unicode="&#x3b3;" horiz-adv-x="505" 
d="M539 495l-44 -89q-135 -274 -168 -350t-45 -154l-9 -57l-178 -31l9 65q14 85 5.5 178.5t-55.5 341.5l-15 80l181 23l8 -63q21 -170 16 -272q33 108 106 274l24 54h165z" />
    <glyph glyph-name="uni03B4" unicode="&#x3b4;" horiz-adv-x="519" 
d="M495 246q0 -113 -68.5 -184.5t-179.5 -71.5q-108 0 -167.5 60t-59.5 152q0 169 168 243q-49 51 -49 112q0 74 49.5 117t134.5 43q105 0 195 -49l-24 -143q-40 26 -83.5 42t-69.5 16q-39 0 -39 -28q0 -13 10 -25t50 -46q73 -62 103 -114t30 -124zM250 125q32 0 54.5 32
t22.5 85q0 65 -48 112q-89 -48 -89 -146q0 -39 16 -61t44 -22z" />
    <glyph glyph-name="uni03B5" unicode="&#x3b5;" horiz-adv-x="480" 
d="M418 31q-104 -41 -213 -41q-93 0 -143 37t-50 99q0 91 100 131q-56 25 -56 95q0 69 56 111t159 42q106 0 205 -41l-41 -126q-89 35 -158 35q-61 0 -61 -35q0 -30 52 -30h103v-113h-127q-62 0 -62 -38q0 -33 53 -33q75 0 183 43v-136z" />
    <glyph glyph-name="uni03B6" unicode="&#x3b6;" horiz-adv-x="470" 
d="M13 167q0 61 31.5 111t114.5 135l161 166h-215l44 135h363v-115l-237 -269q-33 -37 -46.5 -53.5t-25 -37t-11.5 -35.5q0 -24 19 -36.5t80 -34.5q73 -26 96 -44.5t23 -54.5q0 -41 -28 -91t-91 -129l-148 18q81 126 81 146q0 9 -4.5 13t-17.5 8q-106 33 -147.5 69.5
t-41.5 98.5z" />
    <glyph glyph-name="uni03B7" unicode="&#x3b7;" 
d="M507 396q0 -19 -4 -45l-81 -510l-177 -27l76 483q3 18 3 28q0 26 -26 26q-24 0 -68 -40l-50 -311h-173l59 373v122h164l7 -87q46 45 86.5 71t85.5 26q48 0 73 -29.5t25 -79.5z" />
    <glyph glyph-name="uni03B8" unicode="&#x3b8;" horiz-adv-x="598" 
d="M277 -10q-117 0 -174.5 79t-57.5 228q0 98 31 192.5t86 149.5q78 78 188 78q117 0 174.5 -79t57.5 -228q0 -98 -31 -192.5t-86 -149.5q-78 -78 -188 -78zM278 554q-39 -44 -56 -130h197v10q0 152 -77 152q-35 0 -64 -32zM285 121q35 0 64 32q39 43 57 134h-198v-15
q0 -151 77 -151z" />
    <glyph glyph-name="uni03B9" unicode="&#x3b9;" horiz-adv-x="305" 
d="M259 12q-52 -19 -103 -19q-65 0 -99 31.5t-34 91.5q0 32 9 85l50 294h173l-53 -314q-4 -22 -4 -33q0 -23 27 -23q15 0 34 6v-119z" />
    <glyph glyph-name="uni03BA" unicode="&#x3ba;" horiz-adv-x="516" 
d="M296 -7l-85 227l-33 -220h-173l79 495h173l-34 -205l54 75q58 80 105.5 109t130.5 27v-155q-34 0 -57.5 -15.5t-52.5 -50.5l-27 -34l92 -225z" />
    <glyph glyph-name="uni03BB" unicode="&#x3bb;" horiz-adv-x="514" 
d="M291 -8l-27 278l-116 -270h-169l246 496l2 5l-1 9q-8 64 -67 64q-16 0 -44 -6l21 139q36 9 70 9q85 0 125 -42t57 -149l81 -509z" />
    <glyph glyph-name="uni03BC" unicode="&#x3bc;" horiz-adv-x="577" 
d="M149 -159l-173 -27l108 681h173l-47 -297q-3 -18 -3 -28q0 -26 26 -26q24 0 68 40l50 311h173l-50 -314q-4 -22 -4 -33q0 -23 27 -23q15 0 34 6v-119q-52 -19 -108 -19q-93 0 -119 73q-51 -77 -107 -76q-32 1 -51 24q16 -67 8 -135z" />
    <glyph glyph-name="uni03BD" unicode="&#x3bd;" horiz-adv-x="515" 
d="M328 495h176q7 -142 -41 -246.5t-167 -250.5h-175l-82 481l181 23l35 -316q45 65 61.5 137.5t11.5 171.5z" />
    <glyph glyph-name="uni03BE" unicode="&#x3be;" horiz-adv-x="483" 
d="M420 30q0 -68 -119 -216l-148 18q50 78 65.5 105.5t15.5 39.5q0 6 -1.5 10t-7.5 7.5t-9.5 4.5t-14.5 5q-107 37 -146.5 72t-39.5 101q0 65 42 112.5t122 72.5q-75 29 -75 96q0 76 102 121h-113l45 135h379v-133h-35q-102 0 -153.5 -26t-51.5 -71q0 -62 97 -62h60v-134
h-94q-71 0 -111 -23t-40 -55q0 -23 19.5 -37.5t88.5 -36.5q75 -24 99 -44.5t24 -61.5z" />
    <glyph glyph-name="uni03BF" unicode="&#x3bf;" horiz-adv-x="514" 
d="M490 283q0 -127 -70 -210t-185 -83q-101 0 -156 61.5t-55 160.5q0 127 69.5 210t185.5 83q100 0 155.5 -61t55.5 -161zM319 285q0 83 -47 83q-35 0 -56 -48t-21 -110q0 -83 47 -83q35 0 56 48t21 110z" />
    <glyph glyph-name="uni03C0" unicode="&#x3c0;" horiz-adv-x="613" 
d="M553 9q-50 -16 -100 -16q-129 0 -129 114q0 27 6 68l29 185h-81l-56 -360h-173l56 357h-59v138h578l-22 -138h-71l-27 -176q-3 -18 -3 -30q0 -26 25 -26q14 0 27 3v-119z" />
    <glyph glyph-name="uni03C1" unicode="&#x3c1;" horiz-adv-x="522" 
d="M211 253l-18 -116q12 -6 28 -6q47 0 76 44t29 108q0 72 -46 72q-52 0 -69 -102zM-29 -186l71 448q18 113 79 178t164 65q106 0 159.5 -61.5t53.5 -162.5q0 -123 -69 -203t-185 -80q-38 0 -72 12l-24 -169z" />
    <glyph glyph-name="uni03C2" unicode="&#x3c2;" horiz-adv-x="439" 
d="M162 14q-74 37 -106.5 80.5t-32.5 120.5q0 57 15 107.5t44 92t79 66t115 24.5q89 0 163 -46l-48 -142q-53 38 -98 38q-43 0 -69.5 -35.5t-26.5 -87.5q0 -35 18 -57t66 -48q48 -27 65.5 -46.5t17.5 -50.5q0 -68 -119 -216l-148 18q50 78 66.5 108.5t16.5 47.5q0 16 -18 26
z" />
    <glyph glyph-name="uni03C3" unicode="&#x3c3;" horiz-adv-x="529" 
d="M241 127q36 0 57 42.5t21 104.5q0 55 -13 94q-54 -1 -82.5 -47.5t-28.5 -116.5q0 -77 46 -77zM486 235q0 -94 -70 -169.5t-180 -75.5q-99 0 -155.5 60.5t-56.5 158.5q0 127 75 206.5t203 79.5h219v-138h-68q33 -49 33 -122z" />
    <glyph glyph-name="uni03C4" unicode="&#x3c4;" horiz-adv-x="482" 
d="M467 356h-138l-24 -151q-4 -28 -4 -41q0 -36 36 -36q27 0 68 13v-126q-63 -22 -133 -22q-72 0 -110 34t-38 97q0 26 8 79l25 153h-126l22 139h414v-139z" />
    <glyph glyph-name="uni03C5" unicode="&#x3c5;" horiz-adv-x="522" 
d="M472 179q-31 -189 -237 -189q-96 0 -150 44.5t-54 121.5q0 28 8 84l40 255h173l-44 -287q-3 -20 -3 -32q0 -45 41 -45q45 0 56 68l46 296h173z" />
    <glyph glyph-name="uni03C6" unicode="&#x3c6;" horiz-adv-x="709" 
d="M200 -186l30 179q-97 8 -151 66t-54 156q0 79 29.5 146.5t98.5 142.5l158 -30q-66 -73 -95 -130.5t-29 -117.5q0 -94 68 -102l29 190q14 90 68.5 140.5t143.5 50.5q93 0 145.5 -53.5t52.5 -149.5q0 -136 -83.5 -219t-214.5 -90l-23 -153zM443 308l-30 -185q57 5 90 55
t33 136q0 31 -11.5 47t-29.5 16q-41 0 -52 -69z" />
    <glyph glyph-name="uni03C7" unicode="&#x3c7;" horiz-adv-x="520" 
d="M276 -181l-57 213l-123 -206h-167l223 340l-106 315l184 21l49 -183l103 176h168l-204 -314l114 -341z" />
    <glyph glyph-name="uni03C8" unicode="&#x3c8;" horiz-adv-x="754" 
d="M222 -186l28 179q-109 4 -163 53.5t-54 134.5q0 29 8 82l37 232h170l-38 -245q-5 -33 -5 -50q0 -34 16 -50t53 -17l89 563l172 26l-93 -589q46 2 69 27t31 77l40 258h170l-42 -267q-19 -120 -87.5 -177.5t-200.5 -57.5l-24 -153z" />
    <glyph glyph-name="uni03C9" unicode="&#x3c9;" horiz-adv-x="775" 
d="M522 -10q-105 0 -150 90q-69 -90 -173 -90q-80 0 -127 51.5t-47 145.5q0 148 144 320l158 -39q-127 -171 -127 -271q0 -57 41 -57q53 0 70 100l26 163h161l-25 -158q-5 -30 -5 -49q0 -56 44 -56q29 0 48 32t19 92q0 84 -51 204l162 39q55 -125 55 -229q0 -138 -61 -213
t-162 -75z" />
    <glyph glyph-name="uni03CA" unicode="&#x3ca;" horiz-adv-x="305" 
d="M160 547h-129l22 143h131zM346 547h-130l23 143h130zM259 12q-52 -19 -103 -19q-65 0 -99 31.5t-34 91.5q0 32 9 85l50 294h173l-53 -314q-4 -22 -4 -33q0 -23 27 -23q15 0 34 6v-119z" />
    <glyph glyph-name="uni03CB" unicode="&#x3cb;" horiz-adv-x="522" 
d="M279 547h-129l22 143h131zM465 547h-130l23 143h130zM472 179q-31 -189 -237 -189q-96 0 -150 44.5t-54 121.5q0 28 8 84l40 255h173l-44 -287q-3 -20 -3 -32q0 -45 41 -45q45 0 56 68l46 296h173z" />
    <glyph glyph-name="uni03CC" unicode="&#x3cc;" horiz-adv-x="514" 
d="M493 675l-142 -128h-112l52 151zM490 283q0 -127 -70 -210t-185 -83q-101 0 -156 61.5t-55 160.5q0 127 69.5 210t185.5 83q100 0 155.5 -61t55.5 -161zM319 285q0 83 -47 83q-35 0 -56 -48t-21 -110q0 -83 47 -83q35 0 56 48t21 110z" />
    <glyph glyph-name="uni03CD" unicode="&#x3cd;" horiz-adv-x="522" 
d="M498 675l-142 -128h-112l52 151zM472 179q-31 -189 -237 -189q-96 0 -150 44.5t-54 121.5q0 28 8 84l40 255h173l-44 -287q-3 -20 -3 -32q0 -45 41 -45q45 0 56 68l46 296h173z" />
    <glyph glyph-name="uni03CE" unicode="&#x3ce;" horiz-adv-x="775" 
d="M626 675l-142 -128h-112l52 151zM522 -10q-105 0 -150 90q-69 -90 -173 -90q-80 0 -127 51.5t-47 145.5q0 148 144 320l158 -39q-127 -171 -127 -271q0 -57 41 -57q53 0 70 100l26 163h161l-25 -158q-5 -30 -5 -49q0 -56 44 -56q29 0 48 32t19 92q0 84 -51 204l162 39
q55 -125 55 -229q0 -138 -61 -213t-162 -75z" />
    <glyph glyph-name="uni0400" unicode="&#x400;" 
d="M411 737h-109l-134 118l216 33zM561 690l-24 -161h-238l-15 -95h176v-159h-202l-18 -114h246l-26 -161h-445l109 690h437z" />
    <glyph glyph-name="uni0401" unicode="&#x401;" 
d="M321 737h-129l22 143h131zM507 737h-130l23 143h130zM561 690l-24 -161h-238l-15 -95h176v-159h-202l-18 -114h246l-26 -161h-445l109 690h437z" />
    <glyph glyph-name="uni0402" unicode="&#x402;" horiz-adv-x="765" 
d="M452 -7v145q94 10 94 71q0 55 -78 55q-30 0 -68 -6l-40 -258h-203l82 522h-183l28 168h548v-168h-190l-17 -106q45 7 96 7q100 0 159 -50.5t59 -145.5q0 -114 -75.5 -174.5t-211.5 -59.5z" />
    <glyph glyph-name="uni0403" unicode="&#x403;" horiz-adv-x="501" 
d="M527 855l-157 -118h-106l70 151zM124 690h402v-174h-227l-81 -516h-203z" />
    <glyph glyph-name="uni0404" unicode="&#x404;" horiz-adv-x="585" 
d="M520 26q-81 -37 -179 -37q-142 0 -220 80.5t-78 231.5q0 181 102 291t267 110q118 0 196 -50l-52 -164q-66 47 -136 47q-117 0 -158 -110l197 3v-155l-215 3q9 -120 127 -120q67 0 149 38v-168z" />
    <glyph glyph-name="uni0405" unicode="&#x405;" horiz-adv-x="550" 
d="M557 637l-54 -155q-111 69 -178 69q-28 0 -42.5 -12.5t-14.5 -32.5q0 -18 12 -30.5t49 -31.5q108 -56 149 -103.5t41 -112.5q0 -114 -71 -177t-190 -63q-135 0 -266 73l55 156q120 -78 209 -78q32 0 51.5 15.5t19.5 38.5q0 19 -11.5 31t-43.5 29q-117 60 -157 105.5
t-40 119.5q0 96 68 160t181 64q122 0 233 -65z" />
    <glyph glyph-name="uni0406" unicode="&#x406;" horiz-adv-x="315" 
d="M329 690l-109 -690h-203l109 690h203z" />
    <glyph glyph-name="uni0407" unicode="&#x407;" horiz-adv-x="315" 
d="M206 737h-129l22 143h131zM392 737h-130l23 143h130zM329 690l-109 -690h-203l109 690h203z" />
    <glyph glyph-name="uni0408" unicode="&#x408;" horiz-adv-x="446" 
d="M467 690l-73 -461q-20 -129 -89 -182t-193 -53q-63 0 -111 8v170q47 -9 87 -9q45 0 73 23t37 82l67 422h202z" />
    <glyph glyph-name="uni0409" unicode="&#x409;" horiz-adv-x="1007" 
d="M3 -12v169q72 9 105 52t65 153l94 328h476l-34 -210h15q129 0 196.5 -53.5t67.5 -157.5q0 -126 -87 -197.5t-239 -71.5h-229l83 527h-99l-64 -227q-31 -111 -70.5 -174t-106.5 -98t-173 -40zM791 256q0 81 -89 81h-17l-30 -194h23q50 0 81.5 30.5t31.5 82.5z" />
    <glyph glyph-name="uni040A" unicode="&#x40a;" horiz-adv-x="952" 
d="M736 256q0 81 -89 81h-17l-30 -194h23q50 0 81.5 30.5t31.5 82.5zM218 0h-203l109 690h203l-40 -250h161l39 250h201l-34 -210h15q129 0 196.5 -53.5t67.5 -157.5q0 -126 -87 -197.5t-239 -71.5h-229l42 263h-161z" />
    <glyph glyph-name="uni040B" unicode="&#x40b;" horiz-adv-x="783" 
d="M446 252q-23 0 -47 -3l-39 -249h-203l82 522h-183l28 168h548v-168h-190l-16 -102q33 4 72 4q235 0 235 -192q0 -39 -7 -85l-23 -147h-201l23 148q6 36 6 48q0 29 -19.5 42.5t-65.5 13.5z" />
    <glyph glyph-name="uni040C" unicode="&#x40c;" horiz-adv-x="639" 
d="M611 855l-157 -118h-106l70 151zM705 690l-247 -337l148 -327l-213 -33l-128 314l-47 -307h-203l109 690h203l-48 -290l197 290h229z" />
    <glyph glyph-name="uni040D" unicode="&#x40d;" horiz-adv-x="686" 
d="M481 737h-109l-134 118l216 33zM15 0l109 690h187l-54 -338l244 338h201l-109 -690h-187l58 368l-269 -368h-180z" />
    <glyph glyph-name="uni040E" unicode="&#x40e;" horiz-adv-x="652" 
d="M581 879q-36 -144 -167 -144q-67 0 -100.5 37.5t-32.5 106.5l86 14q8 -55 57 -55q24 0 40 13t32 42zM59 -10v167q117 0 169 49l-147 463l208 28l74 -291l143 284h217l-261 -456q-79 -137 -172 -190.5t-231 -53.5z" />
    <glyph glyph-name="uni040F" unicode="&#x40f;" horiz-adv-x="682" 
d="M373 -140l-196 -21l27 161h-189l109 690h203l-83 -523h168l83 523h203l-109 -690h-193z" />
    <glyph glyph-name="uni0410" unicode="&#x410;" horiz-adv-x="673" 
d="M424 -7l-15 123h-196l-51 -116h-195l341 693h208l114 -666zM368 484l-92 -213h117z" />
    <glyph glyph-name="uni0411" unicode="&#x411;" horiz-adv-x="581" 
d="M124 690h434v-167h-270l-14 -88h29q126 0 189.5 -49t63.5 -139q0 -115 -78.5 -181t-226.5 -66h-236zM364 227q0 64 -84 64h-29l-24 -151h29q50 0 79 23t29 64z" />
    <glyph glyph-name="uni0412" unicode="&#x412;" horiz-adv-x="600" 
d="M590 527q0 -111 -118 -163q96 -44 96 -142q0 -105 -77.5 -163.5t-211.5 -58.5h-264l109 690h237q110 0 169.5 -42.5t59.5 -120.5zM404 494q0 61 -75 61h-34l-21 -139h41q38 0 63.5 21t25.5 57zM375 222q0 70 -90 70h-31l-26 -158h45q44 0 73 24t29 64z" />
    <glyph glyph-name="uni0413" unicode="&#x413;" horiz-adv-x="501" 
d="M124 690h402v-174h-227l-81 -516h-203z" />
    <glyph glyph-name="uni0414" unicode="&#x414;" horiz-adv-x="758" 
d="M-49 -153l48 304q104 102 155.5 184.5t88.5 213.5l39 141h454l-82 -514h80l-50 -316l-196 -21l26 161h-347l-24 -153h-192zM452 167l58 365h-84l-14 -54q-26 -100 -64 -172t-102 -139h206z" />
    <glyph glyph-name="uni0415" unicode="&#x415;" 
d="M561 690l-24 -161h-238l-15 -95h176v-159h-202l-18 -114h246l-26 -161h-445l109 690h437z" />
    <glyph glyph-name="uni0416" unicode="&#x416;" horiz-adv-x="963" 
d="M731 -7l-142 325l-45 -318h-203l55 315l-207 -315h-223l257 370l-144 297l200 30l132 -291l39 284h203l-51 -290l205 290h224l-252 -336l152 -331z" />
    <glyph glyph-name="uni0417" unicode="&#x417;" horiz-adv-x="571" 
d="M251 -13q-139 0 -253 59l50 156q106 -53 193 -53q46 0 74 18t28 51q0 56 -105 56h-85v151h105q119 0 119 66q0 51 -74 51q-85 0 -201 -62v165q106 58 238 58q115 0 174 -45.5t59 -125.5q0 -68 -39.5 -115t-109.5 -70q107 -36 107 -141t-80 -162t-200 -57z" />
    <glyph glyph-name="uni0418" unicode="&#x418;" horiz-adv-x="686" 
d="M15 0l109 690h187l-54 -338l244 338h201l-109 -690h-187l58 368l-269 -368h-180z" />
    <glyph glyph-name="uni0419" unicode="&#x419;" horiz-adv-x="686" 
d="M592 879q-36 -144 -167 -144q-67 0 -100.5 37.5t-32.5 106.5l86 14q8 -55 57 -55q24 0 40 13t32 42zM15 0l109 690h187l-54 -338l244 338h201l-109 -690h-187l58 368l-269 -368h-180z" />
    <glyph glyph-name="uni041A" unicode="&#x41a;" horiz-adv-x="639" 
d="M705 690l-247 -337l148 -327l-213 -33l-128 314l-47 -307h-203l109 690h203l-48 -290l197 290h229z" />
    <glyph glyph-name="uni041B" unicode="&#x41b;" horiz-adv-x="729" 
d="M745 690l-109 -690h-203l84 527h-100l-64 -227q-23 -84 -49 -138t-66.5 -94.5t-97 -59t-137.5 -20.5v169q72 9 105 52t65 153l94 328h478z" />
    <glyph glyph-name="uni041C" unicode="&#x41c;" horiz-adv-x="869" 
d="M851 690l-60 -690h-208l40 408l-153 -411h-189l-21 411l-89 -408h-172l158 690h259l26 -422l162 422h247z" />
    <glyph glyph-name="uni041D" unicode="&#x41d;" horiz-adv-x="683" 
d="M699 690l-109 -690h-203l43 263h-171l-41 -263h-203l109 690h203l-40 -250h171l38 250h203z" />
    <glyph glyph-name="uni041E" unicode="&#x41e;" horiz-adv-x="688" 
d="M328 -13q-134 0 -209.5 78.5t-75.5 224.5q0 95 30.5 180.5t87.5 142.5q90 90 226 90q134 0 209.5 -78.5t75.5 -224.5q0 -95 -30.5 -180.5t-87.5 -142.5q-90 -90 -226 -90zM330 137q34 0 63 29t51 101t22 156q0 130 -81 130q-34 0 -63 -29t-51 -101t-22 -156
q0 -130 81 -130z" />
    <glyph glyph-name="uni041F" unicode="&#x41f;" horiz-adv-x="682" 
d="M698 690l-109 -690h-203l83 523h-168l-83 -523h-203l109 690h574z" />
    <glyph glyph-name="uni0420" unicode="&#x420;" horiz-adv-x="582" 
d="M601 475q0 -119 -84 -192t-231 -73h-37l-33 -210h-201l109 690h217q260 0 260 -215zM406 469q0 78 -87 78h-19l-30 -194h23q51 0 82 30.5t31 85.5z" />
    <glyph glyph-name="uni0421" unicode="&#x421;" horiz-adv-x="565" 
d="M590 652l-52 -167q-63 47 -123 47q-75 0 -122.5 -68.5t-47.5 -161.5q0 -73 33 -110.5t93 -37.5t131 34v-166q-73 -33 -172 -33q-132 0 -211.5 75t-79.5 219q0 190 106.5 304.5t261.5 114.5q101 0 183 -50z" />
    <glyph glyph-name="uni0422" unicode="&#x422;" horiz-adv-x="595" 
d="M630 522h-188l-82 -522h-203l82 522h-183l28 168h546v-168z" />
    <glyph glyph-name="uni0423" unicode="&#x423;" horiz-adv-x="652" 
d="M59 -10v167q117 0 169 49l-147 463l208 28l74 -291l143 284h217l-261 -456q-79 -137 -172 -190.5t-231 -53.5z" />
    <glyph glyph-name="uni0424" unicode="&#x424;" horiz-adv-x="872" 
d="M496 -10h-200l12 77q-135 17 -204.5 83.5t-69.5 168.5q0 133 99 216t263 92l11 73h200l-12 -77q135 -17 204.5 -83.5t69.5 -168.5q0 -133 -99 -216t-263 -92zM229 326q0 -102 106 -119l44 276q-70 -10 -110 -54t-40 -103zM674 364q0 103 -107 119l-44 -277q71 10 111 54
t40 104z" />
    <glyph glyph-name="uni0425" unicode="&#x425;" horiz-adv-x="630" 
d="M386 -7l-77 205l-130 -198h-220l259 361l-134 303l213 33l63 -171l105 164h220l-235 -329l149 -335z" />
    <glyph glyph-name="uni0426" unicode="&#x426;" horiz-adv-x="718" 
d="M449 -161l26 161h-460l109 690h203l-83 -523h166l83 523h203l-81 -514h80l-50 -316z" />
    <glyph glyph-name="uni0427" unicode="&#x427;" horiz-adv-x="641" 
d="M548 0h-203l32 202q-33 -4 -72 -4q-235 0 -235 192q0 39 7 85l34 215h201l-34 -216q-6 -36 -6 -48q0 -29 19.5 -42.5t65.5 -13.5q23 0 47 3l50 317h203z" />
    <glyph glyph-name="uni0428" unicode="&#x428;" horiz-adv-x="981" 
d="M242 166h134l84 524h202l-84 -524h134l83 524h202l-109 -690h-873l109 690h202z" />
    <glyph glyph-name="uni0429" unicode="&#x429;" horiz-adv-x="1019" 
d="M750 -161l26 161h-761l109 690h202l-84 -524h134l84 524h202l-84 -524h134l83 524h202l-81 -514h80l-50 -316z" />
    <glyph glyph-name="uni042A" unicode="&#x42a;" horiz-adv-x="709" 
d="M364 0h-229l82 522h-160l27 168h361l-34 -210h15q129 0 196.5 -53.5t67.5 -157.5q0 -126 -87 -197.5t-239 -71.5zM493 256q0 81 -89 81h-17l-30 -194h23q50 0 81.5 30.5t31.5 82.5z" />
    <glyph glyph-name="uni042B" unicode="&#x42b;" horiz-adv-x="886" 
d="M325 690l-34 -210h15q264 0 264 -216q0 -122 -86 -193t-235 -71h-234l109 690h201zM900 690l-109 -690h-203l109 690h203zM373 259q0 78 -87 78h-19l-30 -194h23q51 0 82 31t31 85z" />
    <glyph glyph-name="uni042C" unicode="&#x42c;" horiz-adv-x="589" 
d="M325 690l-34 -210h15q129 0 196.5 -53.5t67.5 -157.5q0 -126 -87 -197.5t-239 -71.5h-229l109 690h201zM373 256q0 81 -89 81h-17l-30 -194h23q50 0 81.5 30.5t31.5 82.5z" />
    <glyph glyph-name="uni042D" unicode="&#x42d;" horiz-adv-x="585" 
d="M200 -12q-114 0 -203 53l52 164q71 -50 143 -50q122 0 162 120l-202 -3v155l215 -3q-13 110 -131 110q-64 0 -139 -35v168q74 34 174 34q142 0 220 -80.5t78 -231.5q0 -184 -107 -296q-100 -105 -262 -105z" />
    <glyph glyph-name="uni042E" unicode="&#x42e;" horiz-adv-x="969" 
d="M608 -13q-118 0 -189.5 72.5t-78.5 203.5h-81l-41 -263h-203l109 690h203l-40 -250h72q30 108 96 174q89 89 226 89q127 0 199.5 -79.5t72.5 -223.5q0 -95 -30.5 -181.5t-86.5 -142.5q-89 -89 -228 -89zM672 553q-32 0 -57 -25q-30 -30 -52 -104t-22 -160q0 -127 76 -127
q32 0 57 25q30 30 52 104t22 160q0 127 -76 127z" />
    <glyph glyph-name="uni042F" unicode="&#x42f;" horiz-adv-x="625" 
d="M269 435q0 -79 92 -79h31l29 185h-28q-56 0 -90 -26.5t-34 -79.5zM369 214h-29l-160 -221l-207 33l191 240q-89 53 -89 166q0 123 86 190.5t241 67.5h239l-109 -690h-199z" />
    <glyph glyph-name="uni0430" unicode="&#x430;" horiz-adv-x="525" 
d="M295 178l30 185q-12 4 -21 4q-43 0 -75.5 -45.5t-32.5 -115.5q0 -63 38 -63q26 0 61 35zM288 74q-70 -84 -139 -84q-59 0 -93.5 46t-34.5 126q0 164 87.5 251.5t213.5 87.5q95 0 190 -37l-55 -342v-122h-164z" />
    <glyph glyph-name="uni0431" unicode="&#x431;" horiz-adv-x="529" 
d="M237 -10q-103 0 -150.5 64t-47.5 193q0 115 29 216.5t77 149.5q39 39 81.5 55t128.5 31l135 23l22 -146l-150 -25q-63 -10 -91 -38q-21 -21 -34 -61q67 40 136 40q132 0 132 -175q0 -145 -73.5 -236t-194.5 -91zM251 127q35 0 57 49.5t22 111.5q0 66 -39 66
q-32 0 -78 -26q-4 -43 -4 -103q0 -53 10 -75.5t32 -22.5z" />
    <glyph glyph-name="uni0432" unicode="&#x432;" horiz-adv-x="505" 
d="M228 -10q-106 0 -222 32l74 458q113 26 208 25q94 -1 146.5 -35.5t53.5 -95.5q1 -46 -25.5 -79.5t-68.5 -48.5q76 -29 76 -103q0 -68 -65.5 -110.5t-176.5 -42.5zM260 293q34 0 54 14.5t20 42.5q0 44 -60 44q-25 0 -52 -6l-15 -95h53zM230 102q35 0 57 15t22 42
q0 46 -65 46h-51l-16 -98q25 -5 53 -5z" />
    <glyph glyph-name="uni0433" unicode="&#x433;" horiz-adv-x="436" 
d="M79 457q91 48 190 48q80 0 120.5 -36t40.5 -99q0 -70 -41.5 -110.5t-129.5 -73.5q-58 -22 -73.5 -32.5t-15.5 -23.5q0 -18 33 -18q66 0 177 59v-128q-100 -53 -207 -53q-171 0 -171 135q0 62 39 101t126 75q62 26 78.5 37t16.5 26q0 19 -28 19q-48 0 -155 -52v126z" />
    <glyph glyph-name="uni0434" unicode="&#x434;" horiz-adv-x="521" 
d="M217 -10q-94 0 -143.5 57.5t-49.5 148.5q0 130 67.5 214t174.5 84q42 0 78 -12v11q0 50 -17 72.5t-64 22.5q-32 0 -71 -13l33 131q36 11 81 11q112 0 158.5 -57t46.5 -184q0 -133 -31 -243.5t-94 -173.5q-69 -69 -169 -69zM232 126q19 0 36 17q49 49 68 215q-21 8 -47 8
q-48 0 -73 -55.5t-25 -119.5q0 -65 41 -65z" />
    <glyph glyph-name="uni0435" unicode="&#x435;" horiz-adv-x="488" 
d="M267 394q-28 0 -49 -26.5t-31 -69.5h126q14 96 -46 96zM429 33q-96 -43 -187 -43q-98 0 -159.5 53.5t-61.5 155.5q0 132 75.5 219t189.5 87q86 0 133 -54t47 -145q0 -53 -14 -104h-272q4 -49 27.5 -70.5t69.5 -21.5q67 0 152 37v-114z" />
    <glyph glyph-name="uni0436" unicode="&#x436;" horiz-adv-x="754" 
d="M545 -7l-92 221l-31 -214h-172l38 211l-141 -211h-181l182 265l-100 212l169 25l86 -203l28 196h172l-35 -190l136 190h181l-179 -244l109 -233z" />
    <glyph glyph-name="uni0437" unicode="&#x437;" horiz-adv-x="475" 
d="M209 -10q-109 0 -214 51l41 127q94 -45 167 -45q64 0 64 39q0 33 -52 33h-90v113h88q72 0 72 38q0 28 -47 28q-67 0 -168 -33v132q98 32 199 32q95 0 142.5 -33.5t47.5 -93.5q0 -90 -99 -127q75 -28 75 -105q0 -74 -58 -115t-168 -41z" />
    <glyph glyph-name="uni0438" unicode="&#x438;" 
d="M24 99q0 19 4 45l56 351h173l-47 -297q-3 -18 -3 -28q0 -26 26 -26q24 0 68 40l50 311h173l-59 -373v-122h-164l-7 87q-46 -45 -86.5 -71t-85.5 -26q-48 0 -73 29.5t-25 79.5z" />
    <glyph glyph-name="uni0439" unicode="&#x439;" 
d="M485 684q-36 -144 -167 -144q-67 0 -100.5 37.5t-32.5 106.5l86 14q8 -55 57 -55q24 0 40 13t32 42zM24 99q0 19 4 45l56 351h173l-47 -297q-3 -18 -3 -28q0 -26 26 -26q24 0 68 40l50 311h173l-59 -373v-122h-164l-7 87q-46 -45 -86.5 -71t-85.5 -26q-48 0 -73 29.5
t-25 79.5z" />
    <glyph glyph-name="uni043A" unicode="&#x43a;" horiz-adv-x="508" 
d="M296 -7l-86 222l-32 -215h-173l79 495h173l-34 -202l130 202h188l-170 -246l97 -227z" />
    <glyph glyph-name="uni043B" unicode="&#x43b;" horiz-adv-x="587" 
d="M-6 -11v136q49 4 71 24t43 73l36 89q40 100 95.5 147t160.5 47q85 0 179 -34l-75 -471h-173l58 362q-6 2 -12 2q-22 0 -36.5 -15t-31.5 -56l-49 -123q-42 -106 -97.5 -143.5t-168.5 -37.5z" />
    <glyph glyph-name="uni043C" unicode="&#x43c;" horiz-adv-x="741" 
d="M669 0h-169l41 346l-132 -346h-178l-24 346l-68 -346h-146l108 495h243l18 -290l110 290h246z" />
    <glyph glyph-name="uni043D" unicode="&#x43d;" horiz-adv-x="534" 
d="M277 0l29 183h-99l-29 -183h-173l79 495h173l-27 -173h99l27 173h173l-79 -495h-173z" />
    <glyph glyph-name="uni043E" unicode="&#x43e;" horiz-adv-x="514" 
d="M490 283q0 -127 -70 -210t-185 -83q-101 0 -156 61.5t-55 160.5q0 127 69.5 210t185.5 83q100 0 155.5 -61t55.5 -161zM319 285q0 83 -47 83q-35 0 -56 -48t-21 -110q0 -83 47 -83q35 0 56 48t21 110z" />
    <glyph glyph-name="uni043F" unicode="&#x43f;" 
d="M507 396q0 -19 -4 -45l-56 -351h-173l47 297q3 18 3 28q0 26 -26 26q-24 0 -68 -40l-50 -311h-173l59 373v122h164l7 -87q46 45 86.5 71t85.5 26q48 0 73 -29.5t25 -79.5z" />
    <glyph glyph-name="uni0440" unicode="&#x440;" horiz-adv-x="525" 
d="M199 132q12 -4 26 -4q45 0 74.5 43t29.5 121q0 60 -41 60q-24 0 -59 -35zM-22 -186l88 559v122h164l6 -74q40 43 71.5 63.5t67.5 20.5q60 0 94.5 -47.5t34.5 -131.5q0 -157 -79.5 -243t-195.5 -86q-21 0 -51 5l-23 -161z" />
    <glyph glyph-name="uni0441" unicode="&#x441;" horiz-adv-x="420" 
d="M428 472l-42 -140q-40 23 -78 23q-51 0 -81 -39t-30 -96q0 -86 84 -86q31 0 82 19v-137q-58 -25 -124 -25q-103 0 -160 56.5t-57 157.5q0 130 74.5 215t195.5 85q78 0 136 -33z" />
    <glyph glyph-name="uni0442" unicode="&#x442;" horiz-adv-x="790" 
d="M229 310l-49 -310h-173l59 373v122h166l5 -87q99 97 170 97q46 0 69.5 -26.5t25.5 -68.5q97 95 168 95q47 0 71.5 -29.5t24.5 -80.5q0 -18 -4 -44l-56 -351h-173l48 297q3 24 3 28q0 26 -24 26q-28 0 -67 -41l-50 -310h-173l47 297q3 24 3 28q0 26 -24 26q-28 0 -67 -41z
" />
    <glyph glyph-name="uni0443" unicode="&#x443;" horiz-adv-x="497" 
d="M52 -182q-42 0 -66 7v139q29 -8 62 -8q51 0 80 43l-86 480l181 23l29 -280l113 273h165l-236 -493q-51 -106 -100.5 -145t-141.5 -39z" />
    <glyph glyph-name="uni0444" unicode="&#x444;" horiz-adv-x="741" 
d="M234 134q17 0 41 18l33 208q-9 4 -24 4q-36 0 -63.5 -42.5t-27.5 -114.5q0 -73 41 -73zM457 131q36 0 63.5 42.5t27.5 114.5q0 73 -41 73q-14 0 -36 -14l-34 -214q12 -2 20 -2zM219 -182q-34 0 -54 4v123q12 -3 25 -3q48 0 56 53l6 40q-53 -45 -104 -45q-55 0 -91 50.5
t-36 148.5q0 132 65 222t151 90q49 0 85 -31l13 78q13 80 56.5 124.5t133.5 44.5q54 0 92 -8v-130q-29 7 -51 7q-54 0 -63 -59l-10 -63q51 41 100 41q55 0 91 -50.5t36 -148.5q0 -132 -65 -222t-151 -90q-45 0 -80 26l-2 -15q-14 -100 -61 -143.5t-142 -43.5z" />
    <glyph glyph-name="uni0445" unicode="&#x445;" horiz-adv-x="493" 
d="M279 -7l-51 138l-81 -131h-180l178 252l-94 229l169 21l44 -128l74 121h180l-171 -242l101 -239z" />
    <glyph glyph-name="uni0446" unicode="&#x446;" horiz-adv-x="555" 
d="M327 -150l24 150h-70l14 87q-99 -97 -173 -97q-48 0 -73 29.5t-25 79.5q0 19 4 45l56 351h173l-47 -297q-3 -18 -3 -28q0 -26 26 -26q24 0 68 40l50 311h173l-55 -352h63l-44 -274z" />
    <glyph glyph-name="uni0447" unicode="&#x447;" horiz-adv-x="517" 
d="M433 0h-173l21 127q-29 -3 -60 -3q-83 0 -131 38t-48 113q0 38 6 75l24 145h173l-23 -144q-4 -24 -4 -37q0 -42 56 -42q10 0 30 2l35 221h173z" />
    <glyph glyph-name="uni0448" unicode="&#x448;" horiz-adv-x="790" 
d="M553 87q-99 -97 -170 -97q-46 0 -69.5 26.5t-25.5 68.5q-97 -95 -168 -95q-47 0 -71.5 29.5t-24.5 80.5q0 18 4 44l56 351h173l-48 -297q-3 -24 -3 -28q0 -26 24 -26q28 0 67 41l50 310h173l-47 -297q-3 -24 -3 -28q0 -26 24 -26q28 0 67 41l49 310h173l-59 -373v-122
h-166z" />
    <glyph glyph-name="uni0449" unicode="&#x449;" horiz-adv-x="814" 
d="M586 -150l24 150h-70l14 87q-99 -97 -171 -97q-46 0 -69.5 26.5t-25.5 68.5q-97 -95 -168 -95q-47 0 -71.5 29.5t-24.5 80.5q0 18 4 44l56 351h173l-48 -297q-3 -24 -3 -28q0 -26 24 -26q28 0 67 41l50 310h173l-47 -297q-3 -24 -3 -28q0 -26 24 -26q28 0 67 41l49 310
h173l-55 -352h63l-44 -274z" />
    <glyph glyph-name="uni044A" unicode="&#x44a;" horiz-adv-x="570" 
d="M278 -10q-101 0 -191 33l53 331h-111l22 141h284l-21 -136q27 3 54 3q81 0 130 -41.5t49 -111.5q0 -103 -72 -161t-197 -58zM383 192q0 58 -61 58q-15 0 -27 -2l-23 -140q9 -3 23 -3q42 0 65 25t23 62z" />
    <glyph glyph-name="uni044B" unicode="&#x44b;" horiz-adv-x="750" 
d="M743 495l-81 -495h-173l81 495h173zM9 23l75 472h173l-21 -136q27 3 54 3q81 0 130 -41.5t49 -111.5q0 -103 -72 -161t-197 -58q-101 0 -191 33zM305 192q0 58 -61 58q-15 0 -27 -2l-23 -140q9 -3 23 -3q42 0 65 25t23 62z" />
    <glyph glyph-name="uni044C" unicode="&#x44c;" horiz-adv-x="490" 
d="M7 23l75 472h173l-21 -136q27 3 54 3q81 0 130 -41.5t49 -111.5q0 -103 -72 -161t-197 -58q-101 0 -191 33zM303 192q0 58 -61 58q-15 0 -27 -2l-23 -140q9 -3 23 -3q42 0 65 25t23 62z" />
    <glyph glyph-name="uni044D" unicode="&#x44d;" horiz-adv-x="462" 
d="M152 -10q-83 0 -156 38l42 123q60 -29 105 -29q92 0 120 71l-168 -2v112l177 -2q-10 72 -92 72q-51 0 -115 -32v130q68 34 150 34q103 0 163.5 -56.5t60.5 -166.5q0 -134 -76.5 -213t-210.5 -79z" />
    <glyph glyph-name="uni044E" unicode="&#x44e;" horiz-adv-x="748" 
d="M472 -10q-92 0 -145.5 52.5t-61.5 140.5h-58l-29 -183h-173l79 495h173l-27 -173h50q25 84 87 133.5t149 49.5q99 0 153.5 -61t54.5 -161q0 -126 -69 -209.5t-183 -83.5zM553 285q0 83 -47 83q-35 0 -56 -48t-21 -110q0 -83 47 -83q35 0 56 48t21 110z" />
    <glyph glyph-name="uni044F" unicode="&#x44f;" horiz-adv-x="526" 
d="M315 251l21 133q-6 2 -19 2q-44 0 -69 -21.5t-25 -54.5q0 -59 66 -59h26zM295 140h-26l-122 -149l-174 28l144 167q-58 44 -58 119q0 91 67 145.5t193 54.5q110 0 200 -33l-75 -472h-171z" />
    <glyph glyph-name="uni0450" unicode="&#x450;" horiz-adv-x="488" 
d="M354 547h-109l-134 118l216 33zM267 394q-28 0 -49 -26.5t-31 -69.5h126q14 96 -46 96zM429 33q-96 -43 -187 -43q-98 0 -159.5 53.5t-61.5 155.5q0 132 75.5 219t189.5 87q86 0 133 -54t47 -145q0 -53 -14 -104h-272q4 -49 27.5 -70.5t69.5 -21.5q67 0 152 37v-114z" />
    <glyph glyph-name="uni0451" unicode="&#x451;" horiz-adv-x="488" 
d="M265 547h-129l22 143h131zM451 547h-130l23 143h130zM267 394q-28 0 -49 -26.5t-31 -69.5h126q14 96 -46 96zM429 33q-96 -43 -187 -43q-98 0 -159.5 53.5t-61.5 155.5q0 132 75.5 219t189.5 87q86 0 133 -54t47 -145q0 -53 -14 -104h-272q4 -49 27.5 -70.5t69.5 -21.5
q67 0 152 37v-114z" />
    <glyph glyph-name="uni0452" unicode="&#x452;" horiz-adv-x="516" 
d="M490 261q0 -95 -40.5 -201t-123.5 -246l-163 27q80 149 115 238.5t35 151.5q0 28 -13 40t-41 12q-20 0 -38 -3l-43 -280h-173l81 508h-52v123h72l10 64l177 27l-15 -91h126l-19 -123h-127l-13 -81q24 4 59 4q186 0 186 -170z" />
    <glyph glyph-name="uni0453" unicode="&#x453;" horiz-adv-x="436" 
d="M466 665l-157 -118h-106l70 151zM79 457q91 48 190 48q80 0 120.5 -36t40.5 -99q0 -70 -41.5 -110.5t-129.5 -73.5q-58 -22 -73.5 -32.5t-15.5 -23.5q0 -18 33 -18q66 0 177 59v-128q-100 -53 -207 -53q-171 0 -171 135q0 62 39 101t126 75q62 26 78.5 37t16.5 26
q0 19 -28 19q-48 0 -155 -52v126z" />
    <glyph glyph-name="uni0454" unicode="&#x454;" horiz-adv-x="462" 
d="M399 25q-73 -35 -152 -35q-103 0 -163.5 56.5t-60.5 166.5q0 134 76.5 213t210.5 79q88 0 154 -37l-42 -123q-53 28 -103 28q-92 0 -120 -71l168 2v-112l-177 2q10 -72 92 -72q51 0 117 33v-130z" />
    <glyph glyph-name="uni0455" unicode="&#x455;" horiz-adv-x="435" 
d="M420 460l-33 -124q-92 47 -155 47q-31 0 -31 -22q0 -10 6.5 -16.5t28.5 -16.5q93 -43 128.5 -77t35.5 -95q0 -72 -51 -119t-144 -47q-112 0 -215 57l36 125q99 -60 180 -60q40 0 40 25q0 11 -9.5 19t-35.5 20q-87 40 -120.5 73t-33.5 91q0 74 51 119.5t135 45.5
q95 0 187 -45z" />
    <glyph glyph-name="uni0456" unicode="&#x456;" horiz-adv-x="272" 
d="M298 638q0 -42 -28 -67t-71 -25q-42 0 -70.5 25t-28.5 67t28.5 67.5t70.5 25.5q43 0 71 -25t28 -68zM263 495l-81 -495h-173l81 495h173z" />
    <glyph glyph-name="uni0457" unicode="&#x457;" horiz-adv-x="272" 
d="M155 547h-129l22 143h131zM341 547h-130l23 143h130zM263 495l-81 -495h-173l81 495h173z" />
    <glyph glyph-name="uni0458" unicode="&#x458;" horiz-adv-x="272" 
d="M298 638q0 -42 -28.5 -67t-70.5 -25q-43 0 -71 25t-28 67q0 43 28 68t71 25q42 0 70.5 -25.5t28.5 -67.5zM262 495l-76 -482q-17 -107 -64 -151t-138 -44q-54 0 -71 5v145q15 -4 38 -4q30 0 44.5 16.5t20.5 54.5l73 460h173z" />
    <glyph glyph-name="uni0459" unicode="&#x459;" horiz-adv-x="818" 
d="M-6 -11v136q49 4 71 24t43 73l36 89q40 100 95.5 147t160.5 47q85 0 179 -34l-18 -112q25 3 55 3q81 0 130 -41.5t49 -111.5q0 -103 -72 -161t-197 -58q-101 0 -191 33l54 339q-6 2 -12 2q-22 0 -36.5 -15t-31.5 -56l-49 -123q-42 -106 -97.5 -143.5t-168.5 -37.5z
M631 192q0 58 -61 58q-7 0 -27 -2l-22 -141q6 -2 22 -2q42 0 65 25t23 62z" />
    <glyph glyph-name="uni045A" unicode="&#x45a;" horiz-adv-x="764" 
d="M472 -10q-101 0 -191 33l25 160h-99l-29 -183h-173l79 495h173l-27 -173h99l27 173h173l-21 -136q27 3 54 3q81 0 130 -41.5t49 -111.5q0 -103 -72 -161t-197 -58zM489 248l-23 -140q9 -3 23 -3q42 0 65 25t23 62q0 58 -61 58q-15 0 -27 -2z" />
    <glyph glyph-name="uni045B" unicode="&#x45b;" horiz-adv-x="520" 
d="M252 283q-11 0 -31 -2l-43 -281h-173l81 508h-52v123h72l10 64l177 27l-15 -91h126l-19 -123h-127l-12 -79q38 2 59 2q83 0 131 -38t48 -113q0 -38 -6 -75l-33 -205h-173l32 204q4 24 4 37q0 42 -56 42z" />
    <glyph glyph-name="uni045C" unicode="&#x45c;" horiz-adv-x="508" 
d="M513 665l-157 -118h-106l70 151zM296 -7l-86 222l-32 -215h-173l79 495h173l-34 -202l130 202h188l-170 -246l97 -227z" />
    <glyph glyph-name="uni045D" unicode="&#x45d;" 
d="M371 547h-109l-134 118l216 33zM24 99q0 19 4 45l56 351h173l-47 -297q-3 -18 -3 -28q0 -26 26 -26q24 0 68 40l50 311h173l-59 -373v-122h-164l-7 87q-46 -45 -86.5 -71t-85.5 -26q-48 0 -73 29.5t-25 79.5z" />
    <glyph glyph-name="uni045E" unicode="&#x45e;" horiz-adv-x="497" 
d="M472 689q-36 -144 -167 -144q-67 0 -100.5 37.5t-32.5 106.5l86 14q8 -55 57 -55q24 0 40 13t32 42zM52 -182q-42 0 -66 7v139q29 -8 62 -8q51 0 80 43l-86 480l181 23l29 -280l113 273h165l-236 -493q-51 -106 -100.5 -145t-141.5 -39z" />
    <glyph glyph-name="uni045F" unicode="&#x45f;" 
d="M24 99q0 19 4 45l56 351h173l-47 -297q-3 -18 -3 -28q0 -26 26 -26q24 0 68 40l50 311h173l-59 -373v-122h-164l-7 87q-46 -45 -86.5 -71t-85.5 -26q-48 0 -73 29.5t-25 79.5zM108 -186l46 150h125l-11 -131z" />
    <glyph glyph-name="uni0462" unicode="&#x462;" horiz-adv-x="723" 
d="M400 0h-265l76 479h-158l22 139h158l13 82h201l-13 -82h171v-137h-193l-11 -70h51q115 0 176 -46t61 -136q0 -108 -77 -168.5t-212 -60.5zM495 216q0 55 -66 55h-52l-20 -128h57q36 0 58.5 20t22.5 53z" />
    <glyph glyph-name="uni0463" unicode="&#x463;" horiz-adv-x="761" 
d="M409 505q48 0 73 -29.5t25 -79.5v-5q0 -8 -3 -32q26 3 55 3q81 0 130 -41.5t49 -111.5q0 -103 -72 -161t-197 -58q-101 0 -191 33l43 274q3 18 3 28q0 26 -26 26q-24 0 -68 -40l-50 -311h-173l59 373v122h164l7 -87q46 45 86.5 71t85.5 26zM513 250q-7 0 -27 -2l-22 -141
q6 -2 22 -2q42 0 65 25t23 62q0 58 -61 58z" />
    <glyph glyph-name="uni0472" unicode="&#x472;" horiz-adv-x="688" 
d="M328 -13q-134 0 -209.5 78.5t-75.5 224.5q0 95 30.5 180.5t87.5 142.5q90 90 226 90q134 0 209.5 -78.5t75.5 -224.5q0 -95 -30.5 -180.5t-87.5 -142.5q-90 -90 -226 -90zM306 526q-35 -35 -56 -105h234q-1 140 -97 140q-46 0 -81 -35zM328 129q46 0 81 35q37 37 57 108
h-235v-1q0 -142 97 -142z" />
    <glyph glyph-name="uni0473" unicode="&#x473;" horiz-adv-x="514" 
d="M490 283q0 -127 -70 -210t-185 -83q-101 0 -156 61.5t-55 160.5q0 127 69.5 210t185.5 83q100 0 155.5 -61t55.5 -161zM272 388q-30 0 -52.5 -26.5t-33.5 -68.5h153q-3 95 -67 95zM242 107q29 0 51 25t34 66h-152q4 -91 67 -91z" />
    <glyph glyph-name="uni0474" unicode="&#x474;" horiz-adv-x="673" 
d="M715 529q-46 -7 -72.5 -32.5t-58.5 -90.5l-202 -409h-195l-114 666l214 34l51 -443l89 216q37 89 69 135.5t84.5 72t134.5 25.5v-174z" />
    <glyph glyph-name="uni0475" unicode="&#x475;" horiz-adv-x="498" 
d="M283 -2h-162l-82 481l181 23l26 -280l49 118q41 99 83.5 132.5t134.5 31.5v-149q-38 -4 -56.5 -19t-38.5 -56z" />
    <glyph glyph-name="uni0490" unicode="&#x490;" horiz-adv-x="529" 
d="M543 516h-244l-81 -516h-203l109 690h265l22 122h181z" />
    <glyph glyph-name="uni0491" unicode="&#x491;" horiz-adv-x="415" 
d="M414 350h-181l-55 -350h-173l79 495h199l19 122h157z" />
    <glyph glyph-name="uni0492" unicode="&#x492;" horiz-adv-x="536" 
d="M407 273h-111l-43 -273h-203l43 273h-68v72h80l54 345h402v-174h-227l-27 -171h112z" />
    <glyph glyph-name="uni0493" unicode="&#x493;" horiz-adv-x="429" 
d="M334 169h-99l-27 -169h-173l27 169h-61v67h72l41 259h322v-145h-172l-18 -114h99z" />
    <glyph glyph-name="uni0496" unicode="&#x496;" horiz-adv-x="1007" 
d="M748 -161l27 161h-47l-139 318l-45 -318h-203l55 315l-207 -315h-223l257 370l-144 297l200 30l132 -291l39 284h203l-51 -290l205 290h224l-252 -336l82 -178h131l-50 -316z" />
    <glyph glyph-name="uni0497" unicode="&#x497;" horiz-adv-x="778" 
d="M555 -150l24 150h-37l-89 214l-31 -214h-172l38 211l-141 -211h-181l182 265l-100 212l169 25l86 -203l28 196h172l-35 -190l136 190h181l-179 -244l50 -108h104l-44 -274z" />
    <glyph glyph-name="uni0498" unicode="&#x498;" horiz-adv-x="571" 
d="M105 -161l35 158q-75 14 -142 49l50 156q106 -53 193 -53q46 0 74 18t28 51q0 56 -105 56h-85v151h105q119 0 119 66q0 51 -74 51q-85 0 -201 -62v165q106 58 238 58q115 0 174 -45.5t59 -125.5q0 -68 -39.5 -115t-109.5 -70q107 -36 107 -141q0 -89 -58 -143.5
t-152 -70.5l-20 -132z" />
    <glyph glyph-name="uni0499" unicode="&#x499;" horiz-adv-x="475" 
d="M90 -150l31 148q-65 13 -126 43l41 127q94 -45 167 -45q64 0 64 39q0 33 -52 33h-90v113h88q72 0 72 38q0 28 -47 28q-67 0 -168 -33v132q98 32 199 32q95 0 142.5 -33.5t47.5 -93.5q0 -90 -99 -127q75 -28 75 -105q0 -62 -41.5 -101.5t-120.5 -50.5l-15 -125z" />
    <glyph glyph-name="uni049A" unicode="&#x49a;" horiz-adv-x="668" 
d="M409 -161l27 161h-46l-125 307l-47 -307h-203l109 690h203l-48 -290l197 290h229l-247 -337l80 -177h115l-50 -316z" />
    <glyph glyph-name="uni049B" unicode="&#x49b;" horiz-adv-x="532" 
d="M309 -150l24 150h-40l-83 215l-32 -215h-173l79 495h173l-34 -202l130 202h188l-170 -246l45 -106h98l-44 -274z" />
    <glyph glyph-name="uni049C" unicode="&#x49c;" horiz-adv-x="706" 
d="M469 -7l-92 269l-23 -146h-65l24 153h-57l-41 -269h-200l109 690h200l-40 -248h56l25 156h65l-22 -136l144 228h227l-235 -337l130 -329z" />
    <glyph glyph-name="uni049D" unicode="&#x49d;" horiz-adv-x="578" 
d="M362 -7l-59 191l-17 -109h-60l17 108h-40l-29 -183h-169l79 495h169l-27 -169h39l18 108h60l-16 -100l97 161h186l-158 -240l83 -238z" />
    <glyph glyph-name="uni04A0" unicode="&#x4a0;" horiz-adv-x="759" 
d="M513 -7l-128 314l-47 -307h-203l82 522h-160l27 168h363l-48 -290l197 290h229l-247 -337l148 -327z" />
    <glyph glyph-name="uni04A1" unicode="&#x4a1;" horiz-adv-x="588" 
d="M376 -7l-86 222l-32 -215h-173l56 354h-112l22 141h286l-34 -202l130 202h188l-170 -246l97 -227z" />
    <glyph glyph-name="uni04A2" unicode="&#x4a2;" horiz-adv-x="714" 
d="M452 -161l26 161h-91l43 263h-171l-41 -263h-203l109 690h203l-40 -250h171l38 250h203l-81 -514h80l-50 -316z" />
    <glyph glyph-name="uni04A3" unicode="&#x4a3;" horiz-adv-x="559" 
d="M331 -150l24 150h-78l29 183h-99l-29 -183h-173l79 495h173l-27 -173h99l27 173h173l-56 -352h63l-44 -274z" />
    <glyph glyph-name="uni04A4" unicode="&#x4a4;" horiz-adv-x="853" 
d="M218 0h-203l109 690h203l-40 -250h160l39 250h392v-174h-217l-81 -516h-203l42 263h-160z" />
    <glyph glyph-name="uni04A5" unicode="&#x4a5;" horiz-adv-x="673" 
d="M277 0l29 183h-99l-29 -183h-173l79 495h173l-27 -173h99l27 173h321v-145h-171l-56 -350h-173z" />
    <glyph glyph-name="uni04AA" unicode="&#x4aa;" horiz-adv-x="565" 
d="M351 -140l-196 -21l39 175q-155 67 -155 269q0 190 106.5 304.5t261.5 114.5q101 0 183 -50l-52 -167q-63 47 -123 47q-75 0 -122.5 -68.5t-47.5 -161.5q0 -73 33 -110.5t93 -37.5t131 34v-166q-58 -26 -132 -31z" />
    <glyph glyph-name="uni04AB" unicode="&#x4ab;" horiz-adv-x="420" 
d="M259 -131l-168 -19l34 165q-103 51 -103 190q0 130 74.5 215t195.5 85q78 0 136 -33l-42 -140q-40 23 -78 23q-51 0 -81 -39t-30 -96q0 -86 84 -86q31 0 82 19v-137q-40 -17 -89 -23z" />
    <glyph glyph-name="uni04AE" unicode="&#x4ae;" horiz-adv-x="641" 
d="M724 690l-307 -446l-39 -244h-204l38 240l-156 426l212 31l82 -259l158 252h216z" />
    <glyph glyph-name="uni04AF" unicode="&#x4af;" horiz-adv-x="505" 
d="M539 495l-239 -479l-27 -171l-178 -31l31 198l-87 467l181 23l34 -280l120 273h165z" />
    <glyph glyph-name="uni04B0" unicode="&#x4b0;" horiz-adv-x="641" 
d="M529 141h-128l-23 -141h-204l22 141h-120l11 66h120l5 33l-156 426l212 31l82 -259l158 252h216l-307 -446l-6 -37h118v-66z" />
    <glyph glyph-name="uni04B1" unicode="&#x4b1;" horiz-adv-x="505" 
d="M273 -155l-178 -31l21 136h-109l10 67h108l-86 462l181 23l34 -280l120 273h165l-239 -478h104v-67h-114z" />
    <glyph glyph-name="uni04B2" unicode="&#x4b2;" horiz-adv-x="666" 
d="M407 -161l27 161h-50l-75 199l-130 -199h-220l259 361l-134 303l213 33l63 -171l105 164h220l-235 -329l82 -185h119l-50 -316z" />
    <glyph glyph-name="uni04B3" unicode="&#x4b3;" horiz-adv-x="521" 
d="M298 -150l24 150h-45l-48 131l-82 -131h-180l178 252l-94 229l169 21l44 -128l74 121h180l-171 -242l47 -110h109l-44 -274z" />
    <glyph glyph-name="uni04B6" unicode="&#x4b6;" horiz-adv-x="679" 
d="M395 -161l26 161h-76l32 202q-33 -4 -72 -4q-235 0 -235 192q0 39 7 85l34 215h201l-34 -216q-6 -36 -6 -48q0 -29 19.5 -42.5t65.5 -13.5q23 0 47 3l50 317h203l-81 -514h65l-50 -316z" />
    <glyph glyph-name="uni04B7" unicode="&#x4b7;" horiz-adv-x="544" 
d="M316 -150l24 150h-80l21 127q-29 -3 -60 -3q-83 0 -131 38t-48 113q0 38 6 75l24 145h173l-23 -144q-4 -24 -4 -37q0 -42 56 -42q10 0 30 2l35 221h173l-56 -352h65l-44 -274z" />
    <glyph glyph-name="uni04B8" unicode="&#x4b8;" horiz-adv-x="656" 
d="M563 0h-203l32 202q-17 -2 -49 -4l-21 -133h-65l21 134q-208 10 -208 191q0 39 7 85l34 215h201l-34 -216q-6 -36 -6 -48q0 -40 37 -51l24 152h59l-24 -157h4q23 0 47 3l50 317h203z" />
    <glyph glyph-name="uni04B9" unicode="&#x4b9;" horiz-adv-x="557" 
d="M473 0h-173l21 127l-39 -3l-15 -92h-60l15 92h-1q-83 0 -131 38t-48 113q0 38 6 75l24 145h173l-23 -144q-4 -24 -4 -37q0 -33 31 -39l19 122h57l-20 -125h9q10 0 30 2l35 221h173z" />
    <glyph glyph-name="uni04BA" unicode="&#x4ba;" horiz-adv-x="641" 
d="M315 320q-23 0 -47 -3l-50 -317h-203l109 690h203l-32 -202q33 4 72 4q235 0 235 -192q0 -39 -7 -85l-34 -215h-201l34 216q6 36 6 48q0 29 -19.5 42.5t-65.5 13.5z" />
    <glyph glyph-name="uni04BB" unicode="&#x4bb;" horiz-adv-x="529" 
d="M505 396q0 -19 -4 -45l-56 -351h-173l47 297q3 18 3 28q0 26 -26 26q-24 0 -68 -40l-50 -311h-173l111 695l177 27l-50 -305q44 42 81.5 65t82.5 23q48 0 73 -29.5t25 -79.5z" />
    <glyph glyph-name="uni04C0" unicode="&#x4c0;" horiz-adv-x="315" 
d="M329 690l-109 -690h-203l109 690h203z" />
    <glyph glyph-name="uni04C1" unicode="&#x4c1;" horiz-adv-x="963" 
d="M732 879q-36 -144 -167 -144q-67 0 -100.5 37.5t-32.5 106.5l86 14q8 -55 57 -55q24 0 40 13t32 42zM731 -7l-142 325l-45 -318h-203l55 315l-207 -315h-223l257 370l-144 297l200 30l132 -291l39 284h203l-51 -290l205 290h224l-252 -336l152 -331z" />
    <glyph glyph-name="uni04C2" unicode="&#x4c2;" horiz-adv-x="754" 
d="M596 689q-36 -144 -167 -144q-67 0 -100.5 37.5t-32.5 106.5l86 14q8 -55 57 -55q24 0 40 13t32 42zM545 -7l-92 221l-31 -214h-172l38 211l-141 -211h-181l182 265l-100 212l169 25l86 -203l28 196h172l-35 -190l136 190h181l-179 -244l109 -233z" />
    <glyph glyph-name="uni04CF" unicode="&#x4cf;" horiz-adv-x="272" 
d="M297 722l-115 -722h-173l111 695z" />
    <glyph glyph-name="uni04D0" unicode="&#x4d0;" horiz-adv-x="673" 
d="M589 889q-36 -144 -167 -144q-67 0 -100.5 37.5t-32.5 106.5l86 14q8 -55 57 -55q24 0 40 13t32 42zM424 -7l-15 123h-196l-51 -116h-195l341 693h208l114 -666zM368 484l-92 -213h117z" />
    <glyph glyph-name="uni04D1" unicode="&#x4d1;" horiz-adv-x="525" 
d="M500 689q-36 -144 -167 -144q-67 0 -100.5 37.5t-32.5 106.5l86 14q8 -55 57 -55q24 0 40 13t32 42zM295 178l30 185q-12 4 -21 4q-43 0 -75.5 -45.5t-32.5 -115.5q0 -63 38 -63q26 0 61 35zM288 74q-70 -84 -139 -84q-59 0 -93.5 46t-34.5 126q0 164 87.5 251.5
t213.5 87.5q95 0 190 -37l-55 -342v-122h-164z" />
    <glyph glyph-name="uni04D2" unicode="&#x4d2;" horiz-adv-x="673" 
d="M388 747h-129l22 143h131zM574 747h-130l23 143h130zM424 -7l-15 123h-196l-51 -116h-195l341 693h208l114 -666zM368 484l-92 -213h117z" />
    <glyph glyph-name="uni04D3" unicode="&#x4d3;" horiz-adv-x="525" 
d="M299 547h-129l22 143h131zM485 547h-130l23 143h130zM295 178l30 185q-12 4 -21 4q-43 0 -75.5 -45.5t-32.5 -115.5q0 -63 38 -63q26 0 61 35zM288 74q-70 -84 -139 -84q-59 0 -93.5 46t-34.5 126q0 164 87.5 251.5t213.5 87.5q95 0 190 -37l-55 -342v-122h-164z" />
    <glyph glyph-name="uni04D4" unicode="&#x4d4;" horiz-adv-x="874" 
d="M416 271l43 276l-157 -276h114zM373 0l18 116h-172l-66 -116h-197l416 690h532l-24 -161h-223l-15 -95h161v-159h-187l-18 -114h231l-26 -161h-430z" />
    <glyph glyph-name="uni04D5" unicode="&#x4d5;" horiz-adv-x="756" 
d="M510 -10q-118 0 -176 70q-100 -70 -194 -70q-58 0 -94 32t-36 93q0 175 289 184l3 15q5 35 -9 48.5t-54 13.5q-59 0 -151 -35v126q102 38 197 38q99 0 134 -51q59 51 139 51q84 0 130 -53t46 -136q0 -63 -14 -114h-272q4 -49 27.5 -70.5t69.5 -21.5q67 0 152 37v-114
q-96 -43 -187 -43zM581 298q14 96 -46 96q-28 0 -49 -26.5t-31 -69.5h126zM295 139q-7 28 -7 66v16q-53 -5 -79.5 -25.5t-26.5 -46.5q0 -39 38 -39q34 0 75 29z" />
    <glyph glyph-name="uni04D6" unicode="&#x4d6;" 
d="M522 879q-36 -144 -167 -144q-67 0 -100.5 37.5t-32.5 106.5l86 14q8 -55 57 -55q24 0 40 13t32 42zM561 690l-24 -161h-238l-15 -95h176v-159h-202l-18 -114h246l-26 -161h-445l109 690h437z" />
    <glyph glyph-name="uni04D7" unicode="&#x4d7;" horiz-adv-x="488" 
d="M466 689q-36 -144 -167 -144q-67 0 -100.5 37.5t-32.5 106.5l86 14q8 -55 57 -55q24 0 40 13t32 42zM267 394q-28 0 -49 -26.5t-31 -69.5h126q14 96 -46 96zM429 33q-96 -43 -187 -43q-98 0 -159.5 53.5t-61.5 155.5q0 132 75.5 219t189.5 87q86 0 133 -54t47 -145
q0 -53 -14 -104h-272q4 -49 27.5 -70.5t69.5 -21.5q67 0 152 37v-114z" />
    <glyph glyph-name="uni04D8" unicode="&#x4d8;" horiz-adv-x="656" 
d="M293 -13q-124 0 -185.5 80.5t-61.5 208.5q0 72 15 140h379q-5 122 -124 122q-84 0 -197 -48v159q111 54 231 54q138 0 214.5 -78.5t76.5 -227.5q0 -179 -98.5 -294.5t-249.5 -115.5zM309 136q39 0 73.5 38t49.5 115h-192q-3 -23 -3 -43q0 -110 72 -110z" />
    <glyph glyph-name="uni04D9" unicode="&#x4d9;" horiz-adv-x="488" 
d="M202 -10q-86 0 -133 54t-47 145q0 53 14 104h272q-4 49 -27.5 70.5t-69.5 21.5q-67 0 -152 -37v114q96 43 187 43q98 0 159.5 -53.5t61.5 -155.5q0 -132 -75.5 -219t-189.5 -87zM221 101q28 0 49 26.5t31 69.5h-126q-14 -96 46 -96z" />
    <glyph glyph-name="uni04DC" unicode="&#x4dc;" horiz-adv-x="963" 
d="M531 737h-129l22 143h131zM717 737h-130l23 143h130zM731 -7l-142 325l-45 -318h-203l55 315l-207 -315h-223l257 370l-144 297l200 30l132 -291l39 284h203l-51 -290l205 290h224l-252 -336l152 -331z" />
    <glyph glyph-name="uni04DD" unicode="&#x4dd;" horiz-adv-x="754" 
d="M395 547h-129l22 143h131zM581 547h-130l23 143h130zM545 -7l-92 221l-31 -214h-172l38 211l-141 -211h-181l182 265l-100 212l169 25l86 -203l28 196h172l-35 -190l136 190h181l-179 -244l109 -233z" />
    <glyph glyph-name="uni04DE" unicode="&#x4de;" horiz-adv-x="571" 
d="M327 747h-129l22 143h131zM513 747h-130l23 143h130zM251 -13q-139 0 -253 59l50 156q106 -53 193 -53q46 0 74 18t28 51q0 56 -105 56h-85v151h105q119 0 119 66q0 51 -74 51q-85 0 -201 -62v165q106 58 238 58q115 0 174 -45.5t59 -125.5q0 -68 -39.5 -115t-109.5 -70
q107 -36 107 -141t-80 -162t-200 -57z" />
    <glyph glyph-name="uni04DF" unicode="&#x4df;" horiz-adv-x="475" 
d="M254 547h-129l22 143h131zM440 547h-130l23 143h130zM209 -10q-109 0 -214 51l41 127q94 -45 167 -45q64 0 64 39q0 33 -52 33h-90v113h88q72 0 72 38q0 28 -47 28q-67 0 -168 -33v132q98 32 199 32q95 0 142.5 -33.5t47.5 -93.5q0 -90 -99 -127q75 -28 75 -105
q0 -74 -58 -115t-168 -41z" />
    <glyph glyph-name="uni04E2" unicode="&#x4e2;" horiz-adv-x="686" 
d="M579 742h-316l19 118h316zM15 0l109 690h187l-54 -338l244 338h201l-109 -690h-187l58 368l-269 -368h-180z" />
    <glyph glyph-name="uni04E3" unicode="&#x4e3;" 
d="M469 552h-316l19 118h316zM24 99q0 19 4 45l56 351h173l-47 -297q-3 -18 -3 -28q0 -26 26 -26q24 0 68 40l50 311h173l-59 -373v-122h-164l-7 87q-46 -45 -86.5 -71t-85.5 -26q-48 0 -73 29.5t-25 79.5z" />
    <glyph glyph-name="uni04E4" unicode="&#x4e4;" horiz-adv-x="686" 
d="M391 737h-129l22 143h131zM577 737h-130l23 143h130zM15 0l109 690h187l-54 -338l244 338h201l-109 -690h-187l58 368l-269 -368h-180z" />
    <glyph glyph-name="uni04E5" unicode="&#x4e5;" 
d="M282 547h-129l22 143h131zM468 547h-130l23 143h130zM24 99q0 19 4 45l56 351h173l-47 -297q-3 -18 -3 -28q0 -26 26 -26q24 0 68 40l50 311h173l-59 -373v-122h-164l-7 87q-46 -45 -86.5 -71t-85.5 -26q-48 0 -73 29.5t-25 79.5z" />
    <glyph glyph-name="uni04E6" unicode="&#x4e6;" horiz-adv-x="688" 
d="M390 747h-129l22 143h131zM576 747h-130l23 143h130zM328 -13q-134 0 -209.5 78.5t-75.5 224.5q0 95 30.5 180.5t87.5 142.5q90 90 226 90q134 0 209.5 -78.5t75.5 -224.5q0 -95 -30.5 -180.5t-87.5 -142.5q-90 -90 -226 -90zM330 137q34 0 63 29t51 101t22 156
q0 130 -81 130q-34 0 -63 -29t-51 -101t-22 -156q0 -130 81 -130z" />
    <glyph glyph-name="uni04E7" unicode="&#x4e7;" horiz-adv-x="514" 
d="M274 547h-129l22 143h131zM460 547h-130l23 143h130zM490 283q0 -127 -70 -210t-185 -83q-101 0 -156 61.5t-55 160.5q0 127 69.5 210t185.5 83q100 0 155.5 -61t55.5 -161zM319 285q0 83 -47 83q-35 0 -56 -48t-21 -110q0 -83 47 -83q35 0 56 48t21 110z" />
    <glyph glyph-name="uni04E8" unicode="&#x4e8;" horiz-adv-x="688" 
d="M328 -13q-134 0 -209.5 78.5t-75.5 224.5q0 95 30.5 180.5t87.5 142.5q90 90 226 90q134 0 209.5 -78.5t75.5 -224.5q0 -95 -30.5 -180.5t-87.5 -142.5q-90 -90 -226 -90zM306 526q-35 -35 -56 -105h234q-1 140 -97 140q-46 0 -81 -35zM328 129q46 0 81 35q37 37 57 108
h-235v-1q0 -142 97 -142z" />
    <glyph glyph-name="uni04E9" unicode="&#x4e9;" horiz-adv-x="514" 
d="M490 283q0 -127 -70 -210t-185 -83q-101 0 -156 61.5t-55 160.5q0 127 69.5 210t185.5 83q100 0 155.5 -61t55.5 -161zM272 388q-30 0 -52.5 -26.5t-33.5 -68.5h153q-3 95 -67 95zM242 107q29 0 51 25t34 66h-152q4 -91 67 -91z" />
    <glyph glyph-name="uni04EE" unicode="&#x4ee;" horiz-adv-x="652" 
d="M568 742h-316l19 118h316zM59 -10v167q117 0 169 49l-147 463l208 28l74 -291l143 284h217l-261 -456q-79 -137 -172 -190.5t-231 -53.5z" />
    <glyph glyph-name="uni04EF" unicode="&#x4ef;" horiz-adv-x="497" 
d="M459 552h-316l19 118h316zM52 -182q-42 0 -66 7v139q29 -8 62 -8q51 0 80 43l-86 480l181 23l29 -280l113 273h165l-236 -493q-51 -106 -100.5 -145t-141.5 -39z" />
    <glyph glyph-name="uni04F0" unicode="&#x4f0;" horiz-adv-x="652" 
d="M380 737h-129l22 143h131zM566 737h-130l23 143h130zM59 -10v167q117 0 169 49l-147 463l208 28l74 -291l143 284h217l-261 -456q-79 -137 -172 -190.5t-231 -53.5z" />
    <glyph glyph-name="uni04F1" unicode="&#x4f1;" horiz-adv-x="497" 
d="M272 547h-129l22 143h131zM458 547h-130l23 143h130zM52 -182q-42 0 -66 7v139q29 -8 62 -8q51 0 80 43l-86 480l181 23l29 -280l113 273h165l-236 -493q-51 -106 -100.5 -145t-141.5 -39z" />
    <glyph glyph-name="uni04F2" unicode="&#x4f2;" horiz-adv-x="652" 
d="M429 737l55 94l-122 -94h-112l79 151l171 -30l18 30l175 -33l-152 -118h-112zM59 -10v167q117 0 169 49l-147 463l208 28l74 -291l143 284h217l-261 -456q-79 -137 -172 -190.5t-231 -53.5z" />
    <glyph glyph-name="uni04F3" unicode="&#x4f3;" horiz-adv-x="497" 
d="M321 547l55 94l-122 -94h-112l79 151l171 -30l18 30l175 -33l-152 -118h-112zM52 -182q-42 0 -66 7v139q29 -8 62 -8q51 0 80 43l-86 480l181 23l29 -280l113 273h165l-236 -493q-51 -106 -100.5 -145t-141.5 -39z" />
    <glyph glyph-name="uni04F4" unicode="&#x4f4;" horiz-adv-x="641" 
d="M363 737h-129l22 143h131zM549 737h-130l23 143h130zM548 0h-203l32 202q-33 -4 -72 -4q-235 0 -235 192q0 39 7 85l34 215h201l-34 -216q-6 -36 -6 -48q0 -29 19.5 -42.5t65.5 -13.5q23 0 47 3l50 317h203z" />
    <glyph glyph-name="uni04F5" unicode="&#x4f5;" horiz-adv-x="517" 
d="M272 547h-129l22 143h131zM458 547h-130l23 143h130zM433 0h-173l21 127q-29 -3 -60 -3q-83 0 -131 38t-48 113q0 38 6 75l24 145h173l-23 -144q-4 -24 -4 -37q0 -42 56 -42q10 0 30 2l35 221h173z" />
    <glyph glyph-name="uni04F8" unicode="&#x4f8;" horiz-adv-x="886" 
d="M490 737h-129l22 143h131zM676 737h-130l23 143h130zM325 690l-34 -210h15q264 0 264 -216q0 -122 -86 -193t-235 -71h-234l109 690h201zM900 690l-109 -690h-203l109 690h203zM373 259q0 78 -87 78h-19l-30 -194h23q51 0 82 31t31 85z" />
    <glyph glyph-name="uni04F9" unicode="&#x4f9;" horiz-adv-x="750" 
d="M392 547h-129l22 143h131zM578 547h-130l23 143h130zM743 495l-81 -495h-173l81 495h173zM9 23l75 472h173l-21 -136q27 3 54 3q81 0 130 -41.5t49 -111.5q0 -103 -72 -161t-197 -58q-101 0 -191 33zM305 192q0 58 -61 58q-15 0 -27 -2l-23 -140q9 -3 23 -3q42 0 65 25
t23 62z" />
    <glyph glyph-name="Wgrave" unicode="&#x1e80;" horiz-adv-x="967" 
d="M638 737h-109l-134 118l216 33zM1028 690l-292 -690h-194l-44 382l-166 -382h-188l-70 662l227 35l14 -383l158 376h196l37 -376l133 376h189z" />
    <glyph glyph-name="wgrave" unicode="&#x1e81;" horiz-adv-x="710" 
d="M470 547h-109l-134 118l216 33zM740 495l-205 -495h-168l-15 268l-97 -268h-165l-47 481l176 21l5 -277l95 270h160l10 -270l90 270h161z" />
    <glyph glyph-name="Wacute" unicode="&#x1e82;" horiz-adv-x="967" 
d="M780 855l-157 -118h-106l70 151zM1028 690l-292 -690h-194l-44 382l-166 -382h-188l-70 662l227 35l14 -383l158 376h196l37 -376l133 376h189z" />
    <glyph glyph-name="wacute" unicode="&#x1e83;" horiz-adv-x="710" 
d="M612 665l-157 -118h-106l70 151zM740 495l-205 -495h-168l-15 268l-97 -268h-165l-47 481l176 21l5 -277l95 270h160l10 -270l90 270h161z" />
    <glyph glyph-name="Wdieresis" unicode="&#x1e84;" horiz-adv-x="967" 
d="M549 737h-129l22 143h131zM735 737h-130l23 143h130zM1028 690l-292 -690h-194l-44 382l-166 -382h-188l-70 662l227 35l14 -383l158 376h196l37 -376l133 376h189z" />
    <glyph glyph-name="wdieresis" unicode="&#x1e85;" horiz-adv-x="710" 
d="M380 547h-129l22 143h131zM566 547h-130l23 143h130zM740 495l-205 -495h-168l-15 268l-97 -268h-165l-47 481l176 21l5 -277l95 270h160l10 -270l90 270h161z" />
    <glyph glyph-name="Ygrave" unicode="&#x1ef2;" horiz-adv-x="641" 
d="M453 737h-109l-134 118l216 33zM724 690l-307 -446l-39 -244h-204l38 240l-156 426l212 31l82 -259l158 252h216z" />
    <glyph glyph-name="ygrave" unicode="&#x1ef3;" horiz-adv-x="497" 
d="M361 547h-109l-134 118l216 33zM52 -182q-42 0 -66 7v139q29 -8 62 -8q51 0 80 43l-86 480l181 23l29 -280l113 273h165l-236 -493q-51 -106 -100.5 -145t-141.5 -39z" />
    <glyph glyph-name="enspace" unicode="&#x2002;" horiz-adv-x="500" 
 />
    <glyph glyph-name="emspace" unicode="&#x2003;" horiz-adv-x="1000" 
 />
    <glyph glyph-name="threeperemspace" unicode="&#x2004;" horiz-adv-x="333" 
 />
    <glyph glyph-name="fourperemspace" unicode="&#x2005;" horiz-adv-x="250" 
 />
    <glyph glyph-name="thinspace" unicode="&#x2009;" horiz-adv-x="133" 
 />
    <glyph glyph-name="hairspace" unicode="&#x200a;" horiz-adv-x="75" 
 />
    <glyph glyph-name="endash" unicode="&#x2013;" horiz-adv-x="409" 
d="M370 211h-344l26 165h343z" />
    <glyph glyph-name="emdash" unicode="&#x2014;" horiz-adv-x="817" 
d="M778 212h-752l26 163h752z" />
    <glyph glyph-name="quoteleft" unicode="&#x2018;" horiz-adv-x="261" 
d="M26 349l162 350l106 -25l-69 -325h-199z" />
    <glyph glyph-name="quoteright" unicode="&#x2019;" horiz-adv-x="261" 
d="M317 690l-163 -350l-106 25l69 325h200z" />
    <glyph glyph-name="quotesinglbase" unicode="&#x201a;" horiz-adv-x="270" 
d="M237 195l-163 -350l-106 25l69 325h200z" />
    <glyph glyph-name="quotedblleft" unicode="&#x201c;" horiz-adv-x="501" 
d="M269 349l163 350l102 -25l-69 -325h-196zM26 349l162 350l102 -25l-69 -325h-195z" />
    <glyph glyph-name="quotedblright" unicode="&#x201d;" horiz-adv-x="501" 
d="M556 690l-163 -350l-102 25l69 325h196zM312 690l-163 -350l-102 25l69 325h196z" />
    <glyph glyph-name="quotedblbase" unicode="&#x201e;" horiz-adv-x="510" 
d="M477 195l-163 -350l-102 25l69 325h196zM233 195l-163 -350l-102 25l69 325h196z" />
    <glyph glyph-name="dagger" unicode="&#x2020;" horiz-adv-x="466" 
d="M361 611l-78 -135h-31l-34 135l13 79h143zM223 420l-129 -49h-43l21 131h42l115 -49zM451 371h-41l-115 49l6 33l129 49h42zM260 8l-71 -122h-28l-32 122l43 271l69 119h30l31 -119z" />
    <glyph glyph-name="daggerdbl" unicode="&#x2021;" horiz-adv-x="482" 
d="M370 611l-78 -135h-30l-36 135l13 79h143zM459 371h-41l-115 49l6 33l130 49h41zM232 420l-130 -49h-43l21 131h43l114 -49zM303 230l-69 -119h-31l-30 119l7 49l69 119h31l31 -119zM402 6h-42l-115 49l6 33l129 49h43zM173 55l-129 -49h-42l21 131h42l114 -49zM244 -182
h-143l13 79l77 136h31l35 -136z" />
    <glyph glyph-name="bullet" unicode="&#x2022;" horiz-adv-x="508" 
d="M457 344l-27 -171l-160 -25l-161 25l-26 171l26 171l161 25l160 -25z" />
    <glyph glyph-name="ellipsis" unicode="&#x2026;" horiz-adv-x="809" 
d="M180 0h-180l33 204h179zM454 0h-180l33 204h180zM727 0h-179l32 204h180z" />
    <glyph glyph-name="guilsinglleft" unicode="&#x2039;" horiz-adv-x="303" 
d="M322 495l-129 -251l47 -227l-111 -27l-119 258l185 247h127z" />
    <glyph glyph-name="guilsinglright" unicode="&#x203a;" horiz-adv-x="303" 
d="M-21 0l129 251l-46 227l110 27l119 -258l-185 -247h-127z" />
    <glyph glyph-name="fraction" unicode="&#x2044;" horiz-adv-x="270" 
d="M174 317l-251 -334l-67 18l276 349l253 334l67 -18z" />
    <glyph glyph-name="Euro" unicode="&#x20ac;" horiz-adv-x="591" 
d="M540 19q-66 -30 -149 -30q-264 0 -290 240h-78v80h75q1 32 8 68h-68l13 80h76q37 104 117.5 168t197.5 64q109 0 185 -51l-49 -144q-75 43 -133 43q-87 0 -128 -80h193v-80h-218q-5 -28 -7 -68h209l-13 -80h-190q23 -91 134 -91q50 0 115 23v-142z" />
    <glyph glyph-name="hryvnia" unicode="&#x20b4;" horiz-adv-x="590" 
d="M486 38q-117 -51 -235 -51q-203 0 -203 141q0 65 52 125l-63 6v81l143 -14l61 53l-188 18l13 79l255 -24q40 37 39 63q0 32 -52 32q-61 0 -161 -35v140q109 37 211 37q210 0 210 -140q0 -62 -41 -117l56 -5v-81l-131 13l-62 -53l176 -17l-13 -79l-244 23
q-31 -27 -42 -41.5t-11 -29.5q0 -33 55 -33q61 0 175 49v-140z" />
    <glyph glyph-name="numero" unicode="&#x2116;" horiz-adv-x="1083" 
d="M1065 371q0 -99 -60 -165.5t-153 -66.5q-85 0 -131 49.5t-46 133.5q0 99 60 165.5t154 66.5q84 0 130 -49.5t46 -133.5zM927 377q0 67 -44 67q-29 0 -49.5 -38.5t-20.5 -89.5q0 -67 44 -67q30 0 50 38t20 90zM668 690l-109 -690h-173l-130 346l-55 -346h-186l109 690h194
l115 -317l49 317h186zM995 0h-353l15 91h353z" />
    <glyph glyph-name="published" unicode="&#x2117;" horiz-adv-x="799" 
d="M765 346q0 -160 -96.5 -259.5t-249.5 -99.5q-154 0 -249.5 98.5t-95.5 258.5t96.5 259.5t249.5 99.5q154 0 249.5 -98.5t95.5 -258.5zM721 345q0 151 -85 236.5t-216 85.5q-133 0 -217.5 -85.5t-84.5 -236.5t85 -236.5t217 -85.5t216.5 85.5t84.5 236.5zM605 407
q0 -68 -45 -105.5t-123 -37.5h-29v-114h-129v394h163q76 0 119.5 -36t43.5 -101zM483 406q0 51 -55 51h-22v-106h21q56 0 56 55z" />
    <glyph glyph-name="servicemark" unicode="&#x2120;" horiz-adv-x="817" 
d="M854 345h-111l-13 204l-49 -206h-103l-49 206l-13 -204h-92l26 345h141l51 -211l52 211h135zM252 340q-58 0 -122 29l16 87q64 -35 110 -35q27 0 27 20q0 10 -9 17.5t-37 18.5q-55 22 -77 45.5t-22 65.5q0 50 34.5 78.5t85.5 28.5q56 0 106 -25l-12 -87q-58 31 -95 31
q-24 0 -24 -19q0 -17 38 -31q60 -24 84.5 -48t24.5 -66q0 -56 -35.5 -83t-92.5 -27z" />
    <glyph glyph-name="trademark" unicode="&#x2122;" horiz-adv-x="817" 
d="M405 606h-107v-261h-108v261h-101v84h304zM854 345h-111l-13 204l-49 -206h-103l-49 206l-13 -204h-92l26 345h141l51 -211l52 211h135z" />
    <glyph glyph-name="Omega" unicode="&#x2126;" horiz-adv-x="724" 
d="M323 137l-44 -137h-268l24 154l94 -4q-73 98 -73 209q0 141 100.5 242t257.5 101q146 0 223 -77t77 -196q0 -85 -36 -150t-110 -129l93 4l-25 -154h-269v137l30 32q60 65 88.5 120.5t28.5 128.5q0 59 -28.5 94.5t-84.5 35.5q-67 0 -108.5 -60t-41.5 -149q0 -83 52 -170z
" />
    <glyph glyph-name="Delta" unicode="&#x2206;" horiz-adv-x="669" 
d="M588 0h-581v147l285 546h222l112 -546zM363 492l-161 -337h216z" />
    <glyph glyph-name="minus" unicode="&#x2212;" horiz-adv-x="572" 
d="M520 265h-464l24 146h464z" />
    <glyph glyph-name="hcoslug" unicode="&#xe10b;" horiz-adv-x="694" 
d="M644 700v-800h-594v800h594zM247 428q0 13 7.5 21t19.5 8q13 0 21 -10.5t8 -27.5q0 -22 -18 -50q-15 14 -21 20.5t-11.5 17t-5.5 21.5zM312 342q30 20 42 34q29 -29 -1 -80q-33 38 -41 46zM261 219q-22 0 -37 15.5t-15 38.5q0 24 16 40q34 -32 74 -82q-15 -12 -38 -12z
M382 264q20 26 46 42q15 -25 43 -25q21 0 35.5 15.5t14.5 38.5t-14.5 37.5t-35.5 14.5q-35 0 -60 -38q-3 39 -49 37q9 15 9 34q0 29 -25.5 51.5t-69.5 22.5q-48 0 -78.5 -25.5t-30.5 -59.5q0 -37 31 -69q-82 -28 -82 -91q0 -39 32 -66t77 -27q63 0 104 45q44 -45 85 -45
q33 0 56 25.5t24 68.5l-7 2q-17 -29 -43 -29q-27 0 -62 41zM286 124l-12 -2v-9h-7v-7h7v-20q0 -13 12 -13q11 0 14 13l-5 2q-1 -7 -5 -7t-4 5v20h13v7h-13v11zM174 94q0 -21 21 -21q9 0 15 6t6 15q0 20 -21 20t-21 -20zM203 94q0 -16 -8 -16t-8 16q0 15 8 15t8 -15zM219 81
v-7h22v7h-4v15q0 10 7 10q6 0 6 -7v-18h-4v-7h22v7h-6v19q0 14 -12 14q-9 0 -14 -11v10h-17v-7h6v-25h-6zM379 93q0 -13 -7 -13q-8 0 -8 13t8 13q7 0 7 -13zM125 81v-7h30v7h-10v16h4q5 0 6 -8h7v23h-7q-1 -8 -6 -8h-4v18h12q9 0 11 -13h8v20h-51v-7h7v-41h-7zM302 88v-14h7
l1 4q7 -5 13 -5q14 0 14 13q0 9 -12 12t-12 6q0 4 5 4t10 -7h7v13h-6l-2 -5q-3 5 -11 5q-14 0 -14 -12q0 -9 12 -12.5t12 -6.5q0 -4 -5 -4q-6 0 -12 9h-7zM352 125v-52h6l4 8q5 -8 14 -8q16 0 16 21q0 20 -15 20q-10 0 -13 -9v27h-18v-7h6zM405 65q3 2 1.5 6t-6.5 4
q-7 0 -7 -7q0 -9 11 -9q12 0 18 16l13 31h5v7h-17v-7h5l-8 -20l-9 20h6v7h-25v-7h5q12 -23 16 -33q-2 -8 -8 -8zM294 39v3q0 12 6 12l3 -1q-1 -1 -1 -3q0 -6 6 -6v-5h-14zM464 33h-18v-7h6q-2 -5 -6 -9q-2 2 -5.5 6t-6.5 7q11 5 11 12q0 12 -14 12q-17 0 -17 -14q0 -6 6 -12
q-13 -4 -13 -15q0 -14 18 -14q9 0 15 6q5 -6 12 -6q10 0 13 12l-5 1q-1 -5 -4 -5t-6 5q6 8 9 14h5v7zM469 27q0 -28 29 -28q22 0 24 23h-8q-2 -16 -14 -16q-16 0 -16 22t14 22q10 0 15 -16h8v22h-8l-1 -6q-7 7 -16 7q-11 0 -19 -8.5t-8 -21.5zM431 33q-6 6 -6 10q0 5 5 5
q6 0 6 -6t-5 -9zM340 18h26q2 22 -19 22q-8 0 -14 -6t-6 -15q0 -20 21 -20q14 0 18 14h-7q-1 -7 -9 -7q-10 0 -10 12zM525 20q0 -21 21 -21q9 0 15 6t6 15q0 20 -21 20t-21 -20zM189 20q0 -21 21 -21q9 0 15 6t6 15q0 20 -21 20t-21 -20zM247 18h26q2 22 -19 22q-8 0 -14 -6
t-6 -15q0 -20 21 -20q15 0 18 14h-7q-1 -7 -9 -7q-10 0 -10 12zM340 23q0 12 7 12t7 -12h-14zM554 20q0 -16 -8 -16t-8 16q0 15 8 15t8 -15zM218 20q0 -16 -8 -16t-8 16q0 15 8 15t8 -15zM247 23q0 12 7 12t7 -12h-14zM368 7v-7h26v7h-8v16q4 9 7 9v-1q0 -6 6 -6q7 0 7 7
q0 8 -8 8t-12 -11v10h-18v-7h6v-25h-6zM276 7v-7h23v7h-5v25h14v-25h-5v-7h23v7h-6v52l-10 -2q-4 2 -9 2q-19 0 -19 -19v-1h-7v-7h7v-25h-6zM124 7v-7h29v7h-8v18h22v-18h-8v-7h29v7h-8v41h8v7h-29v-7h8v-16h-22v16h8v7h-29v-7h8v-41h-8zM437 9q-5 -3 -8 -3q-10 0 -10 10
q0 5 4 9q4 -4 14 -16zM583 6q0 7 -7 7t-7 -7t7 -7t7 7z" />
    <glyph glyph-name="f_f" unicode="&#xfb00;" horiz-adv-x="698" 
d="M756 579q-29 7 -51 7q-52 0 -63 -59l-6 -32h80v-142h-101l-80 -512l-177 -27l85 539h-69l22 142h69l9 53q13 80 56.5 124.5t133.5 44.5q54 0 92 -8v-130zM403 579q-29 7 -51 7q-52 0 -63 -59l-6 -32h80v-142h-101l-80 -512l-177 -27l85 539h-69l22 142h69l9 53
q13 80 56.5 124.5t133.5 44.5q54 0 92 -8v-130z" />
    <glyph glyph-name="fi" unicode="&#xfb01;" horiz-adv-x="617" 
d="M643 638q0 -42 -28 -67t-71 -25q-42 0 -70.5 25t-28.5 67t28.5 67.5t70.5 25.5q43 0 71 -25t28 -68zM403 579q-29 7 -51 7q-52 0 -63 -59l-6 -32h80v-142h-101l-80 -512l-177 -27l85 539h-69l22 142h69l9 53q13 80 56.5 124.5t133.5 44.5q54 0 92 -8v-130zM608 495
l-81 -495h-173l81 495h173z" />
    <glyph glyph-name="fl" unicode="&#xfb02;" horiz-adv-x="617" 
d="M644 722l-115 -722h-173l111 695zM403 579q-29 7 -51 7q-52 0 -63 -59l-6 -32h80v-142h-101l-80 -512l-177 -27l85 539h-69l22 142h69l9 53q13 80 56.5 124.5t133.5 44.5q54 0 92 -8v-130z" />
    <glyph glyph-name="f_f_i" unicode="&#xfb03;" horiz-adv-x="970" 
d="M996 638q0 -42 -28 -67t-71 -25q-42 0 -70.5 25t-28.5 67t28.5 67.5t70.5 25.5q43 0 71 -25t28 -68zM756 579q-29 7 -51 7q-52 0 -63 -59l-6 -32h80v-142h-101l-80 -512l-177 -27l85 539h-69l22 142h69l9 53q13 80 56.5 124.5t133.5 44.5q54 0 92 -8v-130zM403 579
q-29 7 -51 7q-52 0 -63 -59l-6 -32h80v-142h-101l-80 -512l-177 -27l85 539h-69l22 142h69l9 53q13 80 56.5 124.5t133.5 44.5q54 0 92 -8v-130zM961 495l-81 -495h-173l81 495h173z" />
    <glyph glyph-name="f_f_l" unicode="&#xfb04;" horiz-adv-x="970" 
d="M997 722l-115 -722h-173l111 695zM756 579q-29 7 -51 7q-52 0 -63 -59l-6 -32h80v-142h-101l-80 -512l-177 -27l85 539h-69l22 142h69l9 53q13 80 56.5 124.5t133.5 44.5q54 0 92 -8v-130zM403 579q-29 7 -51 7q-52 0 -63 -59l-6 -32h80v-142h-101l-80 -512l-177 -27
l85 539h-69l22 142h69l9 53q13 80 56.5 124.5t133.5 44.5q54 0 92 -8v-130z" />
    <glyph glyph-name="M.alt" horiz-adv-x="885" 
d="M792 0h-200l63 395l-171 -398h-188l-47 398l-62 -395h-172l109 690h271l54 -431l190 431h262z" />
    <glyph glyph-name="Q.alt" horiz-adv-x="697" 
d="M637 -14l-98 82q-89 -81 -211 -81q-134 0 -209.5 78.5t-75.5 224.5q0 95 30.5 180.5t87.5 142.5q90 90 226 90q134 0 209.5 -78.5t75.5 -224.5q0 -115 -44 -209l44 -34zM332 133q34 0 64 30q4 4 12 14l-118 99l170 40q10 55 10 105q0 132 -83 132q-34 0 -64 -30t-52 -102
t-22 -156q0 -132 83 -132z" />
    <glyph glyph-name="U.alt" horiz-adv-x="668" 
d="M684 690l-109 -690h-174l1 65q-92 -73 -191 -73q-79 0 -122 45t-41 128q0 44 6 82l69 443h203l-70 -440q-3 -15 -3 -31q-2 -56 51 -56q45 0 100 40l77 487h203z" />
    <glyph glyph-name="W.alt" horiz-adv-x="979" 
d="M536 0l-46 275l-125 -275h-191l-103 665l212 32l50 -434l117 251l-25 152l206 31l43 -422l164 415h206l-317 -690h-191z" />
    <glyph glyph-name="a.alt" horiz-adv-x="507" 
d="M209 108q27 0 65 34l13 79q-53 -5 -79 -28.5t-26 -53.5q0 -31 27 -31zM302 314q5 35 -8.5 48.5t-54.5 13.5q-59 0 -151 -35v126q102 38 207 38q112 0 152.5 -46.5t25.5 -140.5l-36 -219v-99h-164l-6 58q-70 -68 -144 -68q-50 0 -81.5 32.5t-31.5 84.5q0 183 289 191z" />
    <glyph glyph-name="g.alt" horiz-adv-x="510" 
d="M305 350q0 27 -12.5 42t-34.5 15q-28 0 -46 -26t-18 -63q0 -26 13 -41t35 -15q28 0 45.5 26t17.5 62zM463 -1q0 -75 -80 -128t-188 -53q-107 0 -173.5 33t-66.5 88q0 66 94 114q-23 20 -23 55q0 53 88 88q-73 40 -73 123q0 80 60 132t152 52q93 0 151 -47l122 46v-126
h-74q4 -15 4 -33q0 -77 -60 -126t-149 -49q-42 0 -71 7q-10 -11 -10 -20t9 -13.5t33 -8.5l103 -15q75 -11 113.5 -38.5t38.5 -80.5zM198 -99q43 0 73.5 15.5t30.5 36.5q0 26 -45 33l-141 21q-22 -25 -22 -47q0 -26 28.5 -42.5t75.5 -16.5z" />
    <glyph glyph-name="uni039C.alt" horiz-adv-x="885" 
d="M792 0h-200l63 395l-171 -398h-188l-47 398l-62 -395h-172l109 690h271l54 -431l190 431h262z" />
    <glyph glyph-name="uni0414.alt" horiz-adv-x="767" 
d="M416 493l-161 -338h215zM496 -161l26 161h-355l-24 -153h-192l52 329h62l264 517h250l100 -517h63l-50 -316z" />
    <glyph glyph-name="uni041B.alt" horiz-adv-x="665" 
d="M505 693l117 -666l-214 -34l-54 443l-190 -436h-197l343 693h195z" />
    <glyph glyph-name="uni041B.bgr" horiz-adv-x="665" 
d="M505 693l117 -666l-214 -34l-54 443l-190 -436h-197l343 693h195z" />
    <glyph glyph-name="uni041C.alt" horiz-adv-x="885" 
d="M792 0h-200l63 395l-171 -398h-188l-47 398l-62 -395h-172l109 690h271l54 -431l190 431h262z" />
    <glyph glyph-name="uni0424.bgr" horiz-adv-x="903" 
d="M498 -95h-202l17 103q-124 24 -196.5 103t-72.5 200q0 157 101 258q102 102 275 119l15 92h202l-16 -98q124 -24 196.5 -103t72.5 -200q0 -157 -101 -258q-102 -102 -275 -119zM239 318q0 -130 105 -159l59 376q-59 -13 -101 -55q-63 -63 -63 -162zM695 372
q0 128 -104 159l-60 -376q59 13 101 55q63 63 63 162z" />
    <glyph glyph-name="uni0430.alt" horiz-adv-x="507" 
d="M209 108q27 0 65 34l13 79q-53 -5 -79 -28.5t-26 -53.5q0 -31 27 -31zM302 314q5 35 -8.5 48.5t-54.5 13.5q-59 0 -151 -35v126q102 38 207 38q112 0 152.5 -46.5t25.5 -140.5l-36 -219v-99h-164l-6 58q-70 -68 -144 -68q-50 0 -81.5 32.5t-31.5 84.5q0 183 289 191z" />
    <glyph glyph-name="uni0431.srb" horiz-adv-x="519" 
d="M247 -10q-108 0 -167.5 60t-59.5 152q0 170 174 246q-49 47 -49 106q0 109 157 132l249 36v-152l-209 -25q-19 -3 -19 -16t39 -45q73 -61 103 -113.5t30 -124.5q0 -113 -68.5 -184.5t-179.5 -71.5zM250 125q32 0 54.5 32t22.5 85q0 65 -48 112q-89 -48 -89 -146
q0 -39 16 -61t44 -22z" />
    <glyph glyph-name="uni0432.bgr" horiz-adv-x="548" 
d="M14 61l64 410q19 119 83.5 182.5t172.5 63.5q97 0 153.5 -53t56.5 -136q0 -135 -127 -186q98 -40 98 -138q0 -95 -70 -153.5t-191 -58.5q-123 0 -240 69zM246 462l-9 -59h21q56 0 88 32.5t32 83.5q0 29 -13 46t-37 17q-61 0 -82 -120zM258 127q39 0 62.5 24t23.5 61
q0 72 -91 72h-35l-23 -143q31 -14 63 -14z" />
    <glyph glyph-name="uni0433.srb" horiz-adv-x="305" 
d="M338 552h-316l19 118h316zM259 12q-52 -19 -103 -19q-65 0 -99 31.5t-34 91.5q0 32 9 85l50 294h173l-53 -314q-4 -22 -4 -33q0 -23 27 -23q15 0 34 6v-119z" />
    <glyph glyph-name="uni0434.srb" horiz-adv-x="526" 
d="M325 363q-12 4 -27 4q-44 0 -73 -40t-29 -109q0 -62 42 -62q23 0 59 36zM512 464l-66 -424q-10 -66 -35 -111.5t-61 -68.5t-74 -32.5t-85 -9.5q-123 0 -219 47l42 130q79 -42 157 -42q43 0 67.5 20.5t33.5 65.5l8 41q-68 -70 -123 -70q-64 0 -100 46t-36 132
q0 147 83.5 230t202.5 83q96 0 205 -37z" />
    <glyph glyph-name="uni0434.bgr" horiz-adv-x="526" 
d="M325 363q-12 4 -27 4q-44 0 -73 -40t-29 -109q0 -62 42 -62q23 0 59 36zM512 464l-66 -424q-10 -66 -35 -111.5t-61 -68.5t-74 -32.5t-85 -9.5q-123 0 -219 47l42 130q79 -42 157 -42q43 0 67.5 20.5t33.5 65.5l8 41q-68 -70 -123 -70q-64 0 -100 46t-36 132
q0 147 83.5 230t202.5 83q96 0 205 -37z" />
    <glyph glyph-name="uni0436.bgr" horiz-adv-x="754" 
d="M545 -7l-92 221l-31 -214h-172l38 211l-141 -211h-181l182 265l-100 212l169 25l86 -204l59 397l177 27l-72 -418l137 191h181l-179 -244l109 -233z" />
    <glyph glyph-name="uni043A.bgr" horiz-adv-x="508" 
d="M178 0h-173l110 691l178 31l-69 -421l129 194h188l-169 -238l96 -235l-172 -29l-85 228z" />
    <glyph glyph-name="uni043F.srb" 
d="M469 552h-316l19 118h316zM24 99q0 19 4 45l56 351h173l-47 -297q-3 -18 -3 -28q0 -26 26 -26q24 0 68 40l50 311h173l-59 -373v-122h-164l-7 87q-46 -45 -86.5 -71t-85.5 -26q-48 0 -73 29.5t-25 79.5z" />
    <glyph glyph-name="uni0442.srb" horiz-adv-x="790" 
d="M728 552h-575l19 118h575zM553 87q-99 -97 -170 -97q-46 0 -69.5 26.5t-25.5 68.5q-97 -95 -168 -95q-47 0 -71.5 29.5t-24.5 80.5q0 18 4 44l56 351h173l-48 -297q-3 -24 -3 -28q0 -26 24 -26q28 0 67 41l50 310h173l-47 -297q-3 -24 -3 -28q0 -26 24 -26q28 0 67 41
l49 310h173l-59 -373v-122h-166z" />
    <glyph glyph-name="uni0448.srb" horiz-adv-x="790" 
d="M553 87q-99 -97 -170 -97q-46 0 -69.5 26.5t-25.5 68.5q-97 -95 -168 -95q-47 0 -71.5 29.5t-24.5 80.5q0 18 4 44l56 351h173l-48 -297q-3 -24 -3 -28q0 -26 24 -26q28 0 67 41l50 310h173l-47 -297q-3 -24 -3 -28q0 -26 24 -26q28 0 67 41l49 310h173l-59 -373v-122
h-166zM630 -178h-575l19 116h575z" />
    <glyph glyph-name="uni044E.bgr" horiz-adv-x="748" 
d="M472 -10q-92 0 -145.5 52.5t-61.5 140.5h-58l-29 -183h-173l111 695l177 27l-63 -400h50q25 84 87 133.5t149 49.5q99 0 153.5 -61t54.5 -161q0 -126 -69 -209.5t-183 -83.5zM553 285q0 83 -47 83q-35 0 -56 -48t-21 -110q0 -83 47 -83q35 0 56 48t21 110z" />
    <glyph glyph-name="aacute.alt" horiz-adv-x="507" 
d="M504 665l-157 -118h-106l70 151zM209 108q27 0 65 34l13 79q-53 -5 -79 -28.5t-26 -53.5q0 -31 27 -31zM302 314q5 35 -8.5 48.5t-54.5 13.5q-59 0 -151 -35v126q102 38 207 38q112 0 152.5 -46.5t25.5 -140.5l-36 -219v-99h-164l-6 58q-70 -68 -144 -68
q-50 0 -81.5 32.5t-31.5 84.5q0 183 289 191z" />
    <glyph glyph-name="abreve.alt" horiz-adv-x="507" 
d="M474 689q-36 -144 -167 -144q-67 0 -100.5 37.5t-32.5 106.5l86 14q8 -55 57 -55q24 0 40 13t32 42zM209 108q27 0 65 34l13 79q-53 -5 -79 -28.5t-26 -53.5q0 -31 27 -31zM302 314q5 35 -8.5 48.5t-54.5 13.5q-59 0 -151 -35v126q102 38 207 38q112 0 152.5 -46.5
t25.5 -140.5l-36 -219v-99h-164l-6 58q-70 -68 -144 -68q-50 0 -81.5 32.5t-31.5 84.5q0 183 289 191z" />
    <glyph glyph-name="acircumflex.alt" horiz-adv-x="507" 
d="M470 547h-109l-51 53l-71 -53h-103l115 150h146zM209 108q27 0 65 34l13 79q-53 -5 -79 -28.5t-26 -53.5q0 -31 27 -31zM302 314q5 35 -8.5 48.5t-54.5 13.5q-59 0 -151 -35v126q102 38 207 38q112 0 152.5 -46.5t25.5 -140.5l-36 -219v-99h-164l-6 58q-70 -68 -144 -68
q-50 0 -81.5 32.5t-31.5 84.5q0 183 289 191z" />
    <glyph glyph-name="adieresis.alt" horiz-adv-x="507" 
d="M273 547h-129l22 143h131zM459 547h-130l23 143h130zM209 108q27 0 65 34l13 79q-53 -5 -79 -28.5t-26 -53.5q0 -31 27 -31zM302 314q5 35 -8.5 48.5t-54.5 13.5q-59 0 -151 -35v126q102 38 207 38q112 0 152.5 -46.5t25.5 -140.5l-36 -219v-99h-164l-6 58
q-70 -68 -144 -68q-50 0 -81.5 32.5t-31.5 84.5q0 183 289 191z" />
    <glyph glyph-name="agrave.alt" horiz-adv-x="507" 
d="M362 547h-109l-134 118l216 33zM209 108q27 0 65 34l13 79q-53 -5 -79 -28.5t-26 -53.5q0 -31 27 -31zM302 314q5 35 -8.5 48.5t-54.5 13.5q-59 0 -151 -35v126q102 38 207 38q112 0 152.5 -46.5t25.5 -140.5l-36 -219v-99h-164l-6 58q-70 -68 -144 -68q-50 0 -81.5 32.5
t-31.5 84.5q0 183 289 191z" />
    <glyph glyph-name="amacron.alt" horiz-adv-x="507" 
d="M461 552h-316l19 118h316zM209 108q27 0 65 34l13 79q-53 -5 -79 -28.5t-26 -53.5q0 -31 27 -31zM302 314q5 35 -8.5 48.5t-54.5 13.5q-59 0 -151 -35v126q102 38 207 38q112 0 152.5 -46.5t25.5 -140.5l-36 -219v-99h-164l-6 58q-70 -68 -144 -68q-50 0 -81.5 32.5
t-31.5 84.5q0 183 289 191z" />
    <glyph glyph-name="aogonek.alt" horiz-adv-x="507" 
d="M209 108q27 0 65 34l13 79q-53 -5 -79 -28.5t-26 -53.5q0 -31 27 -31zM400 -190q-50 -20 -105 -20q-49 0 -74.5 22t-25.5 55q0 55 78 133l-6 58q-70 -68 -144 -68q-50 0 -81.5 32.5t-31.5 84.5q0 183 289 191l3 16q5 35 -8.5 48.5t-54.5 13.5q-59 0 -151 -35v126
q102 38 207 38q112 0 152.5 -46.5t25.5 -140.5l-36 -219v-99h-57l-12 -15q-40 -50 -40 -72q0 -25 33 -25q21 0 52 7z" />
    <glyph glyph-name="aring.alt" horiz-adv-x="507" 
d="M320 547q-73 0 -110 33t-37 84q0 50 37 83t110 33t110 -33t37 -83q0 -51 -37 -84t-110 -33zM320 610q24 0 37.5 14.5t13.5 39.5t-13.5 39.5t-37.5 14.5t-37.5 -14.5t-13.5 -39.5t13.5 -39.5t37.5 -14.5zM209 108q27 0 65 34l13 79q-53 -5 -79 -28.5t-26 -53.5
q0 -31 27 -31zM302 314q5 35 -8.5 48.5t-54.5 13.5q-59 0 -151 -35v126q102 38 207 38q112 0 152.5 -46.5t25.5 -140.5l-36 -219v-99h-164l-6 58q-70 -68 -144 -68q-50 0 -81.5 32.5t-31.5 84.5q0 183 289 191z" />
    <glyph glyph-name="aringacute.alt" horiz-adv-x="507" 
d="M530 921l-157 -118h-106l70 151zM320 547q-73 0 -110 33t-37 84q0 50 37 83t110 33t110 -33t37 -83q0 -51 -37 -84t-110 -33zM320 610q24 0 37.5 14.5t13.5 39.5t-13.5 39.5t-37.5 14.5t-37.5 -14.5t-13.5 -39.5t13.5 -39.5t37.5 -14.5zM209 108q27 0 65 34l13 79
q-53 -5 -79 -28.5t-26 -53.5q0 -31 27 -31zM302 314q5 35 -8.5 48.5t-54.5 13.5q-59 0 -151 -35v126q102 38 207 38q112 0 152.5 -46.5t25.5 -140.5l-36 -219v-99h-164l-6 58q-70 -68 -144 -68q-50 0 -81.5 32.5t-31.5 84.5q0 183 289 191z" />
    <glyph glyph-name="atilde.alt" horiz-adv-x="507" 
d="M483 696q-20 -85 -44 -117.5t-63 -32.5q-23 0 -61 18q-41 20 -56 20q-10 0 -18 -9t-17 -33l-73 17q20 85 44.5 118t63.5 33q25 0 61 -18q41 -20 56 -20q10 0 18 9t17 33zM209 108q27 0 65 34l13 79q-53 -5 -79 -28.5t-26 -53.5q0 -31 27 -31zM302 314q5 35 -8.5 48.5
t-54.5 13.5q-59 0 -151 -35v126q102 38 207 38q112 0 152.5 -46.5t25.5 -140.5l-36 -219v-99h-164l-6 58q-70 -68 -144 -68q-50 0 -81.5 32.5t-31.5 84.5q0 183 289 191z" />
    <glyph glyph-name="gbreve.alt" horiz-adv-x="510" 
d="M467 689q-36 -144 -167 -144q-67 0 -100.5 37.5t-32.5 106.5l86 14q8 -55 57 -55q24 0 40 13t32 42zM305 350q0 27 -12.5 42t-34.5 15q-28 0 -46 -26t-18 -63q0 -26 13 -41t35 -15q28 0 45.5 26t17.5 62zM463 -1q0 -75 -80 -128t-188 -53q-107 0 -173.5 33t-66.5 88
q0 66 94 114q-23 20 -23 55q0 53 88 88q-73 40 -73 123q0 80 60 132t152 52q93 0 151 -47l122 46v-126h-74q4 -15 4 -33q0 -77 -60 -126t-149 -49q-42 0 -71 7q-10 -11 -10 -20t9 -13.5t33 -8.5l103 -15q75 -11 113.5 -38.5t38.5 -80.5zM198 -99q43 0 73.5 15.5t30.5 36.5
q0 26 -45 33l-141 21q-22 -25 -22 -47q0 -26 28.5 -42.5t75.5 -16.5z" />
    <glyph glyph-name="gcommaaccent.alt" horiz-adv-x="510" 
d="M394 560l-144 -22q-33 33 -33 71q0 41 31 79.5t88 67.5l106 -21q-40 -36 -56 -61.5t-16 -53.5q0 -29 24 -60zM305 350q0 27 -12.5 42t-34.5 15q-28 0 -46 -26t-18 -63q0 -26 13 -41t35 -15q28 0 45.5 26t17.5 62zM463 -1q0 -75 -80 -128t-188 -53q-107 0 -173.5 33
t-66.5 88q0 66 94 114q-23 20 -23 55q0 53 88 88q-73 40 -73 123q0 80 60 132t152 52q93 0 151 -47l122 46v-126h-74q4 -15 4 -33q0 -77 -60 -126t-149 -49q-42 0 -71 7q-10 -11 -10 -20t9 -13.5t33 -8.5l103 -15q75 -11 113.5 -38.5t38.5 -80.5zM198 -99q43 0 73.5 15.5
t30.5 36.5q0 26 -45 33l-141 21q-22 -25 -22 -47q0 -26 28.5 -42.5t75.5 -16.5z" />
    <glyph glyph-name="gdotaccent.alt" horiz-adv-x="510" 
d="M364 547h-136l23 143h136zM305 350q0 27 -12.5 42t-34.5 15q-28 0 -46 -26t-18 -63q0 -26 13 -41t35 -15q28 0 45.5 26t17.5 62zM463 -1q0 -75 -80 -128t-188 -53q-107 0 -173.5 33t-66.5 88q0 66 94 114q-23 20 -23 55q0 53 88 88q-73 40 -73 123q0 80 60 132t152 52
q93 0 151 -47l122 46v-126h-74q4 -15 4 -33q0 -77 -60 -126t-149 -49q-42 0 -71 7q-10 -11 -10 -20t9 -13.5t33 -8.5l103 -15q75 -11 113.5 -38.5t38.5 -80.5zM198 -99q43 0 73.5 15.5t30.5 36.5q0 26 -45 33l-141 21q-22 -25 -22 -47q0 -26 28.5 -42.5t75.5 -16.5z" />
    <glyph glyph-name="Uacute.alt" horiz-adv-x="668" 
d="M615 855l-157 -118h-106l70 151zM684 690l-109 -690h-174l1 65q-92 -73 -191 -73q-79 0 -122 45t-41 128q0 44 6 82l69 443h203l-70 -440q-3 -15 -3 -31q-2 -56 51 -56q45 0 100 40l77 487h203z" />
    <glyph glyph-name="Ubreve.alt" horiz-adv-x="668" 
d="M586 874q-36 -144 -167 -144q-67 0 -100.5 37.5t-32.5 106.5l86 14q8 -55 57 -55q24 0 40 13t32 42zM684 690l-109 -690h-174l1 65q-92 -73 -191 -73q-79 0 -122 45t-41 128q0 44 6 82l69 443h203l-70 -440q-3 -15 -3 -31q-2 -56 51 -56q45 0 100 40l77 487h203z" />
    <glyph glyph-name="Ucircumflex.alt" horiz-adv-x="668" 
d="M580 737h-109l-51 53l-71 -53h-103l115 150h146zM684 690l-109 -690h-174l1 65q-92 -73 -191 -73q-79 0 -122 45t-41 128q0 44 6 82l69 443h203l-70 -440q-3 -15 -3 -31q-2 -56 51 -56q45 0 100 40l77 487h203z" />
    <glyph glyph-name="Udieresis.alt" horiz-adv-x="668" 
d="M383 737h-129l22 143h131zM569 737h-130l23 143h130zM684 690l-109 -690h-174l1 65q-92 -73 -191 -73q-79 0 -122 45t-41 128q0 44 6 82l69 443h203l-70 -440q-3 -15 -3 -31q-2 -56 51 -56q45 0 100 40l77 487h203z" />
    <glyph glyph-name="Ugrave.alt" horiz-adv-x="668" 
d="M473 737h-109l-134 118l216 33zM684 690l-109 -690h-174l1 65q-92 -73 -191 -73q-79 0 -122 45t-41 128q0 44 6 82l69 443h203l-70 -440q-3 -15 -3 -31q-2 -56 51 -56q45 0 100 40l77 487h203z" />
    <glyph glyph-name="Uhungarumlaut.alt" horiz-adv-x="668" 
d="M433 737l55 94l-122 -94h-112l79 151l171 -30l18 30l175 -33l-152 -118h-112zM684 690l-109 -690h-174l1 65q-92 -73 -191 -73q-79 0 -122 45t-41 128q0 44 6 82l69 443h203l-70 -440q-3 -15 -3 -31q-2 -56 51 -56q45 0 100 40l77 487h203z" />
    <glyph glyph-name="Umacron.alt" horiz-adv-x="668" 
d="M571 742h-316l19 118h316zM684 690l-109 -690h-174l1 65q-92 -73 -191 -73q-79 0 -122 45t-41 128q0 44 6 82l69 443h203l-70 -440q-3 -15 -3 -31q-2 -56 51 -56q45 0 100 40l77 487h203z" />
    <glyph glyph-name="Uogonek.alt" horiz-adv-x="675" 
d="M528 -190q-50 -20 -105 -20q-49 0 -74.5 22t-25.5 55q0 55 78 133l1 65q-92 -73 -191 -73q-79 0 -122 45t-41 128q0 44 6 82l69 443h203l-70 -440q-3 -15 -3 -31q-2 -56 51 -56q45 0 100 40l77 487h203l-109 -690h-67l-12 -15q-40 -50 -40 -72q0 -25 33 -25q21 0 52 7z
" />
    <glyph glyph-name="Uring.alt" horiz-adv-x="668" 
d="M428 727q-73 0 -110 33t-37 84q0 50 37 83t110 33t110 -33t37 -83q0 -51 -37 -84t-110 -33zM428 790q24 0 37.5 14.5t13.5 39.5t-13.5 39.5t-37.5 14.5t-37.5 -14.5t-13.5 -39.5t13.5 -39.5t37.5 -14.5zM684 690l-109 -690h-174l1 65q-92 -73 -191 -73q-79 0 -122 45
t-41 128q0 44 6 82l69 443h203l-70 -440q-3 -15 -3 -31q-2 -56 51 -56q45 0 100 40l77 487h203z" />
    <glyph glyph-name="Wacute.alt" horiz-adv-x="979" 
d="M767 855l-157 -118h-106l70 151zM536 0l-46 275l-125 -275h-191l-103 665l212 32l50 -434l117 251l-25 152l206 31l43 -422l164 415h206l-317 -690h-191z" />
    <glyph glyph-name="Wcircumflex.alt" horiz-adv-x="979" 
d="M733 737h-109l-51 53l-71 -53h-103l115 150h146zM536 0l-46 275l-125 -275h-191l-103 665l212 32l50 -434l117 251l-25 152l206 31l43 -422l164 415h206l-317 -690h-191z" />
    <glyph glyph-name="Wdieresis.alt" horiz-adv-x="979" 
d="M536 737h-129l22 143h131zM722 737h-130l23 143h130zM536 0l-46 275l-125 -275h-191l-103 665l212 32l50 -434l117 251l-25 152l206 31l43 -422l164 415h206l-317 -690h-191z" />
    <glyph glyph-name="Wgrave.alt" horiz-adv-x="979" 
d="M625 737h-109l-134 118l216 33zM536 0l-46 275l-125 -275h-191l-103 665l212 32l50 -434l117 251l-25 152l206 31l43 -422l164 415h206l-317 -690h-191z" />
    <glyph glyph-name="uni0386.calt" horiz-adv-x="673" 
d="M424 -7l-15 123h-196l-51 -116h-195l341 693h208l114 -666zM368 484l-92 -213h117z" />
    <glyph glyph-name="uni0388.calt" 
d="M561 690l-24 -161h-238l-15 -95h176v-159h-202l-18 -114h246l-26 -161h-445l109 690h437z" />
    <glyph glyph-name="uni0389.calt" horiz-adv-x="683" 
d="M699 690l-109 -690h-203l43 263h-171l-41 -263h-203l109 690h203l-40 -250h171l38 250h203z" />
    <glyph glyph-name="uni038A.calt" horiz-adv-x="315" 
d="M329 690l-109 -690h-203l109 690h203z" />
    <glyph glyph-name="uni038C.calt" horiz-adv-x="688" 
d="M328 -13q-134 0 -209.5 78.5t-75.5 224.5q0 95 30.5 180.5t87.5 142.5q90 90 226 90q134 0 209.5 -78.5t75.5 -224.5q0 -95 -30.5 -180.5t-87.5 -142.5q-90 -90 -226 -90zM330 137q34 0 63 29t51 101t22 156q0 130 -81 130q-34 0 -63 -29t-51 -101t-22 -156
q0 -130 81 -130z" />
    <glyph glyph-name="uni038E.calt" horiz-adv-x="641" 
d="M724 690l-307 -446l-39 -244h-204l38 240l-156 426l212 31l82 -259l158 252h216z" />
    <glyph glyph-name="uni038F.calt" horiz-adv-x="724" 
d="M323 137l-44 -137h-268l24 154l94 -4q-73 98 -73 209q0 141 100.5 242t257.5 101q146 0 223 -77t77 -196q0 -85 -36 -150t-110 -129l93 4l-25 -154h-269v137l30 32q60 65 88.5 120.5t28.5 128.5q0 59 -28.5 94.5t-84.5 35.5q-67 0 -108.5 -60t-41.5 -149q0 -83 52 -170z
" />
    <glyph glyph-name="uni0399.calt" horiz-adv-x="315" 
d="M206 737h-129l22 143h131zM392 737h-130l23 143h130zM329 690l-109 -690h-203l109 690h203z" />
    <glyph glyph-name="uni03A5.calt" horiz-adv-x="641" 
d="M364 737h-129l22 143h131zM550 737h-130l23 143h130zM724 690l-307 -446l-39 -244h-204l38 240l-156 426l212 31l82 -259l158 252h216z" />
    <glyph glyph-name="uni0409.alt" horiz-adv-x="932" 
d="M407 0l-53 436l-190 -436h-196l342 693h192l37 -213h97q277 0 277 -211q0 -126 -87 -197.5t-239 -71.5h-180zM564 337l34 -194h2q51 0 83.5 29t32.5 81q0 84 -100 84h-52z" />
    <glyph glyph-name="uni04D1.alt" horiz-adv-x="507" 
d="M475 694q-36 -144 -167 -144q-67 0 -100.5 37.5t-32.5 106.5l86 14q8 -55 57 -55q24 0 40 13t32 42zM209 108q27 0 65 34l13 79q-53 -5 -79 -28.5t-26 -53.5q0 -31 27 -31zM302 314q5 35 -8.5 48.5t-54.5 13.5q-59 0 -151 -35v126q102 38 207 38q112 0 152.5 -46.5
t25.5 -140.5l-36 -219v-99h-164l-6 58q-70 -68 -144 -68q-50 0 -81.5 32.5t-31.5 84.5q0 183 289 191z" />
    <glyph glyph-name="uni04D3.alt" horiz-adv-x="507" 
d="M274 552h-129l22 143h131zM460 552h-130l23 143h130zM209 108q27 0 65 34l13 79q-53 -5 -79 -28.5t-26 -53.5q0 -31 27 -31zM302 314q5 35 -8.5 48.5t-54.5 13.5q-59 0 -151 -35v126q102 38 207 38q112 0 152.5 -46.5t25.5 -140.5l-36 -219v-99h-164l-6 58
q-70 -68 -144 -68q-50 0 -81.5 32.5t-31.5 84.5q0 183 289 191z" />
    <glyph glyph-name="three.alt" horiz-adv-x="550" 
d="M512 241q0 -113 -81 -183.5t-212 -70.5q-130 0 -223 56l46 152q88 -50 171 -50q47 0 75 21.5t28 58.5q0 60 -105 60h-66v113l171 124h-215v154h467l-21 -144l-178 -128q143 -27 143 -163z" />
    <glyph glyph-name="four.alt" horiz-adv-x="600" 
d="M571 126h-90l-20 -126h-164l21 126h-316l19 120l343 438l164 -44l-312 -385h122l24 148l170 43l-30 -191h90z" />
    <glyph glyph-name="comma.alt" horiz-adv-x="270" 
d="M36 195h182q4 -34 4 -50q0 -76 -41.5 -148t-138.5 -153l-91 44q89 128 89 249q0 20 -4 58z" />
    <glyph glyph-name="semicolon.alt" horiz-adv-x="278" 
d="M55 294l32 201h187l-31 -201h-188zM38 -156l-91 44q89 128 89 249q0 20 -4 58h182q4 -34 4 -50q0 -76 -41.5 -148t-138.5 -153z" />
    <glyph glyph-name="quotedblleft.alt" horiz-adv-x="501" 
d="M448 700l87 -41q-63 -134 -63 -240q0 -30 5 -70h-174q-5 32 -5 55q0 146 150 296zM208 700l87 -41q-63 -134 -63 -240q0 -30 5 -70h-174q-5 32 -5 55q0 146 150 296z" />
    <glyph glyph-name="quotedblright.alt" horiz-adv-x="501" 
d="M378 339l-87 41q63 134 63 240q0 30 -5 70h174q5 -32 5 -55q0 -146 -150 -296zM138 339l-87 41q63 134 63 240q0 30 -5 70h174q5 -32 5 -55q0 -146 -150 -296z" />
    <glyph glyph-name="quoteleft.alt" horiz-adv-x="261" 
d="M208 700l87 -41q-63 -134 -63 -240q0 -30 5 -70h-174q-5 32 -5 55q0 146 150 296z" />
    <glyph glyph-name="quoteright.alt" horiz-adv-x="261" 
d="M138 339l-87 41q63 134 63 240q0 30 -5 70h174q5 -32 5 -55q0 -146 -150 -296z" />
    <glyph glyph-name="quotedblbase.alt" horiz-adv-x="501" 
d="M301 -156l-87 41q63 134 63 240q0 30 -5 70h174q5 -32 5 -55q0 -146 -150 -296zM61 -156l-87 41q63 134 63 240q0 30 -5 70h174q5 -32 5 -55q0 -146 -150 -296z" />
    <glyph glyph-name="quotesinglbase.alt" horiz-adv-x="261" 
d="M61 -156l-87 41q63 134 63 240q0 30 -5 70h174q5 -32 5 -55q0 -146 -150 -296z" />
    <glyph glyph-name="registered.alt" horiz-adv-x="799" 
d="M765 346q0 -160 -96.5 -259.5t-249.5 -99.5q-154 0 -249.5 98.5t-95.5 258.5t96.5 259.5t249.5 99.5q154 0 249.5 -98.5t95.5 -258.5zM721 345q0 151 -85 236.5t-216 85.5q-133 0 -217.5 -85.5t-84.5 -236.5t85 -236.5t217 -85.5t216.5 85.5t84.5 236.5zM588 416
q0 -73 -63 -110l92 -134l-131 -22l-78 123h-16v-118h-126v394h152q82 0 126 -34.5t44 -98.5zM410 462h-19v-108h20q58 0 58 55q0 53 -59 53z" />
    <glyph glyph-name="servicemark.alt" horiz-adv-x="829" 
d="M594 341l-66 210v-206h-99v345h142l72 -210l66 210h141v-345h-105v206l-66 -210h-85zM252 340q-58 0 -122 29l16 87q64 -35 110 -35q27 0 27 20q0 10 -9 17.5t-37 18.5q-55 22 -77 45.5t-22 65.5q0 50 34.5 78.5t85.5 28.5q56 0 106 -25l-12 -87q-58 31 -95 31
q-24 0 -24 -19q0 -17 38 -31q60 -24 84.5 -48t24.5 -66q0 -56 -35.5 -83t-92.5 -27z" />
    <glyph glyph-name="trademark.alt" horiz-adv-x="838" 
d="M405 606h-107v-261h-108v261h-101v84h304zM859 345h-105v206l-66 -210h-85l-66 210v-206h-99v345h142l72 -210l66 210h141v-345z" />
    <glyph glyph-name="space.tab" horiz-adv-x="270" 
 />
    <glyph glyph-name="NUL" horiz-adv-x="0" 
 />
    <glyph glyph-name="A.flat" horiz-adv-x="679" 
d="M368 484l-92 -213h117zM423 0l-14 116h-196l-51 -116h-195l341 693h208l119 -693h-212z" />
    <glyph glyph-name="E.flat" 
d="M561 690l-24 -161h-238l-15 -95h188l-25 -159h-189l-18 -114h246l-26 -161h-445l109 690h437z" />
    <glyph glyph-name="F.flat" horiz-adv-x="511" 
d="M553 690l-26 -168h-229l-18 -111h181l-27 -167h-180l-38 -244h-201l109 690h429z" />
    <glyph glyph-name="G.flat" horiz-adv-x="648" 
d="M634 404l-60 -352q-106 -65 -244 -65q-136 0 -213 77.5t-77 212.5q0 187 108.5 306.5t273.5 119.5q115 0 214 -48l-53 -166q-75 48 -153 48q-85 0 -134.5 -70t-49.5 -183q0 -140 111 -140q33 0 66 12l15 104h-101l23 144h274z" />
    <glyph glyph-name="K.flat" horiz-adv-x="641" 
d="M705 690l-247 -337l160 -353h-228l-125 307l-47 -307h-203l109 690h203l-48 -290l197 290h229z" />
    <glyph glyph-name="L.flat" horiz-adv-x="496" 
d="M430 0h-415l109 690h203l-82 -516h212z" />
    <glyph glyph-name="Q.alt_flat" horiz-adv-x="697" 
d="M640 -13l-107 77q-88 -77 -205 -77q-134 0 -209.5 78.5t-75.5 224.5q0 95 30.5 180.5t87.5 142.5q90 90 226 90q134 0 209.5 -78.5t75.5 -224.5q0 -112 -42 -205l42 -28zM332 133q34 0 64 30l-54 38l31 172l87 -61q10 57 10 109q0 132 -83 132q-34 0 -64 -30t-52 -102
t-22 -156q0 -132 83 -132z" />
    <glyph glyph-name="R.flat" horiz-adv-x="614" 
d="M414 471q0 76 -90 76h-26l-29 -190h20q59 0 92 29.5t33 84.5zM609 487q0 -152 -133 -217l107 -270h-223l-79 220h-32l-35 -220h-199l109 690h224q125 0 193 -51t68 -152z" />
    <glyph glyph-name="T.flat" horiz-adv-x="595" 
d="M625 522h-183l-82 -522h-203l82 522h-183l28 168h569z" />
    <glyph glyph-name="V.flat" horiz-adv-x="659" 
d="M724 690l-340 -693h-195l-119 693h220l50 -436l187 436h197z" />
    <glyph glyph-name="W.flat" horiz-adv-x="970" 
d="M1031 690l-292 -690h-194l-44 382l-166 -382h-188l-73 690h230l14 -376l158 376h196l37 -376l133 376h189z" />
    <glyph glyph-name="W.alt_flat" horiz-adv-x="982" 
d="M539 0l-46 275l-125 -275h-191l-107 690h217l49 -427l117 250l-29 177h211l42 -415l164 415h206l-317 -690h-191z" />
    <glyph glyph-name="X.flat" horiz-adv-x="630" 
d="M379 0l-72 194l-128 -194h-220l259 358l-145 332h227l60 -167l109 167h220l-239 -333l156 -357h-227z" />
    <glyph glyph-name="Y.flat" horiz-adv-x="646" 
d="M729 690l-307 -446l-39 -244h-204l38 240l-165 450h223l80 -252l158 252h216z" />
    <glyph glyph-name="Z.flat" horiz-adv-x="576" 
d="M614 690l-23 -147l-329 -384h266l-25 -159h-516l23 147l329 384h-244l25 159h494z" />
    <glyph glyph-name="f.flat" horiz-adv-x="345" 
d="M403 579q-29 7 -51 7q-52 0 -63 -59l-6 -32h92l-23 -142h-90l-80 -512l-177 -27l85 539h-69l22 142h69l9 53q13 80 56.5 124.5t133.5 44.5q54 0 92 -8v-130z" />
    <glyph glyph-name="k.flat" horiz-adv-x="508" 
d="M178 0h-173l110 691l178 31l-69 -421l129 194h188l-169 -238l105 -257h-183l-83 221z" />
    <glyph glyph-name="t.flat" horiz-adv-x="374" 
d="M357 353h-98l-22 -135q-3 -21 -3 -37q0 -43 43 -43q20 0 40 4v-140q-48 -11 -108 -11q-153 0 -153 131q0 30 5 67l26 164h-58l22 142h58l22 145l177 27l-27 -172h99z" />
    <glyph glyph-name="v.flat" horiz-adv-x="492" 
d="M526 495l-240 -497h-162l-85 497h184l26 -273l112 273h165z" />
    <glyph glyph-name="w.flat" horiz-adv-x="710" 
d="M740 495l-205 -495h-168l-15 268l-97 -268h-165l-48 495h177l5 -270l95 270h160l10 -270l90 270h161z" />
    <glyph glyph-name="x.flat" horiz-adv-x="493" 
d="M272 0l-45 128l-80 -128h-180l178 249l-100 246h178l42 -124l77 124h180l-176 -246l104 -249h-178z" />
    <glyph glyph-name="y.flat" horiz-adv-x="500" 
d="M55 -182q-41 0 -66 7v139q29 -8 62 -8q51 0 80 43l-89 496h185l28 -273l113 273h165l-236 -493q-52 -106 -101 -145t-141 -39z" />
    <glyph glyph-name="z.flat" horiz-adv-x="466" 
d="M469 495l-20 -134l-220 -224h186l-21 -137h-410l21 133l220 225h-164l21 137h387z" />
    <glyph glyph-name="two.flat" horiz-adv-x="549" 
d="M538 507q0 -43 -10.5 -77.5t-35 -66t-51 -55.5t-71.5 -58l-128 -99h242l-23 -151h-463l24 148l239 205q48 41 66.5 65.5t18.5 52.5q0 57 -72 57q-67 0 -166 -66v159q100 68 219 68q95 0 153 -48.5t58 -133.5z" />
    <glyph glyph-name="three.flat" horiz-adv-x="534" 
d="M530 522q0 -69 -34.5 -108t-102.5 -64q98 -43 98 -146q0 -105 -70 -161t-189 -56q-123 0 -235 57l43 143q97 -45 170 -45q43 0 70 19t27 56q0 64 -97 64h-69l21 134h67q110 0 110 69q0 51 -70 51q-74 0 -173 -52v152q115 54 222 54q100 0 156 -42.5t56 -124.5z" />
    <glyph glyph-name="three.alt_flat" horiz-adv-x="550" 
d="M512 241q0 -113 -81 -183.5t-212 -70.5q-130 0 -223 56l46 152q88 -50 171 -50q47 0 75 21.5t28 58.5q0 60 -105 60h-66v113l171 124h-228l25 154h455l-21 -144l-178 -128q143 -27 143 -163z" />
    <glyph glyph-name="four.alt_flat" horiz-adv-x="600" 
d="M571 126h-90l-20 -126h-164l21 126h-316l19 120l337 430h200l-342 -421h122l24 148h163l-23 -148h90z" />
    <glyph glyph-name="five.flat" horiz-adv-x="540" 
d="M526 521h-259l-20 -90q128 -12 190.5 -60t62.5 -140q0 -119 -72.5 -181.5t-197.5 -62.5q-113 0 -231 46l46 154q96 -40 183 -40q92 0 92 70q0 40 -55.5 60.5t-197.5 30.5l81 368h403z" />
    <glyph glyph-name="seven.flat" horiz-adv-x="538" 
d="M572 676l-23 -155l-319 -522h-202l320 512h-272l27 165h469z" />
    <glyph glyph-name="sterling.flat" horiz-adv-x="566" 
d="M508 152l-25 -152h-473l21 135l54 127h-47l23 145h86l52 121q34 81 87 121t139 40q87 0 144 -19l-38 -152q-37 13 -76 13q-61 0 -89 -68l-24 -56h122l-23 -145h-160l-46 -110h273z" />
    <glyph glyph-name="Euro.flat" horiz-adv-x="591" 
d="M540 19q-66 -30 -149 -30q-264 0 -290 240h-84l12 80h69q1 32 8 68h-68l13 80h76q37 104 117.5 168t197.5 64q109 0 185 -51l-49 -144q-75 43 -133 43q-87 0 -128 -80h199l-12 -80h-212q-5 -28 -7 -68h209l-13 -80h-190q23 -91 134 -91q50 0 115 23v-142z" />
    <glyph glyph-name="yen.flat" horiz-adv-x="657" 
d="M546 81h-155l-13 -81h-189l13 81h-153l11 79h155l10 60h-156l12 79h128l-136 377h204l78 -264l149 264h209l-261 -377h125l-11 -79h-153l-9 -60h154z" />
    <glyph glyph-name="numbersign.flat" horiz-adv-x="612" 
d="M248 271h124l21 134h-124zM326 -2l21 130h-119l-21 -130h-96l21 130h-90v148h113l20 124h-106v148h129l21 130h96l-21 -130h119l21 130h96l-21 -130h90v-148h-113l-20 -124h106v-148h-129l-21 -130h-96z" />
    <glyph glyph-name="ordfeminine.flat" horiz-adv-x="368" 
d="M241 448l9 54q-37 -6 -53.5 -22t-16.5 -35q0 -20 17 -20q23 0 44 23zM114 574l1 81q58 26 145 26q67 0 96.5 -27.5t19.5 -87.5l-24 -149v-64h-115v41q-52 -48 -106 -48q-35 0 -52.5 19.5t-17.5 51.5q0 116 198 137v3q0 24 -10 32t-39 8q-38 0 -96 -23zM323 221h-290
l11 79h292z" />
    <glyph glyph-name="ordmasculine.flat" horiz-adv-x="368" 
d="M205 347q-62 0 -100.5 37t-38.5 101q0 83 50.5 139t133.5 56q62 0 100.5 -37t38.5 -101q0 -83 -50.5 -139t-133.5 -56zM239 585q-24 0 -41 -28.5t-17 -66.5q0 -48 35 -48q24 0 41 28.5t17 66.5q0 48 -35 48zM327 221h-299l13 79h299z" />
    <glyph glyph-name="percent.flat" horiz-adv-x="812" 
d="M196 270q-66 0 -101.5 44t-35.5 121q0 61 19.5 115.5t53.5 88.5q45 45 102 45q66 0 101.5 -44.5t35.5 -120.5q0 -62 -20 -116.5t-55 -89.5q-43 -43 -100 -43zM118 0l273 369l222 307h110l-264 -357l-231 -319h-110zM201 369q21 0 38 33q25 50 25 123q0 60 -35 60
q-21 0 -38 -33q-25 -50 -25 -123q0 -60 35 -60zM607 -8q-66 0 -101.5 44t-35.5 121q0 132 73 205q44 44 102 44q66 0 101.5 -44.5t35.5 -120.5q0 -61 -19.5 -115.5t-53.5 -88.5q-45 -45 -102 -45zM612 91q22 0 39 34q24 48 24 122q0 60 -35 60q-22 0 -38 -33
q-25 -50 -25 -123q0 -60 35 -60z" />
    <glyph glyph-name="ampersand.flat" horiz-adv-x="637" 
d="M256 122q31 0 65 22l-86 140q-46 -43 -46 -95q0 -29 17 -48t50 -19zM409 0l-28 46q-86 -59 -181 -59q-92 0 -141.5 46.5t-49.5 119.5q0 156 166 233q-32 65 -32 123q0 86 55 140t154 54q109 0 195 -44l-48 -151q-78 40 -131 40q-47 0 -47 -40q0 -24 20 -57l90 -147
q17 43 35 115l136 -36q-34 -118 -94 -205l109 -178h-208z" />
    <glyph glyph-name="exclam.flat" horiz-adv-x="302" 
d="M331 690l-125 -430h-106l12 430h219zM236 192l-31 -192h-188l31 192h188z" />
    <glyph glyph-name="exclamdown.flat" horiz-adv-x="302" 
d="M100 498l31 192h188l-31 -192h-188zM5 0l125 430h106l-12 -430h-219z" />
    <glyph glyph-name="question.flat" horiz-adv-x="482" 
d="M147 239l16 154l12 4q76 25 107 46t31 50q0 42 -58 42q-71 0 -185 -68v170q112 66 238 66q98 0 149 -48.5t51 -131.5q0 -120 -89.5 -186.5t-271.5 -97.5zM52 0l30 192h188l-30 -192h-188z" />
    <glyph glyph-name="questiondown.flat" horiz-adv-x="481" 
d="M461 691l-30 -192h-188l30 192h188zM366 452l-16 -154l-12 -4q-76 -25 -107 -46t-31 -50q0 -42 58 -42q71 0 185 68v-170q-112 -66 -238 -66q-98 0 -149 48.5t-51 131.5q0 120 89.5 186.5t271.5 97.5z" />
    <glyph glyph-name="guillemotleft.flat" 
d="M551 495l-129 -251l50 -244h-118l-115 248l185 247h127zM322 495l-129 -251l50 -244h-118l-115 248l185 247h127z" />
    <glyph glyph-name="guillemotright.flat" 
d="M-22 0l129 251l-50 244h118l115 -248l-185 -247h-127zM207 0l129 251l-50 244h118l115 -248l-185 -247h-127z" />
    <glyph glyph-name="guilsinglleft.flat" horiz-adv-x="303" 
d="M322 495l-129 -251l50 -244h-118l-115 248l185 247h127z" />
    <glyph glyph-name="guilsinglright.flat" horiz-adv-x="303" 
d="M-22 0l129 251l-50 244h118l115 -248l-185 -247h-127z" />
    <glyph glyph-name="parenleft.flat" horiz-adv-x="370" 
d="M400 616q-90 -83 -133 -165.5t-44 -191.5q-1 -136 80 -243l-38 -115q-101 51 -167.5 144.5t-65.5 224.5q2 164 103.5 282.5t264.5 173.5v-110z" />
    <glyph glyph-name="parenright.flat" horiz-adv-x="370" 
d="M-11 11q90 83 133 165.5t44 191.5q1 136 -80 243l38 115q101 -51 167.5 -144.5t65.5 -224.5q-2 -164 -103.5 -282.5t-264.5 -173.5v110z" />
    <glyph glyph-name="bracketleft.flat" horiz-adv-x="405" 
d="M452 690l-16 -104h-151l-93 -586h151l-17 -104h-320l126 794h320z" />
    <glyph glyph-name="bracketright.flat" horiz-adv-x="405" 
d="M-34 -104l16 104h151l93 586h-151l17 104h320l-126 -794h-320z" />
    <glyph glyph-name="braceleft.flat" horiz-adv-x="479" 
d="M517 690l-16 -104h-75q-37 0 -54 -19t-18 -60v-56q-1 -68 -32.5 -105t-98.5 -52v-2q50 -12 70.5 -36t19.5 -67q-1 -29 -17 -79t-16 -66q-1 -21 13 -32.5t41 -11.5h74l-16 -104h-164q-63 0 -95.5 28t-31.5 79q1 30 18.5 89t17.5 83q1 35 -19.5 51t-68.5 16h-26l17 103h25
q60 0 88 26.5t29 93.5v54q1 77 45 124t125 47h165z" />
    <glyph glyph-name="braceright.flat" horiz-adv-x="472" 
d="M-31 -104l16 104h75q37 0 54 19t18 60v56q1 68 32.5 105t98.5 52v2q-50 12 -70.5 36t-19.5 67q1 29 17 79t16 66q1 21 -13 32.5t-41 11.5h-74l16 104h164q63 0 95.5 -28t31.5 -79q-1 -30 -18.5 -89t-17.5 -83q-1 -35 19.5 -51t68.5 -16h26l-17 -103h-25q-60 0 -88 -26.5
t-29 -93.5v-54q-1 -77 -45 -124t-125 -47h-165z" />
    <glyph glyph-name="registered.alt_flat" horiz-adv-x="799" 
d="M765 346q0 -160 -96.5 -259.5t-249.5 -99.5q-154 0 -249.5 98.5t-95.5 258.5t96.5 259.5t249.5 99.5q154 0 249.5 -98.5t95.5 -258.5zM721 345q0 151 -85 236.5t-216 85.5q-133 0 -217.5 -85.5t-84.5 -236.5t85 -236.5t217 -85.5t216.5 85.5t84.5 236.5zM391 462v-108h20
q58 0 58 55q0 53 -59 53h-19zM629 155h-147l-74 118h-16v-118h-126v394h152q82 0 126 -34.5t44 -98.5q0 -73 -63 -110z" />
    <glyph glyph-name="registered.flat" horiz-adv-x="563" 
d="M546 470q0 -103 -63.5 -167.5t-163.5 -64.5q-101 0 -164 64t-63 168q0 103 64 168t163 65q101 0 164 -64.5t63 -168.5zM513 470q0 96 -55 151t-139 55t-139 -55t-55 -151q0 -95 55 -150t139 -55q85 0 139.5 54.5t54.5 150.5zM352 517q0 34 -37 34h-15v-69h15q37 0 37 35z
M453 350h-95l-49 82h-9v-82h-81v256h107q105 0 105 -83q0 -49 -44 -71z" />
    <glyph glyph-name="trademark.flat" horiz-adv-x="817" 
d="M399 606h-101v-261h-108v261h-101v84h310v-84zM854 345h-111l-13 204l-49 -206h-103l-49 206l-13 -204h-92l26 345h141l51 -211l52 211h135z" />
    <glyph glyph-name="trademark.alt_flat" horiz-adv-x="838" 
d="M399 606h-101v-261h-108v261h-101v84h310v-84zM859 345h-105v206l-66 -210h-85l-66 210v-206h-99v345h142l72 -210l66 210h141v-345z" />
    <glyph glyph-name="AE.flat" horiz-adv-x="874" 
d="M416 271l43 276l-157 -276h114zM373 0l18 116h-172l-66 -116h-197l416 690h532l-24 -161h-223l-15 -95h173l-25 -159h-174l-18 -114h231l-26 -161h-430z" />
    <glyph glyph-name="OE.flat" horiz-adv-x="866" 
d="M384 0q-350 0 -350 292q0 174 107 281q117 117 345 117h410l-24 -161h-223l-15 -95h173l-25 -159h-174l-18 -114h231l-26 -161h-411zM380 151h9l62 388h-2q-87 0 -145 -58q-66 -66 -66 -180q0 -150 142 -150z" />
    <glyph glyph-name="Eth.flat" horiz-adv-x="704" 
d="M271 151h4q87 0 145 58q66 66 66 180q0 150 -142 150h-11l-17 -107h82l-26 -161h-82zM238 0h-189l42 267h-78l27 169h78l40 254h182q350 0 350 -292q0 -174 -107 -281q-117 -117 -345 -117z" />
    <glyph glyph-name="Dcroat.flat" horiz-adv-x="704" 
d="M271 151h4q87 0 145 58q66 66 66 180q0 150 -142 150h-11l-17 -107h82l-26 -161h-82zM238 0h-189l42 267h-78l27 169h78l40 254h182q350 0 350 -292q0 -174 -107 -281q-117 -117 -345 -117z" />
    <glyph glyph-name="Hbar.flat" horiz-adv-x="743" 
d="M316 427h168l13 87h-167zM293 263l-41 -263h-203l81 510h-79l17 112h79l11 68h200l-11 -68h167l10 68h200l-11 -68h79l-17 -112h-79l-81 -510h-203l43 263h-162z" />
    <glyph glyph-name="Lslash.flat" horiz-adv-x="530" 
d="M464 0h-415l33 211l-78 -39l25 166l79 38l50 314h203l-33 -205l124 62l-26 -166l-124 -60l-23 -147h212z" />
    <glyph glyph-name="Aogonek.flat" horiz-adv-x="679" 
d="M368 484l-92 -213h117zM550 -190q-50 -20 -105 -20q-49 0 -74.5 22t-25.5 55q0 55 78 133l-14 116h-196l-51 -116h-195l341 693h208l119 -693h-105l-12 -15q-40 -50 -40 -72q0 -25 33 -25q21 0 52 7z" />
    <glyph glyph-name="Eogonek.flat" 
d="M438 -190q-50 -20 -105 -20q-49 0 -74.5 22t-25.5 55q0 55 78 133h-296l109 690h437l-24 -161h-238l-15 -95h188l-25 -159h-189l-18 -114h246l-26 -161h-42l-12 -15q-40 -50 -40 -72q0 -25 33 -25q21 0 52 7z" />
    <glyph glyph-name="Aring.flat" horiz-adv-x="679" 
d="M415 690q24 0 37.5 14.5t13.5 39.5t-13.5 39.5t-37.5 14.5t-37.5 -14.5t-13.5 -39.5t13.5 -39.5t37.5 -14.5zM368 484l-92 -213h117zM423 0l-14 116h-196l-51 -116h-195l329 669q-28 29 -28 75q0 50 37 83t110 33t110 -33t37 -83q0 -55 -41 -87l114 -657h-212z" />
    <glyph glyph-name="Aringacute.flat" horiz-adv-x="673" 
d="M640 992l-157 -118h-106l70 151zM415 690q24 0 37.5 14.5t13.5 39.5t-13.5 39.5t-37.5 14.5t-37.5 -14.5t-13.5 -39.5t13.5 -39.5t37.5 -14.5zM368 484l-92 -213h117zM423 0l-14 116h-196l-51 -116h-195l329 669q-28 29 -28 75q0 50 37 83t110 33t110 -33t37 -83
q0 -55 -41 -87l114 -657h-212z" />
    <glyph glyph-name="Ldot.flat" horiz-adv-x="500" 
d="M434 0h-415l109 690h203l-82 -516h212zM487 302h-138l22 143h138z" />
    <glyph glyph-name="Aacute.flat" horiz-adv-x="679" 
d="M620 865l-157 -118h-106l70 151zM368 484l-92 -213h117zM423 0l-14 116h-196l-51 -116h-195l341 693h208l119 -693h-212z" />
    <glyph glyph-name="Agrave.flat" horiz-adv-x="679" 
d="M478 747h-109l-134 118l216 33zM368 484l-92 -213h117zM423 0l-14 116h-196l-51 -116h-195l341 693h208l119 -693h-212z" />
    <glyph glyph-name="Acircumflex.flat" horiz-adv-x="679" 
d="M585 747h-109l-51 53l-71 -53h-103l115 150h146zM368 484l-92 -213h117zM423 0l-14 116h-196l-51 -116h-195l341 693h208l119 -693h-212z" />
    <glyph glyph-name="Abreve.flat" horiz-adv-x="679" 
d="M589 889q-36 -144 -167 -144q-67 0 -100.5 37.5t-32.5 106.5l86 14q8 -55 57 -55q24 0 40 13t32 42zM368 484l-92 -213h117zM423 0l-14 116h-196l-51 -116h-195l341 693h208l119 -693h-212z" />
    <glyph glyph-name="Atilde.flat" horiz-adv-x="679" 
d="M599 896q-20 -85 -44 -117.5t-63 -32.5q-23 0 -61 18q-41 20 -56 20q-10 0 -18 -9t-17 -33l-73 17q20 85 44.5 118t63.5 33q25 0 61 -18q41 -20 56 -20q10 0 18 9t17 33zM368 484l-92 -213h117zM423 0l-14 116h-196l-51 -116h-195l341 693h208l119 -693h-212z" />
    <glyph glyph-name="Amacron.flat" horiz-adv-x="679" 
d="M576 752h-316l19 118h316zM368 484l-92 -213h117zM423 0l-14 116h-196l-51 -116h-195l341 693h208l119 -693h-212z" />
    <glyph glyph-name="Adieresis.flat" horiz-adv-x="679" 
d="M388 747h-129l22 143h131zM574 747h-130l23 143h130zM368 484l-92 -213h117zM423 0l-14 116h-196l-51 -116h-195l341 693h208l119 -693h-212z" />
    <glyph glyph-name="Eacute.flat" 
d="M553 855l-157 -118h-106l70 151zM561 690l-24 -161h-238l-15 -95h188l-25 -159h-189l-18 -114h246l-26 -161h-445l109 690h437z" />
    <glyph glyph-name="Egrave.flat" 
d="M411 737h-109l-134 118l216 33zM561 690l-24 -161h-238l-15 -95h188l-25 -159h-189l-18 -114h246l-26 -161h-445l109 690h437z" />
    <glyph glyph-name="Ecircumflex.flat" 
d="M518 737h-109l-51 53l-71 -53h-103l115 150h146zM561 690l-24 -161h-238l-15 -95h188l-25 -159h-189l-18 -114h246l-26 -161h-445l109 690h437z" />
    <glyph glyph-name="Ecaron.flat" 
d="M204 887h109l51 -53l71 53h103l-115 -150h-146zM561 690l-24 -161h-238l-15 -95h188l-25 -159h-189l-18 -114h246l-26 -161h-445l109 690h437z" />
    <glyph glyph-name="Ebreve.flat" 
d="M522 879q-36 -144 -167 -144q-67 0 -100.5 37.5t-32.5 106.5l86 14q8 -55 57 -55q24 0 40 13t32 42zM561 690l-24 -161h-238l-15 -95h188l-25 -159h-189l-18 -114h246l-26 -161h-445l109 690h437z" />
    <glyph glyph-name="Emacron.flat" 
d="M509 742h-316l19 118h316zM561 690l-24 -161h-238l-15 -95h188l-25 -159h-189l-18 -114h246l-26 -161h-445l109 690h437z" />
    <glyph glyph-name="Edieresis.flat" 
d="M321 737h-129l22 143h131zM507 737h-130l23 143h130zM561 690l-24 -161h-238l-15 -95h188l-25 -159h-189l-18 -114h246l-26 -161h-445l109 690h437z" />
    <glyph glyph-name="Edotaccent.flat" 
d="M418 737h-136l23 143h136zM561 690l-24 -161h-238l-15 -95h188l-25 -159h-189l-18 -114h246l-26 -161h-445l109 690h437z" />
    <glyph glyph-name="Gbreve.flat" horiz-adv-x="648" 
d="M607 889q-36 -144 -167 -144q-67 0 -100.5 37.5t-32.5 106.5l86 14q8 -55 57 -55q24 0 40 13t32 42zM634 404l-60 -352q-106 -65 -244 -65q-136 0 -213 77.5t-77 212.5q0 187 108.5 306.5t273.5 119.5q115 0 214 -48l-53 -166q-75 48 -153 48q-85 0 -134.5 -70
t-49.5 -183q0 -140 111 -140q33 0 66 12l15 104h-101l23 144h274z" />
    <glyph glyph-name="Gdotaccent.flat" horiz-adv-x="648" 
d="M503 747h-136l23 143h136zM634 404l-60 -352q-106 -65 -244 -65q-136 0 -213 77.5t-77 212.5q0 187 108.5 306.5t273.5 119.5q115 0 214 -48l-53 -166q-75 48 -153 48q-85 0 -134.5 -70t-49.5 -183q0 -140 111 -140q33 0 66 12l15 104h-101l23 144h274z" />
    <glyph glyph-name="Gcommaaccent.flat" horiz-adv-x="648" 
d="M634 404l-60 -352q-106 -65 -244 -65q-136 0 -213 77.5t-77 212.5q0 187 108.5 306.5t273.5 119.5q115 0 214 -48l-53 -166q-75 48 -153 48q-85 0 -134.5 -70t-49.5 -183q0 -140 111 -140q33 0 66 12l15 104h-101l23 144h274zM212 -76l144 22q33 -33 33 -71
q0 -41 -31 -79.5t-88 -67.5l-106 21q40 36 56 61.5t16 53.5q0 29 -24 60z" />
    <glyph glyph-name="Kcommaaccent.flat" horiz-adv-x="641" 
d="M705 690l-247 -337l160 -353h-228l-125 307l-47 -307h-203l109 690h203l-48 -290l197 290h229zM190 -56l144 22q33 -33 33 -71q0 -41 -31 -79.5t-88 -67.5l-106 21q40 36 56 61.5t16 53.5q0 29 -24 60z" />
    <glyph glyph-name="Lacute.flat" horiz-adv-x="496" 
d="M450 855l-157 -118h-106l70 151zM430 0h-415l109 690h203l-82 -516h212z" />
    <glyph glyph-name="Lcaron.flat" horiz-adv-x="496" 
d="M496 690q3 -12 3 -28q0 -107 -95 -189l-80 17q41 69 41 129q0 25 -6 54zM430 0h-415l109 690h203l-82 -516h212z" />
    <glyph glyph-name="Lcommaaccent.flat" horiz-adv-x="496" 
d="M430 0h-415l109 690h203l-82 -516h212zM119 -66l144 22q33 -33 33 -71q0 -41 -31 -79.5t-88 -67.5l-106 21q40 36 56 61.5t16 53.5q0 29 -24 60z" />
    <glyph glyph-name="Racute.flat" horiz-adv-x="614" 
d="M578 855l-157 -118h-106l70 151zM414 471q0 76 -90 76h-26l-29 -190h20q59 0 92 29.5t33 84.5zM609 487q0 -152 -133 -217l107 -270h-223l-79 220h-32l-35 -220h-199l109 690h224q125 0 193 -51t68 -152z" />
    <glyph glyph-name="Rcaron.flat" horiz-adv-x="614" 
d="M229 887h109l51 -53l71 53h103l-115 -150h-146zM414 471q0 76 -90 76h-26l-29 -190h20q59 0 92 29.5t33 84.5zM609 487q0 -152 -133 -217l107 -270h-223l-79 220h-32l-35 -220h-199l109 690h224q125 0 193 -51t68 -152z" />
    <glyph glyph-name="Rcommaaccent.flat" horiz-adv-x="614" 
d="M414 471q0 76 -90 76h-26l-29 -190h20q59 0 92 29.5t33 84.5zM609 487q0 -152 -133 -217l107 -270h-223l-79 220h-32l-35 -220h-199l109 690h224q125 0 193 -51t68 -152zM174 -56l144 22q33 -33 33 -71q0 -41 -31 -79.5t-88 -67.5l-106 21q40 36 56 61.5t16 53.5
q0 29 -24 60z" />
    <glyph glyph-name="Tcaron.flat" horiz-adv-x="595" 
d="M229 887h109l51 -53l71 53h103l-115 -150h-146zM625 522h-183l-82 -522h-203l82 522h-183l28 168h569z" />
    <glyph glyph-name="Tcommaaccent.flat" horiz-adv-x="595" 
d="M625 522h-183l-82 -522h-203l82 522h-183l28 168h569zM156 -66l144 22q33 -33 33 -71q0 -41 -31 -79.5t-88 -67.5l-106 21q40 36 56 61.5t16 53.5q0 29 -24 60z" />
    <glyph glyph-name="Wacute.flat" horiz-adv-x="970" 
d="M783 855l-157 -118h-106l70 151zM1031 690l-292 -690h-194l-44 382l-166 -382h-188l-73 690h230l14 -376l158 376h196l37 -376l133 376h189z" />
    <glyph glyph-name="Wgrave.flat" horiz-adv-x="970" 
d="M641 737h-109l-134 118l216 33zM1031 690l-292 -690h-194l-44 382l-166 -382h-188l-73 690h230l14 -376l158 376h196l37 -376l133 376h189z" />
    <glyph glyph-name="Wcircumflex.flat" horiz-adv-x="970" 
d="M749 737h-109l-51 53l-71 -53h-103l115 150h146zM1031 690l-292 -690h-194l-44 382l-166 -382h-188l-73 690h230l14 -376l158 376h196l37 -376l133 376h189z" />
    <glyph glyph-name="Wdieresis.flat" horiz-adv-x="970" 
d="M552 737h-129l22 143h131zM738 737h-130l23 143h130zM1031 690l-292 -690h-194l-44 382l-166 -382h-188l-73 690h230l14 -376l158 376h196l37 -376l133 376h189z" />
    <glyph glyph-name="Wacute.alt_flat" horiz-adv-x="982" 
d="M771 855l-157 -118h-106l70 151zM539 0l-46 275l-125 -275h-191l-107 690h217l49 -427l117 250l-29 177h211l42 -415l164 415h206l-317 -690h-191z" />
    <glyph glyph-name="Wgrave.alt_flat" horiz-adv-x="982" 
d="M629 737h-109l-134 118l216 33zM539 0l-46 275l-125 -275h-191l-107 690h217l49 -427l117 250l-29 177h211l42 -415l164 415h206l-317 -690h-191z" />
    <glyph glyph-name="Wcircumflex.alt_flat" horiz-adv-x="982" 
d="M736 737h-109l-51 53l-71 -53h-103l115 150h146zM539 0l-46 275l-125 -275h-191l-107 690h217l49 -427l117 250l-29 177h211l42 -415l164 415h206l-317 -690h-191z" />
    <glyph glyph-name="Wdieresis.alt_flat" horiz-adv-x="982" 
d="M539 737h-129l22 143h131zM725 737h-130l23 143h130zM539 0l-46 275l-125 -275h-191l-107 690h217l49 -427l117 250l-29 177h211l42 -415l164 415h206l-317 -690h-191z" />
    <glyph glyph-name="Yacute.flat" horiz-adv-x="646" 
d="M601 855l-157 -118h-106l70 151zM729 690l-307 -446l-39 -244h-204l38 240l-165 450h223l80 -252l158 252h216z" />
    <glyph glyph-name="Ygrave.flat" horiz-adv-x="646" 
d="M459 737h-109l-134 118l216 33zM729 690l-307 -446l-39 -244h-204l38 240l-165 450h223l80 -252l158 252h216z" />
    <glyph glyph-name="Ycircumflex.flat" horiz-adv-x="646" 
d="M567 737h-109l-51 53l-71 -53h-103l115 150h146zM729 690l-307 -446l-39 -244h-204l38 240l-165 450h223l80 -252l158 252h216z" />
    <glyph glyph-name="Ydieresis.flat" horiz-adv-x="646" 
d="M370 737h-129l22 143h131zM556 737h-130l23 143h130zM729 690l-307 -446l-39 -244h-204l38 240l-165 450h223l80 -252l158 252h216z" />
    <glyph glyph-name="Zacute.flat" horiz-adv-x="576" 
d="M571 855l-157 -118h-106l70 151zM614 690l-23 -147l-329 -384h266l-25 -159h-516l23 147l329 384h-244l25 159h494z" />
    <glyph glyph-name="Zcaron.flat" horiz-adv-x="576" 
d="M222 887h109l51 -53l71 53h103l-115 -150h-146zM614 690l-23 -147l-329 -384h266l-25 -159h-516l23 147l329 384h-244l25 159h494z" />
    <glyph glyph-name="Zdotaccent.flat" horiz-adv-x="576" 
d="M436 737h-136l23 143h136zM614 690l-23 -147l-329 -384h266l-25 -159h-516l23 147l329 384h-244l25 159h494z" />
    <glyph glyph-name="AEacute.flat" horiz-adv-x="874" 
d="M780 855l-157 -118h-106l70 151zM416 271l43 276l-157 -276h114zM373 0l18 116h-172l-66 -116h-197l416 690h532l-24 -161h-223l-15 -95h173l-25 -159h-174l-18 -114h231l-26 -161h-430z" />
    <glyph glyph-name="dcroat.flat" horiz-adv-x="526" 
d="M325 363q-12 4 -26 4q-45 0 -74.5 -43t-29.5 -121q0 -60 41 -60q24 0 59 35zM288 74q-40 -43 -71.5 -63.5t-67.5 -20.5q-60 0 -94.5 47.5t-34.5 131.5q0 157 79.5 243t195.5 86q21 0 51 -5l8 50h-103l17 103h101l8 49l177 27l-12 -76h64l-16 -103h-65l-67 -421v-122h-164
z" />
    <glyph glyph-name="hbar.flat" horiz-adv-x="529" 
d="M228 311l-50 -311h-173l87 543h-63l17 103h62l8 49l177 27l-12 -76h112l-17 -103h-112l-21 -126q44 42 81.5 65t82.5 23q48 0 73 -29.5t25 -79.5q0 -19 -4 -45l-56 -351h-173l47 297q3 18 3 28q0 26 -26 26q-24 0 -68 -40z" />
    <glyph glyph-name="lslash.flat" horiz-adv-x="349" 
d="M218 0h-173l35 222l-75 -37l27 167l75 36l49 307l177 27l-39 -245l75 37l-27 -167l-74 -35z" />
    <glyph glyph-name="kcommaaccent.flat" horiz-adv-x="508" 
d="M178 0h-173l110 691l178 31l-69 -421l129 194h188l-169 -238l105 -257h-183l-83 221zM120 -66l144 22q33 -33 33 -71q0 -41 -31 -79.5t-88 -67.5l-106 21q40 36 56 61.5t16 53.5q0 29 -24 60z" />
    <glyph glyph-name="tcaron.flat" horiz-adv-x="374" 
d="M490 745q3 -12 3 -28q0 -107 -95 -189l-80 17q41 69 41 129q0 26 -6 54zM357 353h-98l-22 -135q-3 -21 -3 -37q0 -43 43 -43q20 0 40 4v-140q-48 -11 -108 -11q-153 0 -153 131q0 30 5 67l26 164h-58l22 142h58l22 145l177 27l-27 -172h99z" />
    <glyph glyph-name="tcommaaccent.flat" horiz-adv-x="374" 
d="M357 353h-98l-22 -135q-3 -21 -3 -37q0 -43 43 -43q20 0 40 4v-140q-48 -11 -108 -11q-153 0 -153 131q0 30 5 67l26 164h-58l22 142h58l22 145l177 27l-27 -172h99zM67 -71l144 22q33 -33 33 -71q0 -41 -31 -79.5t-88 -67.5l-106 21q40 36 56 61.5t16 53.5q0 29 -24 60z
" />
    <glyph glyph-name="wacute.flat" horiz-adv-x="710" 
d="M612 665l-157 -118h-106l70 151zM740 495l-205 -495h-168l-15 268l-97 -268h-165l-48 495h177l5 -270l95 270h160l10 -270l90 270h161z" />
    <glyph glyph-name="wgrave.flat" horiz-adv-x="710" 
d="M470 547h-109l-134 118l216 33zM740 495l-205 -495h-168l-15 268l-97 -268h-165l-48 495h177l5 -270l95 270h160l10 -270l90 270h161z" />
    <glyph glyph-name="wcircumflex.flat" horiz-adv-x="710" 
d="M577 547h-109l-51 53l-71 -53h-103l115 150h146zM740 495l-205 -495h-168l-15 268l-97 -268h-165l-48 495h177l5 -270l95 270h160l10 -270l90 270h161z" />
    <glyph glyph-name="wdieresis.flat" horiz-adv-x="710" 
d="M380 547h-129l22 143h131zM566 547h-130l23 143h130zM740 495l-205 -495h-168l-15 268l-97 -268h-165l-48 495h177l5 -270l95 270h160l10 -270l90 270h161z" />
    <glyph glyph-name="yacute.flat" horiz-adv-x="500" 
d="M507 665l-157 -118h-106l70 151zM55 -182q-41 0 -66 7v139q29 -8 62 -8q51 0 80 43l-89 496h185l28 -273l113 273h165l-236 -493q-52 -106 -101 -145t-141 -39z" />
    <glyph glyph-name="ygrave.flat" horiz-adv-x="500" 
d="M365 547h-109l-134 118l216 33zM55 -182q-41 0 -66 7v139q29 -8 62 -8q51 0 80 43l-89 496h185l28 -273l113 273h165l-236 -493q-52 -106 -101 -145t-141 -39z" />
    <glyph glyph-name="ycircumflex.flat" horiz-adv-x="500" 
d="M473 547h-109l-51 53l-71 -53h-103l115 150h146zM55 -182q-41 0 -66 7v139q29 -8 62 -8q51 0 80 43l-89 496h185l28 -273l113 273h165l-236 -493q-52 -106 -101 -145t-141 -39z" />
    <glyph glyph-name="ydieresis.flat" horiz-adv-x="500" 
d="M276 547h-129l22 143h131zM462 547h-130l23 143h130zM55 -182q-41 0 -66 7v139q29 -8 62 -8q51 0 80 43l-89 496h185l28 -273l113 273h165l-236 -493q-52 -106 -101 -145t-141 -39z" />
    <glyph glyph-name="zacute.flat" horiz-adv-x="466" 
d="M483 665l-157 -118h-106l70 151zM469 495l-20 -134l-220 -224h186l-21 -137h-410l21 133l220 225h-164l21 137h387z" />
    <glyph glyph-name="zcaron.flat" horiz-adv-x="466" 
d="M135 697h109l51 -53l71 53h103l-115 -150h-146zM469 495l-20 -134l-220 -224h186l-21 -137h-410l21 133l220 225h-164l21 137h387z" />
    <glyph glyph-name="zdotaccent.flat" horiz-adv-x="466" 
d="M349 547h-136l23 143h136zM469 495l-20 -134l-220 -224h186l-21 -137h-410l21 133l220 225h-164l21 137h387z" />
    <glyph glyph-name="f_f.flat" horiz-adv-x="690" 
d="M748 579q-29 7 -51 7q-52 0 -63 -59l-6 -32h92l-23 -142h-90l-80 -512l-177 -27l85 539h-69l22 142h69l9 53q13 80 56.5 124.5t133.5 44.5q54 0 92 -8v-130zM403 579q-29 7 -51 7q-52 0 -63 -59l-6 -32h92l-23 -142h-90l-80 -512l-177 -27l85 539h-69l22 142h69l9 53
q13 80 56.5 124.5t133.5 44.5q54 0 92 -8v-130z" />
    <glyph glyph-name="f_f_i.flat" horiz-adv-x="962" 
d="M988 638q0 -42 -28 -67t-71 -25q-42 0 -70.5 25t-28.5 67t28.5 67.5t70.5 25.5q43 0 71 -25t28 -68zM748 579q-29 7 -51 7q-52 0 -63 -59l-6 -32h92l-23 -142h-90l-80 -512l-177 -27l85 539h-69l22 142h69l9 53q13 80 56.5 124.5t133.5 44.5q54 0 92 -8v-130zM403 579
q-29 7 -51 7q-52 0 -63 -59l-6 -32h92l-23 -142h-90l-80 -512l-177 -27l85 539h-69l22 142h69l9 53q13 80 56.5 124.5t133.5 44.5q54 0 92 -8v-130zM953 495l-81 -495h-173l81 495h173z" />
    </font>
</defs>
</svg>
